<?xml version="1.0" encoding="utf-8" standalone="no"?>
<!DOCTYPE svg PUBLIC "-//W3C//DTD SVG 1.1//EN"
  "http://www.w3.org/Graphics/SVG/1.1/DTD/svg11.dtd">
<!-- Created with matplotlib (http://matplotlib.org/) -->
<svg height="180pt" version="1.1" viewBox="0 0 252 180" width="252pt" xmlns="http://www.w3.org/2000/svg" xmlns:xlink="http://www.w3.org/1999/xlink">
 <defs>
  <style type="text/css">
*{stroke-linecap:butt;stroke-linejoin:round;}
  </style>
 </defs>
 <g id="figure_1">
  <g id="patch_1">
   <path d="M 0 180 
L 252 180 
L 252 0 
L 0 0 
z
" style="fill:#ffffff;"/>
  </g>
  <g id="axes_1">
   <g id="patch_2">
    <path d="M 31.5 160.2 
L 226.8 160.2 
L 226.8 21.6 
L 31.5 21.6 
z
" style="fill:#ffffff;"/>
   </g>
   <g id="matplotlib.axis_1">
    <g id="xtick_1">
     <g id="line2d_1">
      <defs>
       <path d="M 0 0 
L 0 3.5 
" id="m3d178fa2cd" style="stroke:#000000;stroke-width:0.8;"/>
      </defs>
      <g>
       <use style="stroke:#000000;stroke-width:0.8;" x="47.775" xlink:href="#m3d178fa2cd" y="160.2"/>
      </g>
     </g>
     <g id="text_1">
      <!-- 1 -->
      <defs>
       <path d="M 12.40625 8.296875 
L 28.515625 8.296875 
L 28.515625 63.921875 
L 10.984375 60.40625 
L 10.984375 69.390625 
L 28.421875 72.90625 
L 38.28125 72.90625 
L 38.28125 8.296875 
L 54.390625 8.296875 
L 54.390625 0 
L 12.40625 0 
z
" id="DejaVuSans-31"/>
      </defs>
      <g transform="translate(44.59375 174.798438)scale(0.1 -0.1)">
       <use xlink:href="#DejaVuSans-31"/>
      </g>
     </g>
    </g>
    <g id="xtick_2">
     <g id="line2d_2">
      <g>
       <use style="stroke:#000000;stroke-width:0.8;" x="80.325" xlink:href="#m3d178fa2cd" y="160.2"/>
      </g>
     </g>
     <g id="text_2">
      <!-- 2 -->
      <defs>
       <path d="M 19.1875 8.296875 
L 53.609375 8.296875 
L 53.609375 0 
L 7.328125 0 
L 7.328125 8.296875 
Q 12.9375 14.109375 22.625 23.890625 
Q 32.328125 33.6875 34.8125 36.53125 
Q 39.546875 41.84375 41.421875 45.53125 
Q 43.3125 49.21875 43.3125 52.78125 
Q 43.3125 58.59375 39.234375 62.25 
Q 35.15625 65.921875 28.609375 65.921875 
Q 23.96875 65.921875 18.8125 64.3125 
Q 13.671875 62.703125 7.8125 59.421875 
L 7.8125 69.390625 
Q 13.765625 71.78125 18.9375 73 
Q 24.125 74.21875 28.421875 74.21875 
Q 39.75 74.21875 46.484375 68.546875 
Q 53.21875 62.890625 53.21875 53.421875 
Q 53.21875 48.921875 51.53125 44.890625 
Q 49.859375 40.875 45.40625 35.40625 
Q 44.1875 33.984375 37.640625 27.21875 
Q 31.109375 20.453125 19.1875 8.296875 
z
" id="DejaVuSans-32"/>
      </defs>
      <g transform="translate(77.14375 174.798438)scale(0.1 -0.1)">
       <use xlink:href="#DejaVuSans-32"/>
      </g>
     </g>
    </g>
    <g id="xtick_3">
     <g id="line2d_3">
      <g>
       <use style="stroke:#000000;stroke-width:0.8;" x="112.875" xlink:href="#m3d178fa2cd" y="160.2"/>
      </g>
     </g>
     <g id="text_3">
      <!-- 3 -->
      <defs>
       <path d="M 40.578125 39.3125 
Q 47.65625 37.796875 51.625 33 
Q 55.609375 28.21875 55.609375 21.1875 
Q 55.609375 10.40625 48.1875 4.484375 
Q 40.765625 -1.421875 27.09375 -1.421875 
Q 22.515625 -1.421875 17.65625 -0.515625 
Q 12.796875 0.390625 7.625 2.203125 
L 7.625 11.71875 
Q 11.71875 9.328125 16.59375 8.109375 
Q 21.484375 6.890625 26.8125 6.890625 
Q 36.078125 6.890625 40.9375 10.546875 
Q 45.796875 14.203125 45.796875 21.1875 
Q 45.796875 27.640625 41.28125 31.265625 
Q 36.765625 34.90625 28.71875 34.90625 
L 20.21875 34.90625 
L 20.21875 43.015625 
L 29.109375 43.015625 
Q 36.375 43.015625 40.234375 45.921875 
Q 44.09375 48.828125 44.09375 54.296875 
Q 44.09375 59.90625 40.109375 62.90625 
Q 36.140625 65.921875 28.71875 65.921875 
Q 24.65625 65.921875 20.015625 65.03125 
Q 15.375 64.15625 9.8125 62.3125 
L 9.8125 71.09375 
Q 15.4375 72.65625 20.34375 73.4375 
Q 25.25 74.21875 29.59375 74.21875 
Q 40.828125 74.21875 47.359375 69.109375 
Q 53.90625 64.015625 53.90625 55.328125 
Q 53.90625 49.265625 50.4375 45.09375 
Q 46.96875 40.921875 40.578125 39.3125 
z
" id="DejaVuSans-33"/>
      </defs>
      <g transform="translate(109.69375 174.798438)scale(0.1 -0.1)">
       <use xlink:href="#DejaVuSans-33"/>
      </g>
     </g>
    </g>
    <g id="xtick_4">
     <g id="line2d_4">
      <g>
       <use style="stroke:#000000;stroke-width:0.8;" x="145.425" xlink:href="#m3d178fa2cd" y="160.2"/>
      </g>
     </g>
     <g id="text_4">
      <!-- 4 -->
      <defs>
       <path d="M 37.796875 64.3125 
L 12.890625 25.390625 
L 37.796875 25.390625 
z
M 35.203125 72.90625 
L 47.609375 72.90625 
L 47.609375 25.390625 
L 58.015625 25.390625 
L 58.015625 17.1875 
L 47.609375 17.1875 
L 47.609375 0 
L 37.796875 0 
L 37.796875 17.1875 
L 4.890625 17.1875 
L 4.890625 26.703125 
z
" id="DejaVuSans-34"/>
      </defs>
      <g transform="translate(142.24375 174.798438)scale(0.1 -0.1)">
       <use xlink:href="#DejaVuSans-34"/>
      </g>
     </g>
    </g>
    <g id="xtick_5">
     <g id="line2d_5">
      <g>
       <use style="stroke:#000000;stroke-width:0.8;" x="177.975" xlink:href="#m3d178fa2cd" y="160.2"/>
      </g>
     </g>
     <g id="text_5">
      <!-- 5 -->
      <defs>
       <path d="M 10.796875 72.90625 
L 49.515625 72.90625 
L 49.515625 64.59375 
L 19.828125 64.59375 
L 19.828125 46.734375 
Q 21.96875 47.46875 24.109375 47.828125 
Q 26.265625 48.1875 28.421875 48.1875 
Q 40.625 48.1875 47.75 41.5 
Q 54.890625 34.8125 54.890625 23.390625 
Q 54.890625 11.625 47.5625 5.09375 
Q 40.234375 -1.421875 26.90625 -1.421875 
Q 22.3125 -1.421875 17.546875 -0.640625 
Q 12.796875 0.140625 7.71875 1.703125 
L 7.71875 11.625 
Q 12.109375 9.234375 16.796875 8.0625 
Q 21.484375 6.890625 26.703125 6.890625 
Q 35.15625 6.890625 40.078125 11.328125 
Q 45.015625 15.765625 45.015625 23.390625 
Q 45.015625 31 40.078125 35.4375 
Q 35.15625 39.890625 26.703125 39.890625 
Q 22.75 39.890625 18.8125 39.015625 
Q 14.890625 38.140625 10.796875 36.28125 
z
" id="DejaVuSans-35"/>
      </defs>
      <g transform="translate(174.79375 174.798438)scale(0.1 -0.1)">
       <use xlink:href="#DejaVuSans-35"/>
      </g>
     </g>
    </g>
    <g id="xtick_6">
     <g id="line2d_6">
      <g>
       <use style="stroke:#000000;stroke-width:0.8;" x="210.525" xlink:href="#m3d178fa2cd" y="160.2"/>
      </g>
     </g>
     <g id="text_6">
      <!-- 6 -->
      <defs>
       <path d="M 33.015625 40.375 
Q 26.375 40.375 22.484375 35.828125 
Q 18.609375 31.296875 18.609375 23.390625 
Q 18.609375 15.53125 22.484375 10.953125 
Q 26.375 6.390625 33.015625 6.390625 
Q 39.65625 6.390625 43.53125 10.953125 
Q 47.40625 15.53125 47.40625 23.390625 
Q 47.40625 31.296875 43.53125 35.828125 
Q 39.65625 40.375 33.015625 40.375 
z
M 52.59375 71.296875 
L 52.59375 62.3125 
Q 48.875 64.0625 45.09375 64.984375 
Q 41.3125 65.921875 37.59375 65.921875 
Q 27.828125 65.921875 22.671875 59.328125 
Q 17.53125 52.734375 16.796875 39.40625 
Q 19.671875 43.65625 24.015625 45.921875 
Q 28.375 48.1875 33.59375 48.1875 
Q 44.578125 48.1875 50.953125 41.515625 
Q 57.328125 34.859375 57.328125 23.390625 
Q 57.328125 12.15625 50.6875 5.359375 
Q 44.046875 -1.421875 33.015625 -1.421875 
Q 20.359375 -1.421875 13.671875 8.265625 
Q 6.984375 17.96875 6.984375 36.375 
Q 6.984375 53.65625 15.1875 63.9375 
Q 23.390625 74.21875 37.203125 74.21875 
Q 40.921875 74.21875 44.703125 73.484375 
Q 48.484375 72.75 52.59375 71.296875 
z
" id="DejaVuSans-36"/>
      </defs>
      <g transform="translate(207.34375 174.798438)scale(0.1 -0.1)">
       <use xlink:href="#DejaVuSans-36"/>
      </g>
     </g>
    </g>
    <g id="text_7">
     <!-- time(year) -->
     <defs>
      <path d="M 21.484375 62.359375 
L 21.484375 45.65625 
L 32.328125 45.65625 
L 32.328125 40.828125 
L 21.484375 40.828125 
L 21.484375 12.640625 
Q 21.484375 8.6875 21.84375 7.53125 
Q 22.21875 6.390625 23.140625 5.6875 
Q 24.078125 4.984375 24.859375 4.984375 
Q 28.03125 4.984375 30.859375 9.8125 
L 32.328125 8.734375 
Q 28.375 -0.640625 19.484375 -0.640625 
Q 15.140625 -0.640625 12.125 1.78125 
Q 9.125 4.203125 8.296875 7.171875 
Q 7.8125 8.84375 7.8125 16.15625 
L 7.8125 40.828125 
L 1.859375 40.828125 
L 1.859375 42.53125 
Q 8.015625 46.875 12.328125 51.65625 
Q 16.65625 56.453125 19.875 62.359375 
z
" id="TimesNewRomanPS-BoldMT-74"/>
      <path d="M 14.359375 67.78125 
Q 17.53125 67.78125 19.71875 65.546875 
Q 21.921875 63.328125 21.921875 60.203125 
Q 21.921875 57.078125 19.703125 54.875 
Q 17.484375 52.6875 14.359375 52.6875 
Q 11.234375 52.6875 9.03125 54.875 
Q 6.84375 57.078125 6.84375 60.203125 
Q 6.84375 63.328125 9.03125 65.546875 
Q 11.234375 67.78125 14.359375 67.78125 
z
M 21.1875 45.65625 
L 21.1875 9.46875 
Q 21.1875 4.640625 22.3125 3.296875 
Q 23.4375 1.953125 26.703125 1.765625 
L 26.703125 0 
L 2.046875 0 
L 2.046875 1.765625 
Q 5.078125 1.859375 6.546875 3.515625 
Q 7.515625 4.640625 7.515625 9.46875 
L 7.515625 36.140625 
Q 7.515625 40.96875 6.390625 42.3125 
Q 5.28125 43.65625 2.046875 43.84375 
L 2.046875 45.65625 
z
" id="TimesNewRomanPS-BoldMT-69"/>
      <path d="M 22.3125 45.65625 
L 22.3125 39.65625 
Q 26.078125 43.75 29.265625 45.375 
Q 32.46875 47.015625 36.28125 47.015625 
Q 40.671875 47.015625 43.640625 44.96875 
Q 46.625 42.921875 48.25 38.71875 
Q 52.15625 43.109375 55.734375 45.0625 
Q 59.328125 47.015625 63.234375 47.015625 
Q 67.96875 47.015625 70.765625 44.84375 
Q 73.578125 42.671875 74.671875 39.328125 
Q 75.78125 35.984375 75.78125 28.65625 
L 75.78125 9.96875 
Q 75.78125 4.6875 76.734375 3.421875 
Q 77.6875 2.15625 80.71875 1.765625 
L 80.71875 0 
L 57.125 0 
L 57.125 1.765625 
Q 59.90625 2 61.234375 3.90625 
Q 62.109375 5.21875 62.109375 9.96875 
L 62.109375 29.59375 
Q 62.109375 35.6875 61.625 37.34375 
Q 61.140625 39.015625 60.078125 39.8125 
Q 59.03125 40.625 57.625 40.625 
Q 55.515625 40.625 53.359375 39.078125 
Q 51.21875 37.546875 49.03125 34.46875 
L 49.03125 9.96875 
Q 49.03125 5.03125 49.859375 3.765625 
Q 50.984375 1.953125 54.15625 1.765625 
L 54.15625 0 
L 30.515625 0 
L 30.515625 1.765625 
Q 32.421875 1.859375 33.515625 2.703125 
Q 34.625 3.5625 34.984375 4.75 
Q 35.359375 5.953125 35.359375 9.96875 
L 35.359375 29.59375 
Q 35.359375 35.796875 34.859375 37.359375 
Q 34.375 38.921875 33.21875 39.796875 
Q 32.078125 40.671875 30.765625 40.671875 
Q 28.8125 40.671875 27.203125 39.65625 
Q 24.90625 38.140625 22.3125 34.46875 
L 22.3125 9.96875 
Q 22.3125 5.125 23.265625 3.578125 
Q 24.21875 2.046875 27.25 1.765625 
L 27.25 0 
L 3.71875 0 
L 3.71875 1.765625 
Q 6.59375 2.046875 7.8125 3.609375 
Q 8.640625 4.6875 8.640625 9.96875 
L 8.640625 35.75 
Q 8.640625 40.921875 7.6875 42.1875 
Q 6.734375 43.453125 3.71875 43.84375 
L 3.71875 45.65625 
z
" id="TimesNewRomanPS-BoldMT-6d"/>
      <path d="M 42.046875 24.46875 
L 17 24.46875 
Q 17.4375 15.375 21.828125 10.109375 
Q 25.203125 6.0625 29.9375 6.0625 
Q 32.859375 6.0625 35.25 7.6875 
Q 37.640625 9.328125 40.375 13.578125 
L 42.046875 12.5 
Q 38.328125 4.9375 33.828125 1.78125 
Q 29.34375 -1.375 23.4375 -1.375 
Q 13.28125 -1.375 8.0625 6.453125 
Q 3.859375 12.75 3.859375 22.078125 
Q 3.859375 33.5 10.03125 40.25 
Q 16.21875 47.015625 24.515625 47.015625 
Q 31.453125 47.015625 36.546875 41.328125 
Q 41.65625 35.640625 42.046875 24.46875 
z
M 30.03125 27.734375 
Q 30.03125 35.59375 29.171875 38.515625 
Q 28.328125 41.453125 26.515625 42.96875 
Q 25.484375 43.84375 23.78125 43.84375 
Q 21.234375 43.84375 19.625 41.359375 
Q 16.75 37.015625 16.75 29.4375 
L 16.75 27.734375 
z
" id="TimesNewRomanPS-BoldMT-65"/>
      <path d="M 32.125 67.71875 
L 32.125 65.484375 
Q 27.046875 62.15625 24.65625 58.984375 
Q 21.34375 54.59375 19.484375 47.703125 
Q 17.140625 39.15625 17.140625 23.828125 
Q 17.140625 9.375 19.265625 1.359375 
Q 21.390625 -6.640625 25.046875 -11.578125 
Q 27.59375 -14.984375 32.125 -17.578125 
L 32.125 -20.015625 
Q 20.359375 -16.0625 12.171875 -3.875 
Q 4 8.296875 4 24.125 
Q 4 39.75 12.15625 51.78125 
Q 20.3125 63.8125 32.125 67.71875 
z
" id="TimesNewRomanPS-BoldMT-28"/>
      <path d="M 24.3125 -1.859375 
L 9.578125 31.984375 
Q 6.25 39.65625 4.65625 41.40625 
Q 3.078125 43.171875 0.828125 43.84375 
L 0.828125 45.65625 
L 25.09375 45.65625 
L 25.09375 43.84375 
Q 22.703125 43.75 21.71875 42.921875 
Q 20.75 42.09375 20.75 40.921875 
Q 20.75 39.0625 23.1875 33.59375 
L 31 15.71875 
L 36.328125 29.546875 
Q 39.203125 36.921875 39.203125 39.796875 
Q 39.203125 41.609375 38 42.671875 
Q 36.8125 43.75 33.796875 43.84375 
L 33.796875 45.65625 
L 49.078125 45.65625 
L 49.078125 43.84375 
Q 46.828125 43.609375 45.40625 42.109375 
Q 44 40.625 40.671875 31.984375 
L 27.640625 -1.859375 
Q 22.703125 -14.546875 20.3125 -17.484375 
Q 16.9375 -21.578125 11.859375 -21.578125 
Q 7.8125 -21.578125 5.296875 -19.25 
Q 2.78125 -16.9375 2.78125 -13.671875 
Q 2.78125 -10.84375 4.515625 -8.984375 
Q 6.25 -7.125 8.796875 -7.125 
Q 11.234375 -7.125 12.71875 -8.6875 
Q 14.203125 -10.25 14.265625 -13.53125 
Q 14.3125 -15.375 14.703125 -15.921875 
Q 15.09375 -16.453125 15.828125 -16.453125 
Q 17 -16.453125 18.3125 -15.046875 
Q 20.265625 -12.984375 22.90625 -5.671875 
z
" id="TimesNewRomanPS-BoldMT-79"/>
      <path d="M 28.5625 6.734375 
Q 20.21875 -0.640625 13.578125 -0.640625 
Q 9.671875 -0.640625 7.078125 1.921875 
Q 4.5 4.5 4.5 8.34375 
Q 4.5 13.578125 8.984375 17.75 
Q 13.484375 21.921875 28.5625 28.859375 
L 28.5625 33.453125 
Q 28.5625 38.625 28 39.96875 
Q 27.4375 41.3125 25.875 42.3125 
Q 24.3125 43.3125 22.359375 43.3125 
Q 19.1875 43.3125 17.140625 41.890625 
Q 15.875 41.015625 15.875 39.84375 
Q 15.875 38.8125 17.234375 37.3125 
Q 19.09375 35.203125 19.09375 33.25 
Q 19.09375 30.859375 17.3125 29.171875 
Q 15.53125 27.484375 12.640625 27.484375 
Q 9.578125 27.484375 7.5 29.34375 
Q 5.421875 31.203125 5.421875 33.6875 
Q 5.421875 37.203125 8.203125 40.40625 
Q 10.984375 43.609375 15.96875 45.3125 
Q 20.953125 47.015625 26.3125 47.015625 
Q 32.8125 47.015625 36.59375 44.25 
Q 40.375 41.5 41.5 38.28125 
Q 42.1875 36.234375 42.1875 28.859375 
L 42.1875 11.140625 
Q 42.1875 8.015625 42.421875 7.203125 
Q 42.671875 6.390625 43.15625 6 
Q 43.65625 5.609375 44.28125 5.609375 
Q 45.5625 5.609375 46.875 7.421875 
L 48.34375 6.25 
Q 45.90625 2.640625 43.28125 1 
Q 40.671875 -0.640625 37.359375 -0.640625 
Q 33.453125 -0.640625 31.25 1.1875 
Q 29.046875 3.03125 28.5625 6.734375 
z
M 28.5625 10.296875 
L 28.5625 25.59375 
Q 22.65625 22.125 19.78125 18.171875 
Q 17.875 15.53125 17.875 12.84375 
Q 17.875 10.59375 19.484375 8.890625 
Q 20.703125 7.5625 22.90625 7.5625 
Q 25.34375 7.5625 28.5625 10.296875 
z
" id="TimesNewRomanPS-BoldMT-61"/>
      <path d="M 22.3125 45.65625 
L 22.3125 35.296875 
Q 26.859375 42.390625 30.265625 44.703125 
Q 33.6875 47.015625 36.859375 47.015625 
Q 39.59375 47.015625 41.234375 45.328125 
Q 42.875 43.65625 42.875 40.578125 
Q 42.875 37.3125 41.28125 35.5 
Q 39.703125 33.6875 37.453125 33.6875 
Q 34.859375 33.6875 32.953125 35.34375 
Q 31.0625 37.015625 30.71875 37.203125 
Q 30.21875 37.5 29.59375 37.5 
Q 28.171875 37.5 26.90625 36.421875 
Q 24.90625 34.765625 23.875 31.6875 
Q 22.3125 26.953125 22.3125 21.234375 
L 22.3125 10.75 
L 22.359375 8.015625 
Q 22.359375 5.21875 22.703125 4.4375 
Q 23.296875 3.125 24.4375 2.515625 
Q 25.59375 1.90625 28.328125 1.765625 
L 28.328125 0 
L 3.65625 0 
L 3.65625 1.765625 
Q 6.640625 2 7.6875 3.390625 
Q 8.734375 4.78125 8.734375 10.75 
L 8.734375 35.984375 
Q 8.734375 39.890625 8.34375 40.96875 
Q 7.859375 42.328125 6.921875 42.96875 
Q 6 43.609375 3.65625 43.84375 
L 3.65625 45.65625 
z
" id="TimesNewRomanPS-BoldMT-72"/>
      <path d="M 1.21875 -20.015625 
L 1.21875 -17.78125 
Q 6.296875 -14.40625 8.6875 -11.234375 
Q 11.96875 -6.84375 13.875 0 
Q 16.21875 8.59375 16.21875 23.921875 
Q 16.21875 38.375 14.09375 46.359375 
Q 11.96875 54.34375 8.296875 59.28125 
Q 5.765625 62.703125 1.21875 65.28125 
L 1.21875 67.71875 
Q 12.984375 63.765625 21.15625 51.578125 
Q 29.34375 39.40625 29.34375 23.578125 
Q 29.34375 8.015625 21.15625 -4.015625 
Q 12.984375 -16.0625 1.21875 -20.015625 
z
" id="TimesNewRomanPS-BoldMT-29"/>
     </defs>
     <g transform="translate(102.501563 189.011875)scale(0.12 -0.12)">
      <use xlink:href="#TimesNewRomanPS-BoldMT-74"/>
      <use x="33.300781" xlink:href="#TimesNewRomanPS-BoldMT-69"/>
      <use x="61.083984" xlink:href="#TimesNewRomanPS-BoldMT-6d"/>
      <use x="144.384766" xlink:href="#TimesNewRomanPS-BoldMT-65"/>
      <use x="188.769531" xlink:href="#TimesNewRomanPS-BoldMT-28"/>
      <use x="222.070312" xlink:href="#TimesNewRomanPS-BoldMT-79"/>
      <use x="272.070312" xlink:href="#TimesNewRomanPS-BoldMT-65"/>
      <use x="316.455078" xlink:href="#TimesNewRomanPS-BoldMT-61"/>
      <use x="366.455078" xlink:href="#TimesNewRomanPS-BoldMT-72"/>
      <use x="410.839844" xlink:href="#TimesNewRomanPS-BoldMT-29"/>
     </g>
    </g>
   </g>
   <g id="matplotlib.axis_2">
    <g id="ytick_1">
     <g id="line2d_7">
      <defs>
       <path d="M 0 0 
L -3.5 0 
" id="me486c7f836" style="stroke:#000000;stroke-width:0.8;"/>
      </defs>
      <g>
       <use style="stroke:#000000;stroke-width:0.8;" x="31.5" xlink:href="#me486c7f836" y="156.819512"/>
      </g>
     </g>
     <g id="text_8">
      <!-- 0 -->
      <defs>
       <path d="M 31.78125 66.40625 
Q 24.171875 66.40625 20.328125 58.90625 
Q 16.5 51.421875 16.5 36.375 
Q 16.5 21.390625 20.328125 13.890625 
Q 24.171875 6.390625 31.78125 6.390625 
Q 39.453125 6.390625 43.28125 13.890625 
Q 47.125 21.390625 47.125 36.375 
Q 47.125 51.421875 43.28125 58.90625 
Q 39.453125 66.40625 31.78125 66.40625 
z
M 31.78125 74.21875 
Q 44.046875 74.21875 50.515625 64.515625 
Q 56.984375 54.828125 56.984375 36.375 
Q 56.984375 17.96875 50.515625 8.265625 
Q 44.046875 -1.421875 31.78125 -1.421875 
Q 19.53125 -1.421875 13.0625 8.265625 
Q 6.59375 17.96875 6.59375 36.375 
Q 6.59375 54.828125 13.0625 64.515625 
Q 19.53125 74.21875 31.78125 74.21875 
z
" id="DejaVuSans-30"/>
      </defs>
      <g transform="translate(18.1375 160.618731)scale(0.1 -0.1)">
       <use xlink:href="#DejaVuSans-30"/>
      </g>
     </g>
    </g>
    <g id="ytick_2">
     <g id="line2d_8">
      <g>
       <use style="stroke:#000000;stroke-width:0.8;" x="31.5" xlink:href="#me486c7f836" y="123.014634"/>
      </g>
     </g>
     <g id="text_9">
      <!-- 1 -->
      <g transform="translate(18.1375 126.813853)scale(0.1 -0.1)">
       <use xlink:href="#DejaVuSans-31"/>
      </g>
     </g>
    </g>
    <g id="ytick_3">
     <g id="line2d_9">
      <g>
       <use style="stroke:#000000;stroke-width:0.8;" x="31.5" xlink:href="#me486c7f836" y="89.209756"/>
      </g>
     </g>
     <g id="text_10">
      <!-- 2 -->
      <g transform="translate(18.1375 93.008975)scale(0.1 -0.1)">
       <use xlink:href="#DejaVuSans-32"/>
      </g>
     </g>
    </g>
    <g id="ytick_4">
     <g id="line2d_10">
      <g>
       <use style="stroke:#000000;stroke-width:0.8;" x="31.5" xlink:href="#me486c7f836" y="55.404878"/>
      </g>
     </g>
     <g id="text_11">
      <!-- 3 -->
      <g transform="translate(18.1375 59.204097)scale(0.1 -0.1)">
       <use xlink:href="#DejaVuSans-33"/>
      </g>
     </g>
    </g>
    <g id="ytick_5">
     <g id="line2d_11">
      <g>
       <use style="stroke:#000000;stroke-width:0.8;" x="31.5" xlink:href="#me486c7f836" y="21.6"/>
      </g>
     </g>
     <g id="text_12">
      <!-- 4 -->
      <g transform="translate(18.1375 25.399219)scale(0.1 -0.1)">
       <use xlink:href="#DejaVuSans-34"/>
      </g>
     </g>
    </g>
    <g id="text_13">
     <!-- Failure rate(%) -->
     <defs>
      <path d="M 27.484375 62.40625 
L 27.484375 35.203125 
L 29.390625 35.203125 
Q 33.796875 35.203125 36.578125 36.515625 
Q 39.359375 37.84375 41.28125 40.96875 
Q 43.21875 44.09375 43.796875 49.421875 
L 45.515625 49.421875 
L 45.515625 16.15625 
L 43.796875 16.15625 
Q 42.875 25.59375 38.75 28.59375 
Q 34.625 31.59375 29.390625 31.59375 
L 27.484375 31.59375 
L 27.484375 11.328125 
Q 27.484375 6.25 28.046875 4.984375 
Q 28.609375 3.71875 30.25 2.765625 
Q 31.890625 1.8125 34.671875 1.8125 
L 36.859375 1.8125 
L 36.859375 0 
L 2.25 0 
L 2.25 1.8125 
L 4.4375 1.8125 
Q 7.328125 1.8125 9.078125 2.828125 
Q 10.359375 3.515625 11.03125 5.171875 
Q 11.578125 6.34375 11.578125 11.328125 
L 11.578125 54.890625 
Q 11.578125 59.96875 11.03125 61.234375 
Q 10.5 62.5 8.859375 63.453125 
Q 7.234375 64.40625 4.4375 64.40625 
L 2.25 64.40625 
L 2.25 66.21875 
L 58.109375 66.21875 
L 58.109375 47.21875 
L 56.109375 47.21875 
Q 55.421875 53.90625 52.609375 57.125 
Q 49.8125 60.359375 44.484375 61.671875 
Q 41.546875 62.40625 33.640625 62.40625 
z
" id="TimesNewRomanPS-BoldMT-46"/>
      <path d="M 21.234375 66.21875 
L 21.234375 9.46875 
Q 21.234375 4.640625 22.359375 3.296875 
Q 23.484375 1.953125 26.765625 1.765625 
L 26.765625 0 
L 2.09375 0 
L 2.09375 1.765625 
Q 5.125 1.859375 6.59375 3.515625 
Q 7.5625 4.640625 7.5625 9.46875 
L 7.5625 56.734375 
Q 7.5625 61.53125 6.4375 62.859375 
Q 5.328125 64.203125 2.09375 64.40625 
L 2.09375 66.21875 
z
" id="TimesNewRomanPS-BoldMT-6c"/>
      <path d="M 47.46875 45.65625 
L 47.46875 9.90625 
Q 47.46875 4.6875 48.4375 3.390625 
Q 49.421875 2.09375 52.390625 1.765625 
L 52.390625 0 
L 33.796875 0 
L 33.796875 6.109375 
Q 30.515625 2.203125 27.234375 0.40625 
Q 23.96875 -1.375 19.921875 -1.375 
Q 16.0625 -1.375 13.0625 1 
Q 10.0625 3.375 9.03125 6.546875 
Q 8.015625 9.71875 8.015625 17.625 
L 8.015625 35.75 
Q 8.015625 40.921875 7.0625 42.1875 
Q 6.109375 43.453125 3.078125 43.84375 
L 3.078125 45.65625 
L 21.6875 45.65625 
L 21.6875 14.453125 
Q 21.6875 9.578125 22.140625 8.15625 
Q 22.609375 6.734375 23.609375 6 
Q 24.609375 5.28125 25.921875 5.28125 
Q 27.6875 5.28125 29.109375 6.203125 
Q 31.0625 7.46875 33.796875 11.328125 
L 33.796875 35.75 
Q 33.796875 40.921875 32.84375 42.1875 
Q 31.890625 43.453125 28.859375 43.84375 
L 28.859375 45.65625 
z
" id="TimesNewRomanPS-BoldMT-75"/>
      <path id="TimesNewRomanPS-BoldMT-20"/>
      <path d="M 76.8125 67.71875 
L 29.78125 -2.78125 
L 23.25 -2.78125 
L 70.21875 67.71875 
z
M 23.34375 67.71875 
Q 30.28125 67.71875 35.03125 62.8125 
Q 39.796875 57.90625 39.796875 50.140625 
Q 39.796875 42.1875 35 37.234375 
Q 30.21875 32.28125 23.140625 32.28125 
Q 16.15625 32.28125 11.546875 37.0625 
Q 6.9375 41.84375 6.9375 49.65625 
Q 6.9375 57.71875 11.671875 62.71875 
Q 16.40625 67.71875 23.34375 67.71875 
z
M 23.34375 65.140625 
Q 22.265625 65.140625 21.578125 64.5 
Q 20.359375 63.375 19.75 60.609375 
Q 19.140625 57.859375 19.140625 49.21875 
Q 19.140625 42.328125 19.96875 38.578125 
Q 20.453125 36.421875 21.625 35.359375 
Q 22.359375 34.71875 23.34375 34.71875 
Q 24.421875 34.71875 25.046875 35.296875 
Q 26.171875 36.328125 26.703125 38.625 
Q 27.546875 42.328125 27.546875 49.03125 
Q 27.546875 57.234375 26.765625 60.890625 
Q 26.21875 63.421875 25 64.59375 
Q 24.421875 65.140625 23.34375 65.140625 
z
M 76.46875 32.765625 
Q 83.546875 32.765625 88.296875 27.90625 
Q 93.0625 23.046875 93.0625 15.1875 
Q 93.0625 7.234375 88.234375 2.25 
Q 83.40625 -2.734375 76.5625 -2.734375 
Q 69.78125 -2.734375 65.015625 2.25 
Q 60.25 7.234375 60.25 15.046875 
Q 60.25 22.90625 64.890625 27.828125 
Q 69.53125 32.765625 76.46875 32.765625 
z
M 76.609375 30.21875 
Q 75.640625 30.21875 74.953125 29.640625 
Q 73.78125 28.5625 73.140625 25.90625 
Q 72.515625 23.25 72.515625 15.71875 
Q 72.515625 7.71875 73.25 4.203125 
Q 73.78125 1.703125 75.046875 0.59375 
Q 75.6875 0 76.703125 0 
Q 77.640625 0 78.21875 0.53125 
Q 79.4375 1.65625 80.03125 4.203125 
Q 80.859375 7.765625 80.859375 14.984375 
Q 80.859375 22.609375 80.078125 26.125 
Q 79.5 28.65625 78.328125 29.6875 
Q 77.734375 30.21875 76.609375 30.21875 
z
" id="TimesNewRomanPS-BoldMT-25"/>
     </defs>
     <g transform="translate(11.570625 131.38125)rotate(-90)scale(0.12 -0.12)">
      <use xlink:href="#TimesNewRomanPS-BoldMT-46"/>
      <use x="61.083984" xlink:href="#TimesNewRomanPS-BoldMT-61"/>
      <use x="111.083984" xlink:href="#TimesNewRomanPS-BoldMT-69"/>
      <use x="138.867188" xlink:href="#TimesNewRomanPS-BoldMT-6c"/>
      <use x="166.650391" xlink:href="#TimesNewRomanPS-BoldMT-75"/>
      <use x="222.265625" xlink:href="#TimesNewRomanPS-BoldMT-72"/>
      <use x="266.634766" xlink:href="#TimesNewRomanPS-BoldMT-65"/>
      <use x="311.019531" xlink:href="#TimesNewRomanPS-BoldMT-20"/>
      <use x="336.019531" xlink:href="#TimesNewRomanPS-BoldMT-72"/>
      <use x="380.404297" xlink:href="#TimesNewRomanPS-BoldMT-61"/>
      <use x="430.404297" xlink:href="#TimesNewRomanPS-BoldMT-74"/>
      <use x="463.705078" xlink:href="#TimesNewRomanPS-BoldMT-65"/>
      <use x="508.089844" xlink:href="#TimesNewRomanPS-BoldMT-28"/>
      <use x="541.390625" xlink:href="#TimesNewRomanPS-BoldMT-25"/>
      <use x="641.390625" xlink:href="#TimesNewRomanPS-BoldMT-29"/>
     </g>
    </g>
   </g>
   <g id="line2d_12">
    <path clip-path="url(#p5719f18d00)" d="M 44.52 155.076401 
L 78.372 152.418724 
L 112.224 148.980425 
L 146.076 134.347988 
L 179.928 112.433708 
L 213.78 103.933058 
" style="fill:none;opacity:0.05;stroke:#000000;stroke-linecap:square;"/>
   </g>
   <g id="line2d_13">
    <path clip-path="url(#p5719f18d00)" d="M 44.52 155.752193 
L 78.372 154.008961 
L 112.224 150.174793 
L 146.076 135.241426 
L 179.928 93.061259 
L 213.78 3.90048 
" style="fill:none;opacity:0.05;stroke:#000000;stroke-linecap:square;"/>
   </g>
   <g id="line2d_14">
    <path clip-path="url(#p5719f18d00)" d="M 44.52 156.05151 
L 78.372 153.633739 
L 112.224 149.373756 
L 146.076 131.090719 
L 179.928 99.647141 
L 213.78 104.245775 
" style="fill:none;opacity:0.05;stroke:#000000;stroke-linecap:square;"/>
   </g>
   <g id="line2d_15">
    <path clip-path="url(#p5719f18d00)" d="M 44.52 154.469628 
L 78.372 148.722468 
L 112.224 136.341905 
L 146.076 115.68394 
L 179.928 91.805858 
L 213.78 86.588751 
" style="fill:none;opacity:0.05;stroke:#000000;stroke-linecap:square;"/>
   </g>
   <g id="line2d_16">
    <path clip-path="url(#p5719f18d00)" d="M 44.52 155.485621 
L 78.372 151.666241 
L 112.224 145.265818 
L 146.076 130.116193 
L 179.928 115.390126 
L 213.78 127.364551 
" style="fill:none;opacity:0.05;stroke:#000000;stroke-linecap:square;"/>
   </g>
   <g id="line2d_17">
    <path clip-path="url(#p5719f18d00)" d="M 44.52 155.688482 
L 78.372 152.650887 
L 112.224 146.543205 
L 146.076 132.299552 
L 179.928 115.622259 
L 213.78 115.711463 
" style="fill:none;opacity:0.05;stroke:#000000;stroke-linecap:square;"/>
   </g>
   <g id="line2d_18">
    <path clip-path="url(#p5719f18d00)" d="M 44.52 155.619509 
L 78.372 151.313002 
L 112.224 139.373036 
L 146.076 109.813704 
L 179.928 74.01622 
L 213.78 56.262338 
" style="fill:none;opacity:0.05;stroke:#000000;stroke-linecap:square;"/>
   </g>
   <g id="line2d_19">
    <path clip-path="url(#p5719f18d00)" d="M 44.52 156.069291 
L 78.372 153.062256 
L 112.224 145.792821 
L 146.076 126.190215 
L 179.928 94.029199 
L 213.78 99.960428 
" style="fill:none;opacity:0.05;stroke:#000000;stroke-linecap:square;"/>
   </g>
   <g id="line2d_20">
    <path clip-path="url(#p5719f18d00)" d="M 44.52 155.290006 
L 78.372 151.179745 
L 112.224 144.762076 
L 146.076 128.954011 
L 179.928 118.018673 
L 213.78 130.191466 
" style="fill:none;opacity:0.05;stroke:#000000;stroke-linecap:square;"/>
   </g>
   <g id="line2d_21">
    <path clip-path="url(#p5719f18d00)" d="M 44.52 155.690985 
L 78.372 152.21596 
L 112.224 146.378639 
L 146.076 126.621637 
L 179.928 114.666284 
L 213.78 126.180122 
" style="fill:none;opacity:0.05;stroke:#000000;stroke-linecap:square;"/>
   </g>
   <g id="line2d_22">
    <path clip-path="url(#p5719f18d00)" d="M 44.52 155.979588 
L 78.372 153.020171 
L 112.224 146.722751 
L 146.076 130.039993 
L 179.928 105.960945 
L 213.78 113.399843 
" style="fill:none;opacity:0.05;stroke:#000000;stroke-linecap:square;"/>
   </g>
   <g id="line2d_23">
    <path clip-path="url(#p5719f18d00)" d="M 44.52 155.272863 
L 78.372 151.59923 
L 112.224 144.257228 
L 146.076 127.987583 
L 179.928 110.464378 
L 213.78 106.174188 
" style="fill:none;opacity:0.05;stroke:#000000;stroke-linecap:square;"/>
   </g>
   <g id="line2d_24">
    <path clip-path="url(#p5719f18d00)" d="M 44.52 156.245288 
L 78.372 153.821162 
L 112.224 148.298286 
L 146.076 124.115778 
L 179.928 84.18141 
L 213.78 87.827685 
" style="fill:none;opacity:0.05;stroke:#000000;stroke-linecap:square;"/>
   </g>
   <g id="line2d_25">
    <path clip-path="url(#p5719f18d00)" d="M 44.52 155.457047 
L 78.372 153.357658 
L 112.224 150.1634 
L 146.076 137.695975 
L 179.928 116.078143 
L 213.78 99.071682 
" style="fill:none;opacity:0.05;stroke:#000000;stroke-linecap:square;"/>
   </g>
   <g id="line2d_26">
    <path clip-path="url(#p5719f18d00)" d="M 44.52 154.767861 
L 78.372 150.629421 
L 112.224 144.503477 
L 146.076 130.45999 
L 179.928 122.668418 
L 213.78 128.698914 
" style="fill:none;opacity:0.05;stroke:#000000;stroke-linecap:square;"/>
   </g>
   <g id="line2d_27">
    <path clip-path="url(#p5719f18d00)" d="M 44.52 154.742041 
L 78.372 149.047732 
L 112.224 139.70167 
L 146.076 113.230565 
L 179.928 99.046557 
L 213.78 113.798858 
" style="fill:none;opacity:0.05;stroke:#000000;stroke-linecap:square;"/>
   </g>
   <g id="line2d_28">
    <path clip-path="url(#p5719f18d00)" d="M 44.52 154.742041 
L 78.372 149.047732 
L 112.224 139.70167 
L 146.076 113.230565 
L 179.928 99.046557 
L 213.78 113.798858 
" style="fill:none;opacity:0.05;stroke:#000000;stroke-linecap:square;"/>
   </g>
   <g id="line2d_29">
    <path clip-path="url(#p5719f18d00)" d="M 44.52 156.308452 
L 78.372 154.111224 
L 112.224 149.068711 
L 146.076 130.702309 
L 179.928 110.304206 
L 213.78 118.264713 
" style="fill:none;opacity:0.05;stroke:#000000;stroke-linecap:square;"/>
   </g>
   <g id="line2d_30">
    <path clip-path="url(#p5719f18d00)" d="M 44.52 155.452287 
L 78.372 152.470537 
L 112.224 147.902742 
L 146.076 130.800462 
L 179.928 115.860249 
L 213.78 116.440726 
" style="fill:none;opacity:0.05;stroke:#000000;stroke-linecap:square;"/>
   </g>
   <g id="line2d_31">
    <path clip-path="url(#p5719f18d00)" d="M 44.52 155.382655 
L 78.372 151.030677 
L 112.224 142.935204 
L 146.076 128.316998 
L 179.928 114.977168 
L 213.78 127.496366 
" style="fill:none;opacity:0.05;stroke:#000000;stroke-linecap:square;"/>
   </g>
   <g id="line2d_32">
    <path clip-path="url(#p5719f18d00)" d="M 44.52 155.291797 
L 78.372 153.056742 
L 112.224 148.118512 
L 146.076 138.151544 
L 179.928 123.88129 
L 213.78 96.137291 
" style="fill:none;opacity:0.05;stroke:#000000;stroke-linecap:square;"/>
   </g>
   <g id="line2d_33">
    <path clip-path="url(#p5719f18d00)" d="M 44.52 156.173668 
L 78.372 153.933476 
L 112.224 147.644199 
L 146.076 129.881535 
L 179.928 103.350405 
L 213.78 82.471353 
" style="fill:none;opacity:0.05;stroke:#000000;stroke-linecap:square;"/>
   </g>
   <g id="line2d_34">
    <path clip-path="url(#p5719f18d00)" d="M 44.52 155.208092 
L 78.372 151.23476 
L 112.224 142.76448 
L 146.076 127.822546 
L 179.928 103.321676 
L 213.78 97.485638 
" style="fill:none;opacity:0.05;stroke:#000000;stroke-linecap:square;"/>
   </g>
   <g id="line2d_35">
    <path clip-path="url(#p5719f18d00)" d="M 44.52 156.003098 
L 78.372 153.923137 
L 112.224 147.993492 
L 146.076 130.884079 
L 179.928 95.091308 
L 213.78 27.892192 
" style="fill:none;opacity:0.05;stroke:#000000;stroke-linecap:square;"/>
   </g>
   <g id="line2d_36">
    <path clip-path="url(#p5719f18d00)" d="M 44.52 155.300569 
L 78.372 151.368072 
L 112.224 141.169414 
L 146.076 115.655553 
L 179.928 78.628879 
L 213.78 31.768014 
" style="fill:none;opacity:0.05;stroke:#000000;stroke-linecap:square;"/>
   </g>
   <g id="line2d_37">
    <path clip-path="url(#p5719f18d00)" d="M 44.52 156.019307 
L 78.372 153.190543 
L 112.224 148.390305 
L 146.076 122.632814 
L 179.928 89.906675 
L 213.78 102.664608 
" style="fill:none;opacity:0.05;stroke:#000000;stroke-linecap:square;"/>
   </g>
   <g id="line2d_38">
    <path clip-path="url(#p5719f18d00)" d="M 44.52 156.160879 
L 78.372 153.775223 
L 112.224 149.08714 
L 146.076 131.46354 
L 179.928 109.405828 
L 213.78 117.347716 
" style="fill:none;opacity:0.05;stroke:#000000;stroke-linecap:square;"/>
   </g>
   <g id="line2d_39">
    <path clip-path="url(#p5719f18d00)" d="M 44.52 155.471793 
L 78.372 152.137315 
L 112.224 146.309372 
L 146.076 129.895977 
L 179.928 116.397362 
L 213.78 119.31413 
" style="fill:none;opacity:0.05;stroke:#000000;stroke-linecap:square;"/>
   </g>
   <g id="line2d_40">
    <path clip-path="url(#p5719f18d00)" d="M 44.52 154.802932 
L 78.372 150.687838 
L 112.224 142.25601 
L 146.076 128.733245 
L 179.928 112.459487 
L 213.78 104.515019 
" style="fill:none;opacity:0.05;stroke:#000000;stroke-linecap:square;"/>
   </g>
   <g id="line2d_41">
    <path clip-path="url(#p5719f18d00)" d="M 44.52 155.356669 
L 78.372 152.212691 
L 112.224 145.925547 
L 146.076 129.269676 
L 179.928 111.452828 
L 213.78 98.635749 
" style="fill:none;opacity:0.05;stroke:#000000;stroke-linecap:square;"/>
   </g>
   <g id="line2d_42">
    <path clip-path="url(#p5719f18d00)" d="M 44.52 154.961102 
L 78.372 150.838214 
L 112.224 143.580785 
L 146.076 124.042208 
L 179.928 105.248576 
L 213.78 103.2885 
" style="fill:none;opacity:0.05;stroke:#000000;stroke-linecap:square;"/>
   </g>
   <g id="line2d_43">
    <path clip-path="url(#p5719f18d00)" d="M 44.52 156.141343 
L 78.372 153.048738 
L 112.224 144.389614 
L 146.076 115.888975 
L 179.928 87.285389 
L 213.78 86.924533 
" style="fill:none;opacity:0.05;stroke:#000000;stroke-linecap:square;"/>
   </g>
   <g id="line2d_44">
    <path clip-path="url(#p5719f18d00)" d="M 44.52 154.905575 
L 78.372 150.575485 
L 112.224 142.323567 
L 146.076 125.09575 
L 179.928 110.038396 
L 213.78 108.555934 
" style="fill:none;opacity:0.05;stroke:#000000;stroke-linecap:square;"/>
   </g>
   <g id="line2d_45">
    <path clip-path="url(#p5719f18d00)" d="M 44.52 156.175894 
L 78.372 153.844346 
L 112.224 148.85281 
L 146.076 129.12775 
L 179.928 97.402238 
L 213.78 97.627944 
" style="fill:none;opacity:0.05;stroke:#000000;stroke-linecap:square;"/>
   </g>
   <g id="line2d_46">
    <path clip-path="url(#p5719f18d00)" d="M 44.52 155.234013 
L 78.372 150.882916 
L 112.224 140.751427 
L 146.076 117.786276 
L 179.928 92.732822 
L 213.78 80.249754 
" style="fill:none;opacity:0.05;stroke:#000000;stroke-linecap:square;"/>
   </g>
   <g id="line2d_47">
    <path clip-path="url(#p5719f18d00)" d="M 44.52 155.168347 
L 78.372 152.306585 
L 112.224 147.212448 
L 146.076 136.763784 
L 179.928 126.819784 
L 213.78 121.289882 
" style="fill:none;opacity:0.05;stroke:#000000;stroke-linecap:square;"/>
   </g>
   <g id="line2d_48">
    <path clip-path="url(#p5719f18d00)" d="M 44.52 155.294836 
L 78.372 152.011167 
L 112.224 145.43554 
L 146.076 128.616123 
L 179.928 105.451609 
L 213.78 90.285944 
" style="fill:none;opacity:0.05;stroke:#000000;stroke-linecap:square;"/>
   </g>
   <g id="line2d_49">
    <path clip-path="url(#p5719f18d00)" d="M 44.52 155.01613 
L 78.372 151.158097 
L 112.224 145.051948 
L 146.076 131.419325 
L 179.928 126.508027 
L 213.78 131.751406 
" style="fill:none;opacity:0.05;stroke:#000000;stroke-linecap:square;"/>
   </g>
   <g id="line2d_50">
    <path clip-path="url(#p5719f18d00)" d="M 44.52 156.164353 
L 78.372 153.388032 
L 112.224 147.797903 
L 146.076 122.081002 
L 179.928 78.126553 
L 213.78 93.885165 
" style="fill:none;opacity:0.05;stroke:#000000;stroke-linecap:square;"/>
   </g>
   <g id="line2d_51">
    <path clip-path="url(#p5719f18d00)" d="M 44.52 155.463507 
L 78.372 150.927366 
L 112.224 142.485881 
L 146.076 116.029349 
L 179.928 86.404111 
L 213.78 102.176373 
" style="fill:none;opacity:0.05;stroke:#000000;stroke-linecap:square;"/>
   </g>
   <g id="line2d_52">
    <path clip-path="url(#p5719f18d00)" d="M 44.52 155.40075 
L 78.372 153.11781 
L 112.224 149.6188 
L 146.076 130.914751 
L 179.928 99.038165 
L 213.78 65.28605 
" style="fill:none;opacity:0.05;stroke:#000000;stroke-linecap:square;"/>
   </g>
   <g id="line2d_53">
    <path clip-path="url(#p5719f18d00)" d="M 44.52 155.256457 
L 78.372 151.307334 
L 112.224 145.765665 
L 146.076 122.741494 
L 179.928 108.003163 
L 213.78 119.111238 
" style="fill:none;opacity:0.05;stroke:#000000;stroke-linecap:square;"/>
   </g>
   <g id="line2d_54">
    <path clip-path="url(#p5719f18d00)" d="M 44.52 155.805754 
L 78.372 153.374959 
L 112.224 149.154673 
L 146.076 135.961947 
L 179.928 115.185319 
L 213.78 113.210412 
" style="fill:none;opacity:0.05;stroke:#000000;stroke-linecap:square;"/>
   </g>
   <g id="line2d_55">
    <path clip-path="url(#p5719f18d00)" d="M 44.52 154.947679 
L 78.372 152.166947 
L 112.224 148.23935 
L 146.076 136.545484 
L 179.928 121.812196 
L 213.78 116.407649 
" style="fill:none;opacity:0.05;stroke:#000000;stroke-linecap:square;"/>
   </g>
   <g id="line2d_56">
    <path clip-path="url(#p5719f18d00)" d="M 44.52 154.862177 
L 78.372 151.025921 
L 112.224 143.076844 
L 146.076 125.292498 
L 179.928 100.470804 
L 213.78 77.537507 
" style="fill:none;opacity:0.05;stroke:#000000;stroke-linecap:square;"/>
   </g>
   <g id="line2d_57">
    <path clip-path="url(#p5719f18d00)" d="M 44.52 156.003098 
L 78.372 153.923137 
L 112.224 147.993492 
L 146.076 130.884079 
L 179.928 95.091308 
L 213.78 27.892192 
" style="fill:none;opacity:0.05;stroke:#000000;stroke-linecap:square;"/>
   </g>
   <g id="line2d_58">
    <path clip-path="url(#p5719f18d00)" d="M 44.52 155.595676 
L 78.372 151.967161 
L 112.224 145.512155 
L 146.076 126.071152 
L 179.928 107.327731 
L 213.78 116.574007 
" style="fill:none;opacity:0.05;stroke:#000000;stroke-linecap:square;"/>
   </g>
   <g id="line2d_59">
    <path clip-path="url(#p5719f18d00)" d="M 44.52 155.427487 
L 78.372 152.421077 
L 112.224 148.165672 
L 146.076 133.399206 
L 179.928 120.920121 
L 213.78 125.635248 
" style="fill:none;opacity:0.05;stroke:#000000;stroke-linecap:square;"/>
   </g>
   <g id="line2d_60">
    <path clip-path="url(#p5719f18d00)" d="M 44.52 156.173668 
L 78.372 153.933476 
L 112.224 147.644199 
L 146.076 129.881535 
L 179.928 103.350405 
L 213.78 82.471353 
" style="fill:none;opacity:0.05;stroke:#000000;stroke-linecap:square;"/>
   </g>
   <g id="line2d_61">
    <path clip-path="url(#p5719f18d00)" d="M 44.52 155.286145 
L 78.372 152.145485 
L 112.224 145.573056 
L 146.076 124.890953 
L 179.928 86.62969 
L 213.78 43.293838 
" style="fill:none;opacity:0.05;stroke:#000000;stroke-linecap:square;"/>
   </g>
   <g id="line2d_62">
    <path clip-path="url(#p5719f18d00)" d="M 44.52 155.791634 
L 78.372 152.25769 
L 112.224 144.796095 
L 146.076 122.550127 
L 179.928 105.408815 
L 213.78 112.493683 
" style="fill:none;opacity:0.05;stroke:#000000;stroke-linecap:square;"/>
   </g>
   <g id="line2d_63">
    <path clip-path="url(#p5719f18d00)" d="M 44.52 155.982112 
L 78.372 152.427105 
L 112.224 143.694979 
L 146.076 121.410949 
L 179.928 105.458018 
L 213.78 116.55303 
" style="fill:none;opacity:0.05;stroke:#000000;stroke-linecap:square;"/>
   </g>
   <g id="line2d_64">
    <path clip-path="url(#p5719f18d00)" d="M 44.52 155.320103 
L 78.372 152.453433 
L 112.224 147.823663 
L 146.076 133.671558 
L 179.928 115.405691 
L 213.78 109.71192 
" style="fill:none;opacity:0.05;stroke:#000000;stroke-linecap:square;"/>
   </g>
   <g id="line2d_65">
    <path clip-path="url(#p5719f18d00)" d="M 44.52 155.624905 
L 78.372 152.189088 
L 112.224 146.026166 
L 146.076 121.595461 
L 179.928 96.082434 
L 213.78 98.574497 
" style="fill:none;opacity:0.05;stroke:#000000;stroke-linecap:square;"/>
   </g>
   <g id="line2d_66">
    <path clip-path="url(#p5719f18d00)" d="M 44.52 155.821533 
L 78.372 152.276753 
L 112.224 146.126436 
L 146.076 123.38321 
L 179.928 102.620322 
L 213.78 119.714311 
" style="fill:none;opacity:0.05;stroke:#000000;stroke-linecap:square;"/>
   </g>
   <g id="line2d_67">
    <path clip-path="url(#p5719f18d00)" d="M 44.52 155.208092 
L 78.372 151.23476 
L 112.224 142.76448 
L 146.076 127.822546 
L 179.928 103.321676 
L 213.78 97.485638 
" style="fill:none;opacity:0.05;stroke:#000000;stroke-linecap:square;"/>
   </g>
   <g id="line2d_68">
    <path clip-path="url(#p5719f18d00)" d="M 44.52 155.600858 
L 78.372 151.924148 
L 112.224 146.233736 
L 146.076 125.696646 
L 179.928 109.616161 
L 213.78 124.094337 
" style="fill:none;opacity:0.05;stroke:#000000;stroke-linecap:square;"/>
   </g>
   <g id="line2d_69">
    <path clip-path="url(#p5719f18d00)" d="M 44.52 155.01613 
L 78.372 151.158097 
L 112.224 145.051948 
L 146.076 131.419325 
L 179.928 126.508027 
L 213.78 131.751406 
" style="fill:none;opacity:0.05;stroke:#000000;stroke-linecap:square;"/>
   </g>
   <g id="line2d_70">
    <path clip-path="url(#p5719f18d00)" d="M 44.52 155.629808 
L 78.372 151.847217 
L 112.224 143.239233 
L 146.076 123.92109 
L 179.928 106.220164 
L 213.78 108.069896 
" style="fill:none;opacity:0.05;stroke:#000000;stroke-linecap:square;"/>
   </g>
   <g id="line2d_71">
    <path clip-path="url(#p5719f18d00)" d="M 44.52 155.959659 
L 78.372 152.110427 
L 112.224 143.842564 
L 146.076 117.035271 
L 179.928 89.772731 
L 213.78 112.001792 
" style="fill:none;opacity:0.05;stroke:#000000;stroke-linecap:square;"/>
   </g>
   <g id="line2d_72">
    <path clip-path="url(#p5719f18d00)" d="M 44.52 155.286145 
L 78.372 152.145485 
L 112.224 145.573056 
L 146.076 124.890953 
L 179.928 86.62969 
L 213.78 43.293838 
" style="fill:none;opacity:0.05;stroke:#000000;stroke-linecap:square;"/>
   </g>
   <g id="line2d_73">
    <path clip-path="url(#p5719f18d00)" d="M 44.52 153.536984 
L 78.372 150.284252 
L 112.224 146.375718 
L 146.076 130.842091 
L 179.928 111.603089 
L 213.78 95.71072 
" style="fill:none;opacity:0.05;stroke:#000000;stroke-linecap:square;"/>
   </g>
   <g id="line2d_74">
    <path clip-path="url(#p5719f18d00)" d="M 44.52 155.890528 
L 78.372 153.143253 
L 112.224 149.036798 
L 146.076 132.082481 
L 179.928 104.160097 
L 213.78 116.433888 
" style="fill:none;opacity:0.05;stroke:#000000;stroke-linecap:square;"/>
   </g>
   <g id="line2d_75">
    <path clip-path="url(#p5719f18d00)" d="M 44.52 155.749986 
L 78.372 152.27621 
L 112.224 143.002384 
L 146.076 123.025603 
L 179.928 103.877041 
L 213.78 93.61248 
" style="fill:none;opacity:0.05;stroke:#000000;stroke-linecap:square;"/>
   </g>
   <g id="line2d_76">
    <path clip-path="url(#p5719f18d00)" d="M 44.52 155.249333 
L 78.372 151.522379 
L 112.224 145.055397 
L 146.076 126.227993 
L 179.928 91.418148 
L 213.78 88.393324 
" style="fill:none;opacity:0.05;stroke:#000000;stroke-linecap:square;"/>
   </g>
   <g id="line2d_77">
    <path clip-path="url(#p5719f18d00)" d="M 44.52 155.809511 
L 78.372 152.599919 
L 112.224 146.97586 
L 146.076 125.16664 
L 179.928 104.024052 
L 213.78 113.825914 
" style="fill:none;opacity:0.05;stroke:#000000;stroke-linecap:square;"/>
   </g>
   <g id="line2d_78">
    <path clip-path="url(#p5719f18d00)" d="M 44.52 155.236606 
L 78.372 152.263586 
L 112.224 147.232654 
L 146.076 129.076972 
L 179.928 102.950717 
L 213.78 85.305852 
" style="fill:none;opacity:0.05;stroke:#000000;stroke-linecap:square;"/>
   </g>
   <g id="line2d_79">
    <path clip-path="url(#p5719f18d00)" d="M 44.52 155.320103 
L 78.372 152.453433 
L 112.224 147.823663 
L 146.076 133.671558 
L 179.928 115.405691 
L 213.78 109.71192 
" style="fill:none;opacity:0.05;stroke:#000000;stroke-linecap:square;"/>
   </g>
   <g id="line2d_80">
    <path clip-path="url(#p5719f18d00)" d="M 44.52 155.650746 
L 78.372 152.841453 
L 112.224 147.06129 
L 146.076 130.909948 
L 179.928 101.110709 
L 213.78 84.551884 
" style="fill:none;opacity:0.05;stroke:#000000;stroke-linecap:square;"/>
   </g>
   <g id="line2d_81">
    <path clip-path="url(#p5719f18d00)" d="M 44.52 155.754181 
L 78.372 153.470747 
L 112.224 149.234289 
L 146.076 134.38854 
L 179.928 111.497395 
L 213.78 96.18691 
" style="fill:none;opacity:0.05;stroke:#000000;stroke-linecap:square;"/>
   </g>
   <g id="line2d_82">
    <path clip-path="url(#p5719f18d00)" d="M 44.52 155.864044 
L 78.372 151.623567 
L 112.224 143.413667 
L 146.076 115.563925 
L 179.928 87.991015 
L 213.78 116.476397 
" style="fill:none;opacity:0.05;stroke:#000000;stroke-linecap:square;"/>
   </g>
   <g id="line2d_83">
    <path clip-path="url(#p5719f18d00)" d="M 44.52 155.98749 
L 78.372 153.522741 
L 112.224 148.394891 
L 146.076 129.84939 
L 179.928 104.031557 
L 213.78 96.482502 
" style="fill:none;opacity:0.05;stroke:#000000;stroke-linecap:square;"/>
   </g>
   <g id="line2d_84">
    <path clip-path="url(#p5719f18d00)" d="M 44.52 155.74715 
L 78.372 153.05253 
L 112.224 147.42429 
L 146.076 130.822535 
L 179.928 104.308172 
L 213.78 89.799133 
" style="fill:none;opacity:0.05;stroke:#000000;stroke-linecap:square;"/>
   </g>
   <g id="line2d_85">
    <path clip-path="url(#p5719f18d00)" d="M 44.52 155.621903 
L 78.372 150.693425 
L 112.224 140.958315 
L 146.076 113.5549 
L 179.928 93.833876 
L 213.78 118.718458 
" style="fill:none;opacity:0.05;stroke:#000000;stroke-linecap:square;"/>
   </g>
   <g id="line2d_86">
    <path clip-path="url(#p5719f18d00)" d="M 44.52 155.743561 
L 78.372 152.733767 
L 112.224 144.832048 
L 146.076 126.292206 
L 179.928 104.531659 
L 213.78 81.562825 
" style="fill:none;opacity:0.05;stroke:#000000;stroke-linecap:square;"/>
   </g>
   <g id="line2d_87">
    <path clip-path="url(#p5719f18d00)" d="M 44.52 155.286086 
L 78.372 151.695002 
L 112.224 144.414871 
L 146.076 127.925495 
L 179.928 111.256534 
L 213.78 105.159677 
" style="fill:none;opacity:0.05;stroke:#000000;stroke-linecap:square;"/>
   </g>
   <g id="line2d_88">
    <path clip-path="url(#p5719f18d00)" d="M 44.52 155.820096 
L 78.372 153.195747 
L 112.224 148.336536 
L 146.076 131.868427 
L 179.928 117.030992 
L 213.78 116.045827 
" style="fill:none;opacity:0.05;stroke:#000000;stroke-linecap:square;"/>
   </g>
   <g id="line2d_89">
    <path clip-path="url(#p5719f18d00)" d="M 44.52 154.837718 
L 78.372 151.099191 
L 112.224 144.863608 
L 146.076 130.836299 
L 179.928 122.820577 
L 213.78 122.349873 
" style="fill:none;opacity:0.05;stroke:#000000;stroke-linecap:square;"/>
   </g>
   <g id="line2d_90">
    <path clip-path="url(#p5719f18d00)" d="M 44.52 155.256457 
L 78.372 151.307334 
L 112.224 145.765665 
L 146.076 122.741494 
L 179.928 108.003163 
L 213.78 119.111238 
" style="fill:none;opacity:0.05;stroke:#000000;stroke-linecap:square;"/>
   </g>
   <g id="line2d_91">
    <path clip-path="url(#p5719f18d00)" d="M 44.52 155.748801 
L 78.372 152.772469 
L 112.224 148.177045 
L 146.076 120.085865 
L 179.928 74.902558 
L 213.78 73.126187 
" style="fill:none;opacity:0.05;stroke:#000000;stroke-linecap:square;"/>
   </g>
   <g id="line2d_92">
    <path clip-path="url(#p5719f18d00)" d="M 44.52 155.690985 
L 78.372 152.21596 
L 112.224 146.378639 
L 146.076 126.621637 
L 179.928 114.666284 
L 213.78 126.180122 
" style="fill:none;opacity:0.05;stroke:#000000;stroke-linecap:square;"/>
   </g>
   <g id="line2d_93">
    <path clip-path="url(#p5719f18d00)" d="M 44.52 154.860681 
L 78.372 150.569059 
L 112.224 143.165706 
L 146.076 120.686518 
L 179.928 97.922757 
L 213.78 93.580005 
" style="fill:none;opacity:0.05;stroke:#000000;stroke-linecap:square;"/>
   </g>
   <g id="line2d_94">
    <path clip-path="url(#p5719f18d00)" d="M 44.52 155.227176 
L 78.372 152.1448 
L 112.224 147.082599 
L 146.076 131.333807 
L 179.928 112.042526 
L 213.78 105.194923 
" style="fill:none;opacity:0.05;stroke:#000000;stroke-linecap:square;"/>
   </g>
   <g id="line2d_95">
    <path clip-path="url(#p5719f18d00)" d="M 44.52 155.812605 
L 78.372 153.642567 
L 112.224 149.621743 
L 146.076 134.923973 
L 179.928 91.06133 
L 213.78 60.079229 
" style="fill:none;opacity:0.05;stroke:#000000;stroke-linecap:square;"/>
   </g>
   <g id="line2d_96">
    <path clip-path="url(#p5719f18d00)" d="M 44.52 155.931719 
L 78.372 152.155073 
L 112.224 144.963668 
L 146.076 118.355153 
L 179.928 101.807562 
L 213.78 123.50788 
" style="fill:none;opacity:0.05;stroke:#000000;stroke-linecap:square;"/>
   </g>
   <g id="line2d_97">
    <path clip-path="url(#p5719f18d00)" d="M 44.52 154.7648 
L 78.372 152.136139 
L 112.224 148.361033 
L 146.076 133.5234 
L 179.928 99.323331 
L 213.78 67.976391 
" style="fill:none;opacity:0.05;stroke:#000000;stroke-linecap:square;"/>
   </g>
   <g id="line2d_98">
    <path clip-path="url(#p5719f18d00)" d="M 44.52 156.210578 
L 78.372 152.776605 
L 112.224 144.601705 
L 146.076 119.535418 
L 179.928 95.11958 
L 213.78 122.614765 
" style="fill:none;opacity:0.05;stroke:#000000;stroke-linecap:square;"/>
   </g>
   <g id="line2d_99">
    <path clip-path="url(#p5719f18d00)" d="M 44.52 156.143639 
L 78.372 154.275527 
L 112.224 149.169454 
L 146.076 134.243095 
L 179.928 102.732556 
L 213.78 58.960241 
" style="fill:none;opacity:0.05;stroke:#000000;stroke-linecap:square;"/>
   </g>
   <g id="line2d_100">
    <path clip-path="url(#p5719f18d00)" d="M 44.52 155.907839 
L 78.372 153.085006 
L 112.224 147.929453 
L 146.076 131.825075 
L 179.928 105.431731 
L 213.78 112.713119 
" style="fill:none;opacity:0.05;stroke:#000000;stroke-linecap:square;"/>
   </g>
   <g id="line2d_101">
    <path clip-path="url(#p5719f18d00)" d="M 44.52 155.99998 
L 78.372 152.765698 
L 112.224 145.730572 
L 146.076 118.850928 
L 179.928 85.700539 
L 213.78 94.364834 
" style="fill:none;opacity:0.05;stroke:#000000;stroke-linecap:square;"/>
   </g>
   <g id="line2d_102">
    <path clip-path="url(#p5719f18d00)" d="M 44.52 155.386313 
L 78.372 151.537722 
L 112.224 144.208987 
L 146.076 124.001475 
L 179.928 98.1771 
L 213.78 98.744119 
" style="fill:none;opacity:0.05;stroke:#000000;stroke-linecap:square;"/>
   </g>
   <g id="line2d_103">
    <path clip-path="url(#p5719f18d00)" d="M 44.52 156.003067 
L 78.372 152.246221 
L 112.224 145.306042 
L 146.076 117.304828 
L 179.928 102.693884 
L 213.78 127.930373 
" style="fill:none;opacity:0.05;stroke:#000000;stroke-linecap:square;"/>
   </g>
   <g id="line2d_104">
    <path clip-path="url(#p5719f18d00)" d="M 44.52 154.757531 
L 78.372 149.596599 
L 112.224 140.619108 
L 146.076 124.265745 
L 179.928 118.1689 
L 213.78 127.682251 
" style="fill:none;opacity:0.05;stroke:#000000;stroke-linecap:square;"/>
   </g>
   <g id="line2d_105">
    <path clip-path="url(#p5719f18d00)" d="M 44.52 155.485621 
L 78.372 151.666241 
L 112.224 145.265818 
L 146.076 130.116193 
L 179.928 115.390126 
L 213.78 127.364551 
" style="fill:none;opacity:0.05;stroke:#000000;stroke-linecap:square;"/>
   </g>
   <g id="line2d_106">
    <path clip-path="url(#p5719f18d00)" d="M 44.52 156.004861 
L 78.372 153.085463 
L 112.224 145.345057 
L 146.076 119.903756 
L 179.928 88.20785 
L 213.78 69.434317 
" style="fill:none;opacity:0.05;stroke:#000000;stroke-linecap:square;"/>
   </g>
   <g id="line2d_107">
    <path clip-path="url(#p5719f18d00)" d="M 44.52 156.233489 
L 78.372 153.686611 
L 112.224 147.804265 
L 146.076 125.133924 
L 179.928 107.967933 
L 213.78 116.833746 
" style="fill:none;opacity:0.05;stroke:#000000;stroke-linecap:square;"/>
   </g>
   <g id="line2d_108">
    <path clip-path="url(#p5719f18d00)" d="M 44.52 156.090378 
L 78.372 152.497993 
L 112.224 144.754931 
L 146.076 116.4517 
L 179.928 88.784505 
L 213.78 114.799204 
" style="fill:none;opacity:0.05;stroke:#000000;stroke-linecap:square;"/>
   </g>
   <g id="line2d_109">
    <path clip-path="url(#p5719f18d00)" d="M 44.52 156.100508 
L 78.372 153.477549 
L 112.224 148.357892 
L 146.076 130.401827 
L 179.928 111.043605 
L 213.78 121.026504 
" style="fill:none;opacity:0.05;stroke:#000000;stroke-linecap:square;"/>
   </g>
   <g id="line2d_110">
    <path clip-path="url(#p5719f18d00)" d="M 44.52 155.16899 
L 78.372 151.68346 
L 112.224 145.124582 
L 146.076 126.847101 
L 179.928 96.971987 
L 213.78 80.848565 
" style="fill:none;opacity:0.05;stroke:#000000;stroke-linecap:square;"/>
   </g>
   <g id="line2d_111">
    <path clip-path="url(#p5719f18d00)" d="M 44.52 155.256457 
L 78.372 151.307334 
L 112.224 145.765665 
L 146.076 122.741494 
L 179.928 108.003163 
L 213.78 119.111238 
" style="fill:none;opacity:0.05;stroke:#000000;stroke-linecap:square;"/>
   </g>
   <g id="line2d_112">
    <path clip-path="url(#p5719f18d00)" d="M 44.52 156.14988 
L 78.372 154.62493 
L 112.224 152.151518 
L 146.076 140.661303 
L 179.928 120.429577 
L 213.78 113.151769 
" style="fill:none;opacity:0.05;stroke:#000000;stroke-linecap:square;"/>
   </g>
   <g id="line2d_113">
    <path clip-path="url(#p5719f18d00)" d="M 44.52 155.541333 
L 78.372 153.38343 
L 112.224 149.479246 
L 146.076 137.788368 
L 179.928 117.544129 
L 213.78 98.030401 
" style="fill:none;opacity:0.05;stroke:#000000;stroke-linecap:square;"/>
   </g>
   <g id="line2d_114">
    <path clip-path="url(#p5719f18d00)" d="M 44.52 155.983534 
L 78.372 153.505504 
L 112.224 149.766348 
L 146.076 131.188869 
L 179.928 97.679897 
L 213.78 106.58658 
" style="fill:none;opacity:0.05;stroke:#000000;stroke-linecap:square;"/>
   </g>
   <g id="line2d_115">
    <path clip-path="url(#p5719f18d00)" d="M 44.52 155.236606 
L 78.372 152.263586 
L 112.224 147.232654 
L 146.076 129.076972 
L 179.928 102.950717 
L 213.78 85.305852 
" style="fill:none;opacity:0.05;stroke:#000000;stroke-linecap:square;"/>
   </g>
   <g id="line2d_116">
    <path clip-path="url(#p5719f18d00)" d="M 44.52 156.07865 
L 78.372 153.375648 
L 112.224 148.258257 
L 146.076 125.64452 
L 179.928 96.090408 
L 213.78 105.760993 
" style="fill:none;opacity:0.05;stroke:#000000;stroke-linecap:square;"/>
   </g>
   <g id="line2d_117">
    <path clip-path="url(#p5719f18d00)" d="M 44.52 155.624905 
L 78.372 152.189088 
L 112.224 146.026166 
L 146.076 121.595461 
L 179.928 96.082434 
L 213.78 98.574497 
" style="fill:none;opacity:0.05;stroke:#000000;stroke-linecap:square;"/>
   </g>
   <g id="line2d_118">
    <path clip-path="url(#p5719f18d00)" d="M 44.52 155.212898 
L 78.372 152.171608 
L 112.224 147.233249 
L 146.076 129.411344 
L 179.928 111.924973 
L 213.78 102.794569 
" style="fill:none;opacity:0.05;stroke:#000000;stroke-linecap:square;"/>
   </g>
   <g id="line2d_119">
    <path clip-path="url(#p5719f18d00)" d="M 44.52 155.667403 
L 78.372 151.307059 
L 112.224 142.500899 
L 146.076 116.404463 
L 179.928 99.213361 
L 213.78 116.1121 
" style="fill:none;opacity:0.05;stroke:#000000;stroke-linecap:square;"/>
   </g>
   <g id="line2d_120">
    <path clip-path="url(#p5719f18d00)" d="M 44.52 155.115471 
L 78.372 150.466214 
L 112.224 140.806256 
L 146.076 121.685806 
L 179.928 117.68906 
L 213.78 121.871572 
" style="fill:none;opacity:0.05;stroke:#000000;stroke-linecap:square;"/>
   </g>
   <g id="line2d_121">
    <path clip-path="url(#p5719f18d00)" d="M 44.52 154.905575 
L 78.372 150.575485 
L 112.224 142.323567 
L 146.076 125.09575 
L 179.928 110.038396 
L 213.78 108.555934 
" style="fill:none;opacity:0.05;stroke:#000000;stroke-linecap:square;"/>
   </g>
   <g id="line2d_122">
    <path clip-path="url(#p5719f18d00)" d="M 44.52 155.399466 
L 78.372 151.582224 
L 112.224 143.262719 
L 146.076 127.413682 
L 179.928 115.541301 
L 213.78 115.084022 
" style="fill:none;opacity:0.05;stroke:#000000;stroke-linecap:square;"/>
   </g>
   <g id="line2d_123">
    <path clip-path="url(#p5719f18d00)" d="M 44.52 155.312494 
L 78.372 152.626892 
L 112.224 148.315361 
L 146.076 133.074596 
L 179.928 110.224276 
L 213.78 96.877586 
" style="fill:none;opacity:0.05;stroke:#000000;stroke-linecap:square;"/>
   </g>
   <g id="line2d_124">
    <path clip-path="url(#p5719f18d00)" d="M 44.52 155.550822 
L 78.372 152.578086 
L 112.224 149.572941 
L 146.076 131.609676 
L 179.928 111.307173 
L 213.78 125.891256 
" style="fill:none;opacity:0.05;stroke:#000000;stroke-linecap:square;"/>
   </g>
   <g id="line2d_125">
    <path clip-path="url(#p5719f18d00)" d="M 44.52 155.294836 
L 78.372 152.011167 
L 112.224 145.43554 
L 146.076 128.616123 
L 179.928 105.451609 
L 213.78 90.285944 
" style="fill:none;opacity:0.05;stroke:#000000;stroke-linecap:square;"/>
   </g>
   <g id="line2d_126">
    <path clip-path="url(#p5719f18d00)" d="M 44.52 154.96046 
L 78.372 151.362309 
L 112.224 145.909649 
L 146.076 129.321842 
L 179.928 107.445366 
L 213.78 105.685131 
" style="fill:none;opacity:0.05;stroke:#000000;stroke-linecap:square;"/>
   </g>
   <g id="line2d_127">
    <path clip-path="url(#p5719f18d00)" d="M 44.52 155.6651 
L 78.372 151.931451 
L 112.224 145.584763 
L 146.076 126.138055 
L 179.928 112.599686 
L 213.78 126.877347 
" style="fill:none;opacity:0.05;stroke:#000000;stroke-linecap:square;"/>
   </g>
   <g id="line2d_128">
    <path clip-path="url(#p5719f18d00)" d="M 44.52 155.522416 
L 78.372 151.212443 
L 112.224 144.333692 
L 146.076 122.610464 
L 179.928 110.14221 
L 213.78 128.821142 
" style="fill:none;opacity:0.05;stroke:#000000;stroke-linecap:square;"/>
   </g>
   <g id="line2d_129">
    <path clip-path="url(#p5719f18d00)" d="M 44.52 155.6651 
L 78.372 151.931451 
L 112.224 145.584763 
L 146.076 126.138055 
L 179.928 112.599686 
L 213.78 126.877347 
" style="fill:none;opacity:0.05;stroke:#000000;stroke-linecap:square;"/>
   </g>
   <g id="line2d_130">
    <path clip-path="url(#p5719f18d00)" d="M 44.52 154.517708 
L 78.372 151.462933 
L 112.224 146.886718 
L 146.076 130.66116 
L 179.928 108.798403 
L 213.78 87.82849 
" style="fill:none;opacity:0.05;stroke:#000000;stroke-linecap:square;"/>
   </g>
   <g id="line2d_131">
    <path clip-path="url(#p5719f18d00)" d="M 44.52 154.742041 
L 78.372 149.047732 
L 112.224 139.70167 
L 146.076 113.230565 
L 179.928 99.046557 
L 213.78 113.798858 
" style="fill:none;opacity:0.05;stroke:#000000;stroke-linecap:square;"/>
   </g>
   <g id="line2d_132">
    <path clip-path="url(#p5719f18d00)" d="M 44.52 155.294836 
L 78.372 152.011167 
L 112.224 145.43554 
L 146.076 128.616123 
L 179.928 105.451609 
L 213.78 90.285944 
" style="fill:none;opacity:0.05;stroke:#000000;stroke-linecap:square;"/>
   </g>
   <g id="line2d_133">
    <path clip-path="url(#p5719f18d00)" d="M 44.52 155.743312 
L 78.372 152.477341 
L 112.224 146.515365 
L 146.076 131.497706 
L 179.928 112.064849 
L 213.78 121.582289 
" style="fill:none;opacity:0.05;stroke:#000000;stroke-linecap:square;"/>
   </g>
   <g id="line2d_134">
    <path clip-path="url(#p5719f18d00)" d="M 44.52 154.742041 
L 78.372 149.047732 
L 112.224 139.70167 
L 146.076 113.230565 
L 179.928 99.046557 
L 213.78 113.798858 
" style="fill:none;opacity:0.05;stroke:#000000;stroke-linecap:square;"/>
   </g>
   <g id="line2d_135">
    <path clip-path="url(#p5719f18d00)" d="M 44.52 155.630506 
L 78.372 152.615697 
L 112.224 147.976802 
L 146.076 132.4162 
L 179.928 116.554525 
L 213.78 123.535675 
" style="fill:none;opacity:0.05;stroke:#000000;stroke-linecap:square;"/>
   </g>
   <g id="line2d_136">
    <path clip-path="url(#p5719f18d00)" d="M 44.52 156.141277 
L 78.372 153.206677 
L 112.224 146.29534 
L 146.076 123.484876 
L 179.928 102.730324 
L 213.78 113.168903 
" style="fill:none;opacity:0.05;stroke:#000000;stroke-linecap:square;"/>
   </g>
   <g id="line2d_137">
    <path clip-path="url(#p5719f18d00)" d="M 44.52 155.056874 
L 78.372 150.543207 
L 112.224 142.991401 
L 146.076 119.900868 
L 179.928 101.863962 
L 213.78 109.20852 
" style="fill:none;opacity:0.05;stroke:#000000;stroke-linecap:square;"/>
   </g>
   <g id="line2d_138">
    <path clip-path="url(#p5719f18d00)" d="M 44.52 155.452287 
L 78.372 152.470537 
L 112.224 147.902742 
L 146.076 130.800462 
L 179.928 115.860249 
L 213.78 116.440726 
" style="fill:none;opacity:0.05;stroke:#000000;stroke-linecap:square;"/>
   </g>
   <g id="line2d_139">
    <path clip-path="url(#p5719f18d00)" d="M 44.52 155.652192 
L 78.372 151.256114 
L 112.224 144.293882 
L 146.076 118.074572 
L 179.928 100.486 
L 213.78 125.859481 
" style="fill:none;opacity:0.05;stroke:#000000;stroke-linecap:square;"/>
   </g>
   <g id="line2d_140">
    <path clip-path="url(#p5719f18d00)" d="M 44.52 155.650386 
L 78.372 152.518432 
L 112.224 145.898963 
L 146.076 129.811316 
L 179.928 109.952628 
L 213.78 105.323723 
" style="fill:none;opacity:0.05;stroke:#000000;stroke-linecap:square;"/>
   </g>
   <g id="line2d_141">
    <path clip-path="url(#p5719f18d00)" d="M 44.52 156.210578 
L 78.372 152.776605 
L 112.224 144.601705 
L 146.076 119.535418 
L 179.928 95.11958 
L 213.78 122.614765 
" style="fill:none;opacity:0.05;stroke:#000000;stroke-linecap:square;"/>
   </g>
   <g id="line2d_142">
    <path clip-path="url(#p5719f18d00)" d="M 44.52 154.946536 
L 78.372 151.412431 
L 112.224 144.328431 
L 146.076 126.773264 
L 179.928 104.528438 
L 213.78 82.301621 
" style="fill:none;opacity:0.05;stroke:#000000;stroke-linecap:square;"/>
   </g>
   <g id="line2d_143">
    <path clip-path="url(#p5719f18d00)" d="M 44.52 155.382655 
L 78.372 151.030677 
L 112.224 142.935204 
L 146.076 128.316998 
L 179.928 114.977168 
L 213.78 127.496366 
" style="fill:none;opacity:0.05;stroke:#000000;stroke-linecap:square;"/>
   </g>
   <g id="line2d_144">
    <path clip-path="url(#p5719f18d00)" d="M 44.52 155.697437 
L 78.372 150.428964 
L 112.224 141.069341 
L 146.076 111.235147 
L 179.928 101.435758 
L 213.78 132.699097 
" style="fill:none;opacity:0.05;stroke:#000000;stroke-linecap:square;"/>
   </g>
   <g id="line2d_145">
    <path clip-path="url(#p5719f18d00)" d="M 44.52 154.947679 
L 78.372 152.166947 
L 112.224 148.23935 
L 146.076 136.545484 
L 179.928 121.812196 
L 213.78 116.407649 
" style="fill:none;opacity:0.05;stroke:#000000;stroke-linecap:square;"/>
   </g>
   <g id="line2d_146">
    <path clip-path="url(#p5719f18d00)" d="M 44.52 154.330023 
L 78.372 149.638038 
L 112.224 141.932104 
L 146.076 124.333507 
L 179.928 109.877371 
L 213.78 108.897961 
" style="fill:none;opacity:0.05;stroke:#000000;stroke-linecap:square;"/>
   </g>
   <g id="line2d_147">
    <path clip-path="url(#p5719f18d00)" d="M 44.52 155.921329 
L 78.372 152.524181 
L 112.224 144.53552 
L 146.076 122.661124 
L 179.928 103.371324 
L 213.78 109.511979 
" style="fill:none;opacity:0.05;stroke:#000000;stroke-linecap:square;"/>
   </g>
   <g id="line2d_148">
    <path clip-path="url(#p5719f18d00)" d="M 44.52 155.78912 
L 78.372 152.649483 
L 112.224 147.205562 
L 146.076 122.213738 
L 179.928 90.386735 
L 213.78 95.069898 
" style="fill:none;opacity:0.05;stroke:#000000;stroke-linecap:square;"/>
   </g>
   <g id="line2d_149">
    <path clip-path="url(#p5719f18d00)" d="M 44.52 155.54129 
L 78.372 152.068387 
L 112.224 147.12266 
L 146.076 123.827017 
L 179.928 89.988193 
L 213.78 101.718167 
" style="fill:none;opacity:0.05;stroke:#000000;stroke-linecap:square;"/>
   </g>
   <g id="line2d_150">
    <path clip-path="url(#p5719f18d00)" d="M 44.52 155.461236 
L 78.372 153.202288 
L 112.224 149.499494 
L 146.076 136.464808 
L 179.928 114.916227 
L 213.78 97.829611 
" style="fill:none;opacity:0.05;stroke:#000000;stroke-linecap:square;"/>
   </g>
   <g id="line2d_151">
    <path clip-path="url(#p5719f18d00)" d="M 44.52 156.073248 
L 78.372 154.190124 
L 112.224 150.793985 
L 146.076 137.04972 
L 179.928 118.474189 
L 213.78 112.736059 
" style="fill:none;opacity:0.05;stroke:#000000;stroke-linecap:square;"/>
   </g>
   <g id="line2d_152">
    <path clip-path="url(#p5719f18d00)" d="M 44.52 155.442623 
L 78.372 151.469562 
L 112.224 142.727314 
L 146.076 117.595479 
L 179.928 84.495783 
L 213.78 73.051786 
" style="fill:none;opacity:0.05;stroke:#000000;stroke-linecap:square;"/>
   </g>
   <g id="line2d_153">
    <path clip-path="url(#p5719f18d00)" d="M 44.52 155.650746 
L 78.372 152.841453 
L 112.224 147.06129 
L 146.076 130.909948 
L 179.928 101.110709 
L 213.78 84.551884 
" style="fill:none;opacity:0.05;stroke:#000000;stroke-linecap:square;"/>
   </g>
   <g id="line2d_154">
    <path clip-path="url(#p5719f18d00)" d="M 44.52 155.386313 
L 78.372 151.537722 
L 112.224 144.208987 
L 146.076 124.001475 
L 179.928 98.1771 
L 213.78 98.744119 
" style="fill:none;opacity:0.05;stroke:#000000;stroke-linecap:square;"/>
   </g>
   <g id="line2d_155">
    <path clip-path="url(#p5719f18d00)" d="M 44.52 156.003098 
L 78.372 153.923137 
L 112.224 147.993492 
L 146.076 130.884079 
L 179.928 95.091308 
L 213.78 27.892192 
" style="fill:none;opacity:0.05;stroke:#000000;stroke-linecap:square;"/>
   </g>
   <g id="line2d_156">
    <path clip-path="url(#p5719f18d00)" d="M 44.52 155.63854 
L 78.372 151.709429 
L 112.224 142.649033 
L 146.076 119.727888 
L 179.928 95.041735 
L 213.78 95.746247 
" style="fill:none;opacity:0.05;stroke:#000000;stroke-linecap:square;"/>
   </g>
   <g id="line2d_157">
    <path clip-path="url(#p5719f18d00)" d="M 44.52 155.320103 
L 78.372 152.453433 
L 112.224 147.823663 
L 146.076 133.671558 
L 179.928 115.405691 
L 213.78 109.71192 
" style="fill:none;opacity:0.05;stroke:#000000;stroke-linecap:square;"/>
   </g>
   <g id="line2d_158">
    <path clip-path="url(#p5719f18d00)" d="M 44.52 154.988821 
L 78.372 152.208882 
L 112.224 147.956378 
L 146.076 128.024758 
L 179.928 110.647945 
L 213.78 89.657593 
" style="fill:none;opacity:0.05;stroke:#000000;stroke-linecap:square;"/>
   </g>
   <g id="line2d_159">
    <path clip-path="url(#p5719f18d00)" d="M 44.52 156.104932 
L 78.372 154.12526 
L 112.224 148.669608 
L 146.076 134.033724 
L 179.928 107.485525 
L 213.78 71.32767 
" style="fill:none;opacity:0.05;stroke:#000000;stroke-linecap:square;"/>
   </g>
   <g id="line2d_160">
    <path clip-path="url(#p5719f18d00)" d="M 44.52 156.042332 
L 78.372 153.348377 
L 112.224 146.294872 
L 146.076 124.676758 
L 179.928 95.51732 
L 213.78 78.897507 
" style="fill:none;opacity:0.05;stroke:#000000;stroke-linecap:square;"/>
   </g>
   <g id="line2d_161">
    <path clip-path="url(#p5719f18d00)" d="M 44.52 155.714811 
L 78.372 151.391386 
L 112.224 143.461211 
L 146.076 119.18029 
L 179.928 97.759953 
L 213.78 120.990856 
" style="fill:none;opacity:0.05;stroke:#000000;stroke-linecap:square;"/>
   </g>
   <g id="line2d_162">
    <path clip-path="url(#p5719f18d00)" d="M 44.52 155.369275 
L 78.372 152.210773 
L 112.224 147.735026 
L 146.076 127.34306 
L 179.928 101.353458 
L 213.78 101.362778 
" style="fill:none;opacity:0.05;stroke:#000000;stroke-linecap:square;"/>
   </g>
   <g id="line2d_163">
    <path clip-path="url(#p5719f18d00)" d="M 44.52 155.595676 
L 78.372 151.967161 
L 112.224 145.512155 
L 146.076 126.071152 
L 179.928 107.327731 
L 213.78 116.574007 
" style="fill:none;opacity:0.05;stroke:#000000;stroke-linecap:square;"/>
   </g>
   <g id="line2d_164">
    <path clip-path="url(#p5719f18d00)" d="M 44.52 156.139359 
L 78.372 153.342373 
L 112.224 146.90998 
L 146.076 115.356485 
L 179.928 85.179719 
L 213.78 85.761437 
" style="fill:none;opacity:0.05;stroke:#000000;stroke-linecap:square;"/>
   </g>
   <g id="line2d_165">
    <path clip-path="url(#p5719f18d00)" d="M 44.52 155.399466 
L 78.372 151.582224 
L 112.224 143.262719 
L 146.076 127.413682 
L 179.928 115.541301 
L 213.78 115.084022 
" style="fill:none;opacity:0.05;stroke:#000000;stroke-linecap:square;"/>
   </g>
   <g id="line2d_166">
    <path clip-path="url(#p5719f18d00)" d="M 44.52 155.738134 
L 78.372 151.989383 
L 112.224 143.554354 
L 146.076 126.023218 
L 179.928 114.345227 
L 213.78 122.237966 
" style="fill:none;opacity:0.05;stroke:#000000;stroke-linecap:square;"/>
   </g>
   <g id="line2d_167">
    <path clip-path="url(#p5719f18d00)" d="M 44.52 155.427487 
L 78.372 152.421077 
L 112.224 148.165672 
L 146.076 133.399206 
L 179.928 120.920121 
L 213.78 125.635248 
" style="fill:none;opacity:0.05;stroke:#000000;stroke-linecap:square;"/>
   </g>
   <g id="line2d_168">
    <path clip-path="url(#p5719f18d00)" d="M 44.52 155.294836 
L 78.372 152.011167 
L 112.224 145.43554 
L 146.076 128.616123 
L 179.928 105.451609 
L 213.78 90.285944 
" style="fill:none;opacity:0.05;stroke:#000000;stroke-linecap:square;"/>
   </g>
   <g id="line2d_169">
    <path clip-path="url(#p5719f18d00)" d="M 44.52 155.234013 
L 78.372 150.882916 
L 112.224 140.751427 
L 146.076 117.786276 
L 179.928 92.732822 
L 213.78 80.249754 
" style="fill:none;opacity:0.05;stroke:#000000;stroke-linecap:square;"/>
   </g>
   <g id="line2d_170">
    <path clip-path="url(#p5719f18d00)" d="M 44.52 156.05151 
L 78.372 153.633739 
L 112.224 149.373756 
L 146.076 131.090719 
L 179.928 99.647141 
L 213.78 104.245775 
" style="fill:none;opacity:0.05;stroke:#000000;stroke-linecap:square;"/>
   </g>
   <g id="line2d_171">
    <path clip-path="url(#p5719f18d00)" d="M 44.52 156.210578 
L 78.372 152.776605 
L 112.224 144.601705 
L 146.076 119.535418 
L 179.928 95.11958 
L 213.78 122.614765 
" style="fill:none;opacity:0.05;stroke:#000000;stroke-linecap:square;"/>
   </g>
   <g id="line2d_172">
    <path clip-path="url(#p5719f18d00)" d="M 44.52 155.608642 
L 78.372 152.482792 
L 112.224 146.794403 
L 146.076 129.922826 
L 179.928 96.316342 
L 213.78 93.643591 
" style="fill:none;opacity:0.05;stroke:#000000;stroke-linecap:square;"/>
   </g>
   <g id="line2d_173">
    <path clip-path="url(#p5719f18d00)" d="M 44.52 155.317027 
L 78.372 151.503448 
L 112.224 146.193593 
L 146.076 124.987408 
L 179.928 107.673307 
L 213.78 119.382064 
" style="fill:none;opacity:0.05;stroke:#000000;stroke-linecap:square;"/>
   </g>
   <g id="line2d_174">
    <path clip-path="url(#p5719f18d00)" d="M 44.52 155.461236 
L 78.372 153.202288 
L 112.224 149.499494 
L 146.076 136.464808 
L 179.928 114.916227 
L 213.78 97.829611 
" style="fill:none;opacity:0.05;stroke:#000000;stroke-linecap:square;"/>
   </g>
   <g id="line2d_175">
    <path clip-path="url(#p5719f18d00)" d="M 44.52 155.697494 
L 78.372 153.228086 
L 112.224 147.938037 
L 146.076 134.289514 
L 179.928 114.613526 
L 213.78 97.233267 
" style="fill:none;opacity:0.05;stroke:#000000;stroke-linecap:square;"/>
   </g>
   <g id="line2d_176">
    <path clip-path="url(#p5719f18d00)" d="M 44.52 155.487538 
L 78.372 151.124282 
L 112.224 144.09741 
L 146.076 122.085516 
L 179.928 102.013017 
L 213.78 121.974459 
" style="fill:none;opacity:0.05;stroke:#000000;stroke-linecap:square;"/>
   </g>
   <g id="line2d_177">
    <path clip-path="url(#p5719f18d00)" d="M 44.52 156.020646 
L 78.372 153.41843 
L 112.224 147.665101 
L 146.076 130.672854 
L 179.928 118.991151 
L 213.78 119.945679 
" style="fill:none;opacity:0.05;stroke:#000000;stroke-linecap:square;"/>
   </g>
   <g id="line2d_178">
    <path clip-path="url(#p5719f18d00)" d="M 44.52 155.610724 
L 78.372 152.871916 
L 112.224 149.215861 
L 146.076 136.067301 
L 179.928 120.083974 
L 213.78 127.2677 
" style="fill:none;opacity:0.05;stroke:#000000;stroke-linecap:square;"/>
   </g>
   <g id="line2d_179">
    <path clip-path="url(#p5719f18d00)" d="M 44.52 155.64144 
L 78.372 152.698042 
L 112.224 148.565666 
L 146.076 129.34395 
L 179.928 110.670322 
L 213.78 117.766087 
" style="fill:none;opacity:0.05;stroke:#000000;stroke-linecap:square;"/>
   </g>
   <g id="line2d_180">
    <path clip-path="url(#p5719f18d00)" d="M 44.52 156.07865 
L 78.372 153.375648 
L 112.224 148.258257 
L 146.076 125.64452 
L 179.928 96.090408 
L 213.78 105.760993 
" style="fill:none;opacity:0.05;stroke:#000000;stroke-linecap:square;"/>
   </g>
   <g id="line2d_181">
    <path clip-path="url(#p5719f18d00)" d="M 44.52 155.515977 
L 78.372 151.785073 
L 112.224 146.508167 
L 146.076 118.308976 
L 179.928 90.048165 
L 213.78 104.40683 
" style="fill:none;opacity:0.05;stroke:#000000;stroke-linecap:square;"/>
   </g>
   <g id="line2d_182">
    <path clip-path="url(#p5719f18d00)" d="M 44.52 155.697437 
L 78.372 150.428964 
L 112.224 141.069341 
L 146.076 111.235147 
L 179.928 101.435758 
L 213.78 132.699097 
" style="fill:none;opacity:0.05;stroke:#000000;stroke-linecap:square;"/>
   </g>
   <g id="line2d_183">
    <path clip-path="url(#p5719f18d00)" d="M 44.52 155.398388 
L 78.372 152.18938 
L 112.224 147.322671 
L 146.076 129.295364 
L 179.928 96.267483 
L 213.78 95.826476 
" style="fill:none;opacity:0.05;stroke:#000000;stroke-linecap:square;"/>
   </g>
   <g id="line2d_184">
    <path clip-path="url(#p5719f18d00)" d="M 44.52 155.610724 
L 78.372 152.871916 
L 112.224 149.215861 
L 146.076 136.067301 
L 179.928 120.083974 
L 213.78 127.2677 
" style="fill:none;opacity:0.05;stroke:#000000;stroke-linecap:square;"/>
   </g>
   <g id="line2d_185">
    <path clip-path="url(#p5719f18d00)" d="M 44.52 155.285074 
L 78.372 151.220138 
L 112.224 144.503926 
L 146.076 124.791787 
L 179.928 121.415392 
L 213.78 129.943516 
" style="fill:none;opacity:0.05;stroke:#000000;stroke-linecap:square;"/>
   </g>
   <g id="line2d_186">
    <path clip-path="url(#p5719f18d00)" d="M 44.52 156.148965 
L 78.372 153.743071 
L 112.224 148.205369 
L 146.076 128.518397 
L 179.928 99.95754 
L 213.78 96.234655 
" style="fill:none;opacity:0.05;stroke:#000000;stroke-linecap:square;"/>
   </g>
   <g id="line2d_187">
    <path clip-path="url(#p5719f18d00)" d="M 44.52 155.009504 
L 78.372 150.004629 
L 112.224 140.333579 
L 146.076 122.246963 
L 179.928 112.114935 
L 213.78 120.827064 
" style="fill:none;opacity:0.05;stroke:#000000;stroke-linecap:square;"/>
   </g>
   <g id="line2d_188">
    <path clip-path="url(#p5719f18d00)" d="M 44.52 154.742041 
L 78.372 149.047732 
L 112.224 139.70167 
L 146.076 113.230565 
L 179.928 99.046557 
L 213.78 113.798858 
" style="fill:none;opacity:0.05;stroke:#000000;stroke-linecap:square;"/>
   </g>
   <g id="line2d_189">
    <path clip-path="url(#p5719f18d00)" d="M 44.52 155.234013 
L 78.372 150.882916 
L 112.224 140.751427 
L 146.076 117.786276 
L 179.928 92.732822 
L 213.78 80.249754 
" style="fill:none;opacity:0.05;stroke:#000000;stroke-linecap:square;"/>
   </g>
   <g id="line2d_190">
    <path clip-path="url(#p5719f18d00)" d="M 44.52 155.081266 
L 78.372 150.536621 
L 112.224 143.488069 
L 146.076 124.887486 
L 179.928 115.370632 
L 213.78 127.555143 
" style="fill:none;opacity:0.05;stroke:#000000;stroke-linecap:square;"/>
   </g>
   <g id="line2d_191">
    <path clip-path="url(#p5719f18d00)" d="M 44.52 155.702812 
L 78.372 152.731257 
L 112.224 147.62099 
L 146.076 133.015515 
L 179.928 124.393774 
L 213.78 129.992005 
" style="fill:none;opacity:0.05;stroke:#000000;stroke-linecap:square;"/>
   </g>
   <g id="line2d_192">
    <path clip-path="url(#p5719f18d00)" d="M 44.52 156.07865 
L 78.372 153.375648 
L 112.224 148.258257 
L 146.076 125.64452 
L 179.928 96.090408 
L 213.78 105.760993 
" style="fill:none;opacity:0.05;stroke:#000000;stroke-linecap:square;"/>
   </g>
   <g id="line2d_193">
    <path clip-path="url(#p5719f18d00)" d="M 44.52 155.427828 
L 78.372 150.917501 
L 112.224 141.814375 
L 146.076 118.242525 
L 179.928 106.05739 
L 213.78 116.26156 
" style="fill:none;opacity:0.05;stroke:#000000;stroke-linecap:square;"/>
   </g>
   <g id="line2d_194">
    <path clip-path="url(#p5719f18d00)" d="M 44.52 155.890422 
L 78.372 153.20598 
L 112.224 147.610285 
L 146.076 124.216667 
L 179.928 85.694891 
L 213.78 65.877587 
" style="fill:none;opacity:0.05;stroke:#000000;stroke-linecap:square;"/>
   </g>
   <g id="line2d_195">
    <path clip-path="url(#p5719f18d00)" d="M 44.52 155.588008 
L 78.372 152.607911 
L 112.224 146.963847 
L 146.076 130.6337 
L 179.928 105.228267 
L 213.78 98.174509 
" style="fill:none;opacity:0.05;stroke:#000000;stroke-linecap:square;"/>
   </g>
   <g id="line2d_196">
    <path clip-path="url(#p5719f18d00)" d="M 44.52 155.683609 
L 78.372 152.936026 
L 112.224 146.547221 
L 146.076 129.925163 
L 179.928 108.091124 
L 213.78 86.07576 
" style="fill:none;opacity:0.05;stroke:#000000;stroke-linecap:square;"/>
   </g>
   <g id="line2d_197">
    <path clip-path="url(#p5719f18d00)" d="M 44.52 155.630506 
L 78.372 152.615697 
L 112.224 147.976802 
L 146.076 132.4162 
L 179.928 116.554525 
L 213.78 123.535675 
" style="fill:none;opacity:0.05;stroke:#000000;stroke-linecap:square;"/>
   </g>
   <g id="line2d_198">
    <path clip-path="url(#p5719f18d00)" d="M 44.52 155.958051 
L 78.372 153.465003 
L 112.224 149.217075 
L 146.076 128.609201 
L 179.928 102.844131 
L 213.78 103.771567 
" style="fill:none;opacity:0.05;stroke:#000000;stroke-linecap:square;"/>
   </g>
   <g id="line2d_199">
    <path clip-path="url(#p5719f18d00)" d="M 44.52 155.779106 
L 78.372 152.100157 
L 112.224 144.845255 
L 146.076 126.643804 
L 179.928 116.818839 
L 213.78 129.271971 
" style="fill:none;opacity:0.05;stroke:#000000;stroke-linecap:square;"/>
   </g>
   <g id="line2d_200">
    <path clip-path="url(#p5719f18d00)" d="M 44.52 154.731224 
L 78.372 150.309995 
L 112.224 141.738495 
L 146.076 129.49986 
L 179.928 125.042544 
L 213.78 126.342609 
" style="fill:none;opacity:0.05;stroke:#000000;stroke-linecap:square;"/>
   </g>
   <g id="line2d_201">
    <path clip-path="url(#p5719f18d00)" d="M 44.52 155.234013 
L 78.372 150.882916 
L 112.224 140.751427 
L 146.076 117.786276 
L 179.928 92.732822 
L 213.78 80.249754 
" style="fill:none;opacity:0.05;stroke:#000000;stroke-linecap:square;"/>
   </g>
   <g id="line2d_202">
    <path clip-path="url(#p5719f18d00)" d="M 44.52 155.609782 
L 78.372 152.727504 
L 112.224 145.779497 
L 146.076 129.612502 
L 179.928 109.223041 
L 213.78 86.124419 
" style="fill:none;opacity:0.05;stroke:#000000;stroke-linecap:square;"/>
   </g>
   <g id="line2d_203">
    <path clip-path="url(#p5719f18d00)" d="M 44.52 155.050926 
L 78.372 151.751978 
L 112.224 145.385538 
L 146.076 128.092112 
L 179.928 100.236268 
L 213.78 75.000996 
" style="fill:none;opacity:0.05;stroke:#000000;stroke-linecap:square;"/>
   </g>
   <g id="line2d_204">
    <path clip-path="url(#p5719f18d00)" d="M 44.52 156.081233 
L 78.372 152.980049 
L 112.224 146.503659 
L 146.076 126.998271 
L 179.928 103.952187 
L 213.78 120.596412 
" style="fill:none;opacity:0.05;stroke:#000000;stroke-linecap:square;"/>
   </g>
   <g id="line2d_205">
    <path clip-path="url(#p5719f18d00)" d="M 44.52 155.461275 
L 78.372 151.93416 
L 112.224 143.704529 
L 146.076 125.767748 
L 179.928 101.583849 
L 213.78 86.406203 
" style="fill:none;opacity:0.05;stroke:#000000;stroke-linecap:square;"/>
   </g>
   <g id="line2d_206">
    <path clip-path="url(#p5719f18d00)" d="M 44.52 154.7648 
L 78.372 152.136139 
L 112.224 148.361033 
L 146.076 133.5234 
L 179.928 99.323331 
L 213.78 67.976391 
" style="fill:none;opacity:0.05;stroke:#000000;stroke-linecap:square;"/>
   </g>
   <g id="line2d_207">
    <path clip-path="url(#p5719f18d00)" d="M 44.52 155.690985 
L 78.372 152.21596 
L 112.224 146.378639 
L 146.076 126.621637 
L 179.928 114.666284 
L 213.78 126.180122 
" style="fill:none;opacity:0.05;stroke:#000000;stroke-linecap:square;"/>
   </g>
   <g id="line2d_208">
    <path clip-path="url(#p5719f18d00)" d="M 44.52 155.517176 
L 78.372 152.691155 
L 112.224 148.868256 
L 146.076 134.945182 
L 179.928 117.981772 
L 213.78 123.496515 
" style="fill:none;opacity:0.05;stroke:#000000;stroke-linecap:square;"/>
   </g>
   <g id="line2d_209">
    <path clip-path="url(#p5719f18d00)" d="M 44.52 156.414875 
L 78.372 153.406447 
L 112.224 142.667607 
L 146.076 104.589896 
L 179.928 48.123757 
L 213.78 68.794875 
" style="fill:none;opacity:0.05;stroke:#000000;stroke-linecap:square;"/>
   </g>
   <g id="line2d_210">
    <path clip-path="url(#p5719f18d00)" d="M 44.52 155.38701 
L 78.372 153.083374 
L 112.224 148.070597 
L 146.076 136.674401 
L 179.928 118.24929 
L 213.78 87.752555 
" style="fill:none;opacity:0.05;stroke:#000000;stroke-linecap:square;"/>
   </g>
   <g id="line2d_211">
    <path clip-path="url(#p5719f18d00)" d="M 44.52 156.213844 
L 78.372 153.03548 
L 112.224 146.403365 
L 146.076 117.67136 
L 179.928 92.611826 
L 213.78 120.060352 
" style="fill:none;opacity:0.05;stroke:#000000;stroke-linecap:square;"/>
   </g>
   <g id="line2d_212">
    <path clip-path="url(#p5719f18d00)" d="M 47.775 156.475547 
L 47.775 149.747362 
L 47.775 156.615721 
L 47.775 151.663972 
L 47.775 155.475916 
L 47.775 153.798522 
L 47.775 155.592029 
" style="fill:none;opacity:0.5;stroke:#1f77b4;stroke-linecap:square;"/>
    <defs>
     <path d="M 0 1.5 
C 0.397805 1.5 0.77937 1.341951 1.06066 1.06066 
C 1.341951 0.77937 1.5 0.397805 1.5 0 
C 1.5 -0.397805 1.341951 -0.77937 1.06066 -1.06066 
C 0.77937 -1.341951 0.397805 -1.5 0 -1.5 
C -0.397805 -1.5 -0.77937 -1.341951 -1.06066 -1.06066 
C -1.341951 -0.77937 -1.5 -0.397805 -1.5 0 
C -1.5 0.397805 -1.341951 0.77937 -1.06066 1.06066 
C -0.77937 1.341951 -0.397805 1.5 0 1.5 
z
" id="m1cc290e99d" style="stroke:#1f77b4;"/>
    </defs>
    <g clip-path="url(#p5719f18d00)">
     <use style="fill:#1f77b4;opacity:0.5;stroke:#1f77b4;" x="47.775" xlink:href="#m1cc290e99d" y="156.475547"/>
     <use style="fill:#1f77b4;opacity:0.5;stroke:#1f77b4;" x="47.775" xlink:href="#m1cc290e99d" y="149.747362"/>
     <use style="fill:#1f77b4;opacity:0.5;stroke:#1f77b4;" x="47.775" xlink:href="#m1cc290e99d" y="156.615721"/>
     <use style="fill:#1f77b4;opacity:0.5;stroke:#1f77b4;" x="47.775" xlink:href="#m1cc290e99d" y="151.663972"/>
     <use style="fill:#1f77b4;opacity:0.5;stroke:#1f77b4;" x="47.775" xlink:href="#m1cc290e99d" y="155.475916"/>
     <use style="fill:#1f77b4;opacity:0.5;stroke:#1f77b4;" x="47.775" xlink:href="#m1cc290e99d" y="153.798522"/>
     <use style="fill:#1f77b4;opacity:0.5;stroke:#1f77b4;" x="47.775" xlink:href="#m1cc290e99d" y="155.592029"/>
    </g>
   </g>
   <g id="line2d_213">
    <path clip-path="url(#p5719f18d00)" d="M 80.325 156.475547 
L 80.325 149.747362 
L 80.325 156.615721 
L 80.325 143.930661 
L 80.325 154.13232 
L 80.325 153.798522 
L 80.325 153.137064 
" style="fill:none;opacity:0.5;stroke:#ff7f0e;stroke-linecap:square;"/>
    <defs>
     <path d="M 0 1.5 
C 0.397805 1.5 0.77937 1.341951 1.06066 1.06066 
C 1.341951 0.77937 1.5 0.397805 1.5 0 
C 1.5 -0.397805 1.341951 -0.77937 1.06066 -1.06066 
C 0.77937 -1.341951 0.397805 -1.5 0 -1.5 
C -0.397805 -1.5 -0.77937 -1.341951 -1.06066 -1.06066 
C -1.341951 -0.77937 -1.5 -0.397805 -1.5 0 
C -1.5 0.397805 -1.341951 0.77937 -1.06066 1.06066 
C -0.77937 1.341951 -0.397805 1.5 0 1.5 
z
" id="mec88bb878c" style="stroke:#ff7f0e;"/>
    </defs>
    <g clip-path="url(#p5719f18d00)">
     <use style="fill:#ff7f0e;opacity:0.5;stroke:#ff7f0e;" x="80.325" xlink:href="#mec88bb878c" y="156.475547"/>
     <use style="fill:#ff7f0e;opacity:0.5;stroke:#ff7f0e;" x="80.325" xlink:href="#mec88bb878c" y="149.747362"/>
     <use style="fill:#ff7f0e;opacity:0.5;stroke:#ff7f0e;" x="80.325" xlink:href="#mec88bb878c" y="156.615721"/>
     <use style="fill:#ff7f0e;opacity:0.5;stroke:#ff7f0e;" x="80.325" xlink:href="#mec88bb878c" y="143.930661"/>
     <use style="fill:#ff7f0e;opacity:0.5;stroke:#ff7f0e;" x="80.325" xlink:href="#mec88bb878c" y="154.13232"/>
     <use style="fill:#ff7f0e;opacity:0.5;stroke:#ff7f0e;" x="80.325" xlink:href="#mec88bb878c" y="153.798522"/>
     <use style="fill:#ff7f0e;opacity:0.5;stroke:#ff7f0e;" x="80.325" xlink:href="#mec88bb878c" y="153.137064"/>
    </g>
   </g>
   <g id="line2d_214">
    <path clip-path="url(#p5719f18d00)" d="M 112.875 156.131582 
L 112.875 149.747362 
L 112.875 156.41193 
L 112.875 156.303958 
L 112.875 140.696359 
L 112.875 150.777532 
L 112.875 155.592029 
" style="fill:none;opacity:0.5;stroke:#2ca02c;stroke-linecap:square;"/>
    <defs>
     <path d="M 0 1.5 
C 0.397805 1.5 0.77937 1.341951 1.06066 1.06066 
C 1.341951 0.77937 1.5 0.397805 1.5 0 
C 1.5 -0.397805 1.341951 -0.77937 1.06066 -1.06066 
C 0.77937 -1.341951 0.397805 -1.5 0 -1.5 
C -0.397805 -1.5 -0.77937 -1.341951 -1.06066 -1.06066 
C -1.341951 -0.77937 -1.5 -0.397805 -1.5 0 
C -1.5 0.397805 -1.341951 0.77937 -1.06066 1.06066 
C -0.77937 1.341951 -0.397805 1.5 0 1.5 
z
" id="ma36eecf0bf" style="stroke:#2ca02c;"/>
    </defs>
    <g clip-path="url(#p5719f18d00)">
     <use style="fill:#2ca02c;opacity:0.5;stroke:#2ca02c;" x="112.875" xlink:href="#ma36eecf0bf" y="156.131582"/>
     <use style="fill:#2ca02c;opacity:0.5;stroke:#2ca02c;" x="112.875" xlink:href="#ma36eecf0bf" y="149.747362"/>
     <use style="fill:#2ca02c;opacity:0.5;stroke:#2ca02c;" x="112.875" xlink:href="#ma36eecf0bf" y="156.41193"/>
     <use style="fill:#2ca02c;opacity:0.5;stroke:#2ca02c;" x="112.875" xlink:href="#ma36eecf0bf" y="156.303958"/>
     <use style="fill:#2ca02c;opacity:0.5;stroke:#2ca02c;" x="112.875" xlink:href="#ma36eecf0bf" y="140.696359"/>
     <use style="fill:#2ca02c;opacity:0.5;stroke:#2ca02c;" x="112.875" xlink:href="#ma36eecf0bf" y="150.777532"/>
     <use style="fill:#2ca02c;opacity:0.5;stroke:#2ca02c;" x="112.875" xlink:href="#ma36eecf0bf" y="155.592029"/>
    </g>
   </g>
   <g id="line2d_215">
    <path clip-path="url(#p5719f18d00)" d="M 145.425 140.997123 
L 145.425 149.747362 
L 145.425 139.293472 
L 145.425 144.961769 
L 145.425 116.511629 
L 145.425 147.756542 
L 145.425 41.436123 
" style="fill:none;opacity:0.5;stroke:#d62728;stroke-linecap:square;"/>
    <defs>
     <path d="M 0 1.5 
C 0.397805 1.5 0.77937 1.341951 1.06066 1.06066 
C 1.341951 0.77937 1.5 0.397805 1.5 0 
C 1.5 -0.397805 1.341951 -0.77937 1.06066 -1.06066 
C 0.77937 -1.341951 0.397805 -1.5 0 -1.5 
C -0.397805 -1.5 -0.77937 -1.341951 -1.06066 -1.06066 
C -1.341951 -0.77937 -1.5 -0.397805 -1.5 0 
C -1.5 0.397805 -1.341951 0.77937 -1.06066 1.06066 
C -0.77937 1.341951 -0.397805 1.5 0 1.5 
z
" id="md38a10a114" style="stroke:#d62728;"/>
    </defs>
    <g clip-path="url(#p5719f18d00)">
     <use style="fill:#d62728;opacity:0.5;stroke:#d62728;" x="145.425" xlink:href="#md38a10a114" y="140.997123"/>
     <use style="fill:#d62728;opacity:0.5;stroke:#d62728;" x="145.425" xlink:href="#md38a10a114" y="149.747362"/>
     <use style="fill:#d62728;opacity:0.5;stroke:#d62728;" x="145.425" xlink:href="#md38a10a114" y="139.293472"/>
     <use style="fill:#d62728;opacity:0.5;stroke:#d62728;" x="145.425" xlink:href="#md38a10a114" y="144.961769"/>
     <use style="fill:#d62728;opacity:0.5;stroke:#d62728;" x="145.425" xlink:href="#md38a10a114" y="116.511629"/>
     <use style="fill:#d62728;opacity:0.5;stroke:#d62728;" x="145.425" xlink:href="#md38a10a114" y="147.756542"/>
     <use style="fill:#d62728;opacity:0.5;stroke:#d62728;" x="145.425" xlink:href="#md38a10a114" y="41.436123"/>
    </g>
   </g>
   <g id="line2d_216">
    <path clip-path="url(#p5719f18d00)" d="M 177.975 98.689431 
L 177.975 71.95371 
L 177.975 152.94748 
L 177.975 142.899553 
L 177.975 128.603994 
L 177.975 45.042882 
L 177.975 26.706329 
" style="fill:none;opacity:0.5;stroke:#9467bd;stroke-linecap:square;"/>
    <defs>
     <path d="M 0 1.5 
C 0.397805 1.5 0.77937 1.341951 1.06066 1.06066 
C 1.341951 0.77937 1.5 0.397805 1.5 0 
C 1.5 -0.397805 1.341951 -0.77937 1.06066 -1.06066 
C 0.77937 -1.341951 0.397805 -1.5 0 -1.5 
C -0.397805 -1.5 -0.77937 -1.341951 -1.06066 -1.06066 
C -1.341951 -0.77937 -1.5 -0.397805 -1.5 0 
C -1.5 0.397805 -1.341951 0.77937 -1.06066 1.06066 
C -0.77937 1.341951 -0.397805 1.5 0 1.5 
z
" id="m5b4ab220a5" style="stroke:#9467bd;"/>
    </defs>
    <g clip-path="url(#p5719f18d00)">
     <use style="fill:#9467bd;opacity:0.5;stroke:#9467bd;" x="177.975" xlink:href="#m5b4ab220a5" y="98.689431"/>
     <use style="fill:#9467bd;opacity:0.5;stroke:#9467bd;" x="177.975" xlink:href="#m5b4ab220a5" y="71.95371"/>
     <use style="fill:#9467bd;opacity:0.5;stroke:#9467bd;" x="177.975" xlink:href="#m5b4ab220a5" y="152.94748"/>
     <use style="fill:#9467bd;opacity:0.5;stroke:#9467bd;" x="177.975" xlink:href="#m5b4ab220a5" y="142.899553"/>
     <use style="fill:#9467bd;opacity:0.5;stroke:#9467bd;" x="177.975" xlink:href="#m5b4ab220a5" y="128.603994"/>
     <use style="fill:#9467bd;opacity:0.5;stroke:#9467bd;" x="177.975" xlink:href="#m5b4ab220a5" y="45.042882"/>
     <use style="fill:#9467bd;opacity:0.5;stroke:#9467bd;" x="177.975" xlink:href="#m5b4ab220a5" y="26.706329"/>
    </g>
   </g>
   <g id="line2d_217">
    <path clip-path="url(#p5719f18d00)" d="M 210.525 136.869543 
L 210.525 86.09801 
L 210.525 155.800556 
L 210.525 149.086202 
L 210.525 154.13232 
L 210.525 42.021892 
L 210.525 58.620883 
" style="fill:none;opacity:0.5;stroke:#8c564b;stroke-linecap:square;"/>
    <defs>
     <path d="M 0 1.5 
C 0.397805 1.5 0.77937 1.341951 1.06066 1.06066 
C 1.341951 0.77937 1.5 0.397805 1.5 0 
C 1.5 -0.397805 1.341951 -0.77937 1.06066 -1.06066 
C 0.77937 -1.341951 0.397805 -1.5 0 -1.5 
C -0.397805 -1.5 -0.77937 -1.341951 -1.06066 -1.06066 
C -1.341951 -0.77937 -1.5 -0.397805 -1.5 0 
C -1.5 0.397805 -1.341951 0.77937 -1.06066 1.06066 
C -0.77937 1.341951 -0.397805 1.5 0 1.5 
z
" id="m5bf1eb13bd" style="stroke:#8c564b;"/>
    </defs>
    <g clip-path="url(#p5719f18d00)">
     <use style="fill:#8c564b;opacity:0.5;stroke:#8c564b;" x="210.525" xlink:href="#m5bf1eb13bd" y="136.869543"/>
     <use style="fill:#8c564b;opacity:0.5;stroke:#8c564b;" x="210.525" xlink:href="#m5bf1eb13bd" y="86.09801"/>
     <use style="fill:#8c564b;opacity:0.5;stroke:#8c564b;" x="210.525" xlink:href="#m5bf1eb13bd" y="155.800556"/>
     <use style="fill:#8c564b;opacity:0.5;stroke:#8c564b;" x="210.525" xlink:href="#m5bf1eb13bd" y="149.086202"/>
     <use style="fill:#8c564b;opacity:0.5;stroke:#8c564b;" x="210.525" xlink:href="#m5bf1eb13bd" y="154.13232"/>
     <use style="fill:#8c564b;opacity:0.5;stroke:#8c564b;" x="210.525" xlink:href="#m5bf1eb13bd" y="42.021892"/>
     <use style="fill:#8c564b;opacity:0.5;stroke:#8c564b;" x="210.525" xlink:href="#m5bf1eb13bd" y="58.620883"/>
    </g>
   </g>
   <g id="line2d_218">
    <path clip-path="url(#p5719f18d00)" d="M 44.52 155.910825 
L 78.372 153.4794 
L 112.224 148.581063 
L 146.076 132.566054 
L 179.928 110.541789 
L 213.78 102.947249 
" style="fill:none;stroke:#000000;stroke-dasharray:7.4,3.2;stroke-dashoffset:0;stroke-width:2;"/>
   </g>
   <g id="line2d_219">
    <path clip-path="url(#p5719f18d00)" d="M 44.52 155.578084 
L 78.372 152.194126 
L 112.224 146.052165 
L 146.076 127.362063 
L 179.928 108.486669 
L 213.78 112.085306 
" style="fill:none;stroke:#ff0000;stroke-linecap:square;stroke-width:2;"/>
   </g>
   <g id="line2d_220">
    <path clip-path="url(#p5719f18d00)" d="M 47.775 149.538841 
L 80.325 142.773627 
L 112.875 134.975357 
L 145.425 125.336208 
L 177.975 122.289139 
L 210.525 116.950233 
" style="fill:none;stroke:#0000ff;stroke-dasharray:2,3.3;stroke-dashoffset:0;stroke-width:2;"/>
    <defs>
     <path d="M 0 -3 
L -0.673542 -0.927051 
L -2.85317 -0.927051 
L -1.089814 0.354102 
L -1.763356 2.427051 
L -0 1.145898 
L 1.763356 2.427051 
L 1.089814 0.354102 
L 2.85317 -0.927051 
L 0.673542 -0.927051 
z
" id="m770edc9986" style="stroke:#0000ff;stroke-linejoin:bevel;"/>
    </defs>
    <g clip-path="url(#p5719f18d00)">
     <use style="fill:#0000ff;stroke:#0000ff;stroke-linejoin:bevel;" x="47.775" xlink:href="#m770edc9986" y="149.538841"/>
     <use style="fill:#0000ff;stroke:#0000ff;stroke-linejoin:bevel;" x="80.325" xlink:href="#m770edc9986" y="142.773627"/>
     <use style="fill:#0000ff;stroke:#0000ff;stroke-linejoin:bevel;" x="112.875" xlink:href="#m770edc9986" y="134.975357"/>
     <use style="fill:#0000ff;stroke:#0000ff;stroke-linejoin:bevel;" x="145.425" xlink:href="#m770edc9986" y="125.336208"/>
     <use style="fill:#0000ff;stroke:#0000ff;stroke-linejoin:bevel;" x="177.975" xlink:href="#m770edc9986" y="122.289139"/>
     <use style="fill:#0000ff;stroke:#0000ff;stroke-linejoin:bevel;" x="210.525" xlink:href="#m770edc9986" y="116.950233"/>
    </g>
   </g>
   <g id="patch_3">
    <path d="M 31.5 160.2 
L 31.5 21.6 
" style="fill:none;stroke:#000000;stroke-linecap:square;stroke-linejoin:miter;stroke-width:0.8;"/>
   </g>
   <g id="patch_4">
    <path d="M 226.8 160.2 
L 226.8 21.6 
" style="fill:none;stroke:#000000;stroke-linecap:square;stroke-linejoin:miter;stroke-width:0.8;"/>
   </g>
   <g id="patch_5">
    <path d="M 31.5 160.2 
L 226.8 160.2 
" style="fill:none;stroke:#000000;stroke-linecap:square;stroke-linejoin:miter;stroke-width:0.8;"/>
   </g>
   <g id="patch_6">
    <path d="M 31.5 21.6 
L 226.8 21.6 
" style="fill:none;stroke:#000000;stroke-linecap:square;stroke-linejoin:miter;stroke-width:0.8;"/>
   </g>
   <g id="legend_1">
    <g id="line2d_221">
     <path d="M 38.997 32.510998 
L 55.657 32.510998 
" style="fill:none;stroke:#000000;stroke-dasharray:7.4,3.2;stroke-dashoffset:0;stroke-width:2;"/>
    </g>
    <g id="line2d_222"/>
    <g id="text_14">
     <!-- NCBM -->
     <defs>
      <path d="M 9.8125 72.90625 
L 23.09375 72.90625 
L 55.421875 11.921875 
L 55.421875 72.90625 
L 64.984375 72.90625 
L 64.984375 0 
L 51.703125 0 
L 19.390625 60.984375 
L 19.390625 0 
L 9.8125 0 
z
" id="DejaVuSans-4e"/>
      <path d="M 64.40625 67.28125 
L 64.40625 56.890625 
Q 59.421875 61.53125 53.78125 63.8125 
Q 48.140625 66.109375 41.796875 66.109375 
Q 29.296875 66.109375 22.65625 58.46875 
Q 16.015625 50.828125 16.015625 36.375 
Q 16.015625 21.96875 22.65625 14.328125 
Q 29.296875 6.6875 41.796875 6.6875 
Q 48.140625 6.6875 53.78125 8.984375 
Q 59.421875 11.28125 64.40625 15.921875 
L 64.40625 5.609375 
Q 59.234375 2.09375 53.4375 0.328125 
Q 47.65625 -1.421875 41.21875 -1.421875 
Q 24.65625 -1.421875 15.125 8.703125 
Q 5.609375 18.84375 5.609375 36.375 
Q 5.609375 53.953125 15.125 64.078125 
Q 24.65625 74.21875 41.21875 74.21875 
Q 47.75 74.21875 53.53125 72.484375 
Q 59.328125 70.75 64.40625 67.28125 
z
" id="DejaVuSans-43"/>
      <path d="M 19.671875 34.8125 
L 19.671875 8.109375 
L 35.5 8.109375 
Q 43.453125 8.109375 47.28125 11.40625 
Q 51.125 14.703125 51.125 21.484375 
Q 51.125 28.328125 47.28125 31.5625 
Q 43.453125 34.8125 35.5 34.8125 
z
M 19.671875 64.796875 
L 19.671875 42.828125 
L 34.28125 42.828125 
Q 41.5 42.828125 45.03125 45.53125 
Q 48.578125 48.25 48.578125 53.8125 
Q 48.578125 59.328125 45.03125 62.0625 
Q 41.5 64.796875 34.28125 64.796875 
z
M 9.8125 72.90625 
L 35.015625 72.90625 
Q 46.296875 72.90625 52.390625 68.21875 
Q 58.5 63.53125 58.5 54.890625 
Q 58.5 48.1875 55.375 44.234375 
Q 52.25 40.28125 46.1875 39.3125 
Q 53.46875 37.75 57.5 32.78125 
Q 61.53125 27.828125 61.53125 20.40625 
Q 61.53125 10.640625 54.890625 5.3125 
Q 48.25 0 35.984375 0 
L 9.8125 0 
z
" id="DejaVuSans-42"/>
      <path d="M 9.8125 72.90625 
L 24.515625 72.90625 
L 43.109375 23.296875 
L 61.8125 72.90625 
L 76.515625 72.90625 
L 76.515625 0 
L 66.890625 0 
L 66.890625 64.015625 
L 48.09375 14.015625 
L 38.1875 14.015625 
L 19.390625 64.015625 
L 19.390625 0 
L 9.8125 0 
z
" id="DejaVuSans-4d"/>
     </defs>
     <g transform="translate(62.321 35.426498)scale(0.0833 -0.0833)">
      <use xlink:href="#DejaVuSans-4e"/>
      <use x="74.804688" xlink:href="#DejaVuSans-43"/>
      <use x="144.628906" xlink:href="#DejaVuSans-42"/>
      <use x="213.232422" xlink:href="#DejaVuSans-4d"/>
     </g>
    </g>
    <g id="line2d_223">
     <path d="M 38.997 44.737877 
L 55.657 44.737877 
" style="fill:none;stroke:#ff0000;stroke-linecap:square;stroke-width:2;"/>
    </g>
    <g id="line2d_224"/>
    <g id="text_15">
     <!-- CBM -->
     <g transform="translate(62.321 47.653377)scale(0.0833 -0.0833)">
      <use xlink:href="#DejaVuSans-43"/>
      <use x="69.824219" xlink:href="#DejaVuSans-42"/>
      <use x="138.427734" xlink:href="#DejaVuSans-4d"/>
     </g>
    </g>
    <g id="line2d_225">
     <path d="M 38.997 56.964755 
L 55.657 56.964755 
" style="fill:none;stroke:#0000ff;stroke-dasharray:2,3.3;stroke-dashoffset:0;stroke-width:2;"/>
    </g>
    <g id="line2d_226">
     <g>
      <use style="fill:#0000ff;stroke:#0000ff;stroke-linejoin:bevel;" x="47.327" xlink:href="#m770edc9986" y="56.964755"/>
     </g>
    </g>
    <g id="text_16">
     <!-- PLSR -->
     <defs>
      <path d="M 19.671875 64.796875 
L 19.671875 37.40625 
L 32.078125 37.40625 
Q 38.96875 37.40625 42.71875 40.96875 
Q 46.484375 44.53125 46.484375 51.125 
Q 46.484375 57.671875 42.71875 61.234375 
Q 38.96875 64.796875 32.078125 64.796875 
z
M 9.8125 72.90625 
L 32.078125 72.90625 
Q 44.34375 72.90625 50.609375 67.359375 
Q 56.890625 61.8125 56.890625 51.125 
Q 56.890625 40.328125 50.609375 34.8125 
Q 44.34375 29.296875 32.078125 29.296875 
L 19.671875 29.296875 
L 19.671875 0 
L 9.8125 0 
z
" id="DejaVuSans-50"/>
      <path d="M 9.8125 72.90625 
L 19.671875 72.90625 
L 19.671875 8.296875 
L 55.171875 8.296875 
L 55.171875 0 
L 9.8125 0 
z
" id="DejaVuSans-4c"/>
      <path d="M 53.515625 70.515625 
L 53.515625 60.890625 
Q 47.90625 63.578125 42.921875 64.890625 
Q 37.9375 66.21875 33.296875 66.21875 
Q 25.25 66.21875 20.875 63.09375 
Q 16.5 59.96875 16.5 54.203125 
Q 16.5 49.359375 19.40625 46.890625 
Q 22.3125 44.4375 30.421875 42.921875 
L 36.375 41.703125 
Q 47.40625 39.59375 52.65625 34.296875 
Q 57.90625 29 57.90625 20.125 
Q 57.90625 9.515625 50.796875 4.046875 
Q 43.703125 -1.421875 29.984375 -1.421875 
Q 24.8125 -1.421875 18.96875 -0.25 
Q 13.140625 0.921875 6.890625 3.21875 
L 6.890625 13.375 
Q 12.890625 10.015625 18.65625 8.296875 
Q 24.421875 6.59375 29.984375 6.59375 
Q 38.421875 6.59375 43.015625 9.90625 
Q 47.609375 13.234375 47.609375 19.390625 
Q 47.609375 24.75 44.3125 27.78125 
Q 41.015625 30.8125 33.5 32.328125 
L 27.484375 33.5 
Q 16.453125 35.6875 11.515625 40.375 
Q 6.59375 45.0625 6.59375 53.421875 
Q 6.59375 63.09375 13.40625 68.65625 
Q 20.21875 74.21875 32.171875 74.21875 
Q 37.3125 74.21875 42.625 73.28125 
Q 47.953125 72.359375 53.515625 70.515625 
z
" id="DejaVuSans-53"/>
      <path d="M 44.390625 34.1875 
Q 47.5625 33.109375 50.5625 29.59375 
Q 53.5625 26.078125 56.59375 19.921875 
L 66.609375 0 
L 56 0 
L 46.6875 18.703125 
Q 43.0625 26.03125 39.671875 28.421875 
Q 36.28125 30.8125 30.421875 30.8125 
L 19.671875 30.8125 
L 19.671875 0 
L 9.8125 0 
L 9.8125 72.90625 
L 32.078125 72.90625 
Q 44.578125 72.90625 50.734375 67.671875 
Q 56.890625 62.453125 56.890625 51.90625 
Q 56.890625 45.015625 53.6875 40.46875 
Q 50.484375 35.9375 44.390625 34.1875 
z
M 19.671875 64.796875 
L 19.671875 38.921875 
L 32.078125 38.921875 
Q 39.203125 38.921875 42.84375 42.21875 
Q 46.484375 45.515625 46.484375 51.90625 
Q 46.484375 58.296875 42.84375 61.546875 
Q 39.203125 64.796875 32.078125 64.796875 
z
" id="DejaVuSans-52"/>
     </defs>
     <g transform="translate(62.321 59.880255)scale(0.0833 -0.0833)">
      <use xlink:href="#DejaVuSans-50"/>
      <use x="60.302734" xlink:href="#DejaVuSans-4c"/>
      <use x="116.015625" xlink:href="#DejaVuSans-53"/>
      <use x="179.492188" xlink:href="#DejaVuSans-52"/>
     </g>
    </g>
   </g>
  </g>
 </g>
 <defs>
  <clipPath id="p5719f18d00">
   <rect height="138.6" width="195.3" x="31.5" y="21.6"/>
  </clipPath>
 </defs>
</svg>
