<?xml version="1.0" encoding="utf-8" standalone="no"?>
<!DOCTYPE svg PUBLIC "-//W3C//DTD SVG 1.1//EN"
  "http://www.w3.org/Graphics/SVG/1.1/DTD/svg11.dtd">
<!-- Created with matplotlib (http://matplotlib.org/) -->
<svg height="180pt" version="1.1" viewBox="0 0 252 180" width="252pt" xmlns="http://www.w3.org/2000/svg" xmlns:xlink="http://www.w3.org/1999/xlink">
 <defs>
  <style type="text/css">
*{stroke-linecap:butt;stroke-linejoin:round;}
  </style>
 </defs>
 <g id="figure_1">
  <g id="patch_1">
   <path d="M 0 180 
L 252 180 
L 252 0 
L 0 0 
z
" style="fill:#ffffff;"/>
  </g>
  <g id="axes_1">
   <g id="patch_2">
    <path d="M 31.5 160.2 
L 226.8 160.2 
L 226.8 21.6 
L 31.5 21.6 
z
" style="fill:#ffffff;"/>
   </g>
   <g id="matplotlib.axis_1">
    <g id="xtick_1">
     <g id="line2d_1">
      <defs>
       <path d="M 0 0 
L 0 3.5 
" id="md1532ec7b9" style="stroke:#000000;stroke-width:0.8;"/>
      </defs>
      <g>
       <use style="stroke:#000000;stroke-width:0.8;" x="47.775" xlink:href="#md1532ec7b9" y="160.2"/>
      </g>
     </g>
     <g id="text_1">
      <!-- 1 -->
      <defs>
       <path d="M 12.40625 8.296875 
L 28.515625 8.296875 
L 28.515625 63.921875 
L 10.984375 60.40625 
L 10.984375 69.390625 
L 28.421875 72.90625 
L 38.28125 72.90625 
L 38.28125 8.296875 
L 54.390625 8.296875 
L 54.390625 0 
L 12.40625 0 
z
" id="DejaVuSans-31"/>
      </defs>
      <g transform="translate(44.59375 174.798438)scale(0.1 -0.1)">
       <use xlink:href="#DejaVuSans-31"/>
      </g>
     </g>
    </g>
    <g id="xtick_2">
     <g id="line2d_2">
      <g>
       <use style="stroke:#000000;stroke-width:0.8;" x="80.325" xlink:href="#md1532ec7b9" y="160.2"/>
      </g>
     </g>
     <g id="text_2">
      <!-- 2 -->
      <defs>
       <path d="M 19.1875 8.296875 
L 53.609375 8.296875 
L 53.609375 0 
L 7.328125 0 
L 7.328125 8.296875 
Q 12.9375 14.109375 22.625 23.890625 
Q 32.328125 33.6875 34.8125 36.53125 
Q 39.546875 41.84375 41.421875 45.53125 
Q 43.3125 49.21875 43.3125 52.78125 
Q 43.3125 58.59375 39.234375 62.25 
Q 35.15625 65.921875 28.609375 65.921875 
Q 23.96875 65.921875 18.8125 64.3125 
Q 13.671875 62.703125 7.8125 59.421875 
L 7.8125 69.390625 
Q 13.765625 71.78125 18.9375 73 
Q 24.125 74.21875 28.421875 74.21875 
Q 39.75 74.21875 46.484375 68.546875 
Q 53.21875 62.890625 53.21875 53.421875 
Q 53.21875 48.921875 51.53125 44.890625 
Q 49.859375 40.875 45.40625 35.40625 
Q 44.1875 33.984375 37.640625 27.21875 
Q 31.109375 20.453125 19.1875 8.296875 
z
" id="DejaVuSans-32"/>
      </defs>
      <g transform="translate(77.14375 174.798438)scale(0.1 -0.1)">
       <use xlink:href="#DejaVuSans-32"/>
      </g>
     </g>
    </g>
    <g id="xtick_3">
     <g id="line2d_3">
      <g>
       <use style="stroke:#000000;stroke-width:0.8;" x="112.875" xlink:href="#md1532ec7b9" y="160.2"/>
      </g>
     </g>
     <g id="text_3">
      <!-- 3 -->
      <defs>
       <path d="M 40.578125 39.3125 
Q 47.65625 37.796875 51.625 33 
Q 55.609375 28.21875 55.609375 21.1875 
Q 55.609375 10.40625 48.1875 4.484375 
Q 40.765625 -1.421875 27.09375 -1.421875 
Q 22.515625 -1.421875 17.65625 -0.515625 
Q 12.796875 0.390625 7.625 2.203125 
L 7.625 11.71875 
Q 11.71875 9.328125 16.59375 8.109375 
Q 21.484375 6.890625 26.8125 6.890625 
Q 36.078125 6.890625 40.9375 10.546875 
Q 45.796875 14.203125 45.796875 21.1875 
Q 45.796875 27.640625 41.28125 31.265625 
Q 36.765625 34.90625 28.71875 34.90625 
L 20.21875 34.90625 
L 20.21875 43.015625 
L 29.109375 43.015625 
Q 36.375 43.015625 40.234375 45.921875 
Q 44.09375 48.828125 44.09375 54.296875 
Q 44.09375 59.90625 40.109375 62.90625 
Q 36.140625 65.921875 28.71875 65.921875 
Q 24.65625 65.921875 20.015625 65.03125 
Q 15.375 64.15625 9.8125 62.3125 
L 9.8125 71.09375 
Q 15.4375 72.65625 20.34375 73.4375 
Q 25.25 74.21875 29.59375 74.21875 
Q 40.828125 74.21875 47.359375 69.109375 
Q 53.90625 64.015625 53.90625 55.328125 
Q 53.90625 49.265625 50.4375 45.09375 
Q 46.96875 40.921875 40.578125 39.3125 
z
" id="DejaVuSans-33"/>
      </defs>
      <g transform="translate(109.69375 174.798438)scale(0.1 -0.1)">
       <use xlink:href="#DejaVuSans-33"/>
      </g>
     </g>
    </g>
    <g id="xtick_4">
     <g id="line2d_4">
      <g>
       <use style="stroke:#000000;stroke-width:0.8;" x="145.425" xlink:href="#md1532ec7b9" y="160.2"/>
      </g>
     </g>
     <g id="text_4">
      <!-- 4 -->
      <defs>
       <path d="M 37.796875 64.3125 
L 12.890625 25.390625 
L 37.796875 25.390625 
z
M 35.203125 72.90625 
L 47.609375 72.90625 
L 47.609375 25.390625 
L 58.015625 25.390625 
L 58.015625 17.1875 
L 47.609375 17.1875 
L 47.609375 0 
L 37.796875 0 
L 37.796875 17.1875 
L 4.890625 17.1875 
L 4.890625 26.703125 
z
" id="DejaVuSans-34"/>
      </defs>
      <g transform="translate(142.24375 174.798438)scale(0.1 -0.1)">
       <use xlink:href="#DejaVuSans-34"/>
      </g>
     </g>
    </g>
    <g id="xtick_5">
     <g id="line2d_5">
      <g>
       <use style="stroke:#000000;stroke-width:0.8;" x="177.975" xlink:href="#md1532ec7b9" y="160.2"/>
      </g>
     </g>
     <g id="text_5">
      <!-- 5 -->
      <defs>
       <path d="M 10.796875 72.90625 
L 49.515625 72.90625 
L 49.515625 64.59375 
L 19.828125 64.59375 
L 19.828125 46.734375 
Q 21.96875 47.46875 24.109375 47.828125 
Q 26.265625 48.1875 28.421875 48.1875 
Q 40.625 48.1875 47.75 41.5 
Q 54.890625 34.8125 54.890625 23.390625 
Q 54.890625 11.625 47.5625 5.09375 
Q 40.234375 -1.421875 26.90625 -1.421875 
Q 22.3125 -1.421875 17.546875 -0.640625 
Q 12.796875 0.140625 7.71875 1.703125 
L 7.71875 11.625 
Q 12.109375 9.234375 16.796875 8.0625 
Q 21.484375 6.890625 26.703125 6.890625 
Q 35.15625 6.890625 40.078125 11.328125 
Q 45.015625 15.765625 45.015625 23.390625 
Q 45.015625 31 40.078125 35.4375 
Q 35.15625 39.890625 26.703125 39.890625 
Q 22.75 39.890625 18.8125 39.015625 
Q 14.890625 38.140625 10.796875 36.28125 
z
" id="DejaVuSans-35"/>
      </defs>
      <g transform="translate(174.79375 174.798438)scale(0.1 -0.1)">
       <use xlink:href="#DejaVuSans-35"/>
      </g>
     </g>
    </g>
    <g id="xtick_6">
     <g id="line2d_6">
      <g>
       <use style="stroke:#000000;stroke-width:0.8;" x="210.525" xlink:href="#md1532ec7b9" y="160.2"/>
      </g>
     </g>
     <g id="text_6">
      <!-- 6 -->
      <defs>
       <path d="M 33.015625 40.375 
Q 26.375 40.375 22.484375 35.828125 
Q 18.609375 31.296875 18.609375 23.390625 
Q 18.609375 15.53125 22.484375 10.953125 
Q 26.375 6.390625 33.015625 6.390625 
Q 39.65625 6.390625 43.53125 10.953125 
Q 47.40625 15.53125 47.40625 23.390625 
Q 47.40625 31.296875 43.53125 35.828125 
Q 39.65625 40.375 33.015625 40.375 
z
M 52.59375 71.296875 
L 52.59375 62.3125 
Q 48.875 64.0625 45.09375 64.984375 
Q 41.3125 65.921875 37.59375 65.921875 
Q 27.828125 65.921875 22.671875 59.328125 
Q 17.53125 52.734375 16.796875 39.40625 
Q 19.671875 43.65625 24.015625 45.921875 
Q 28.375 48.1875 33.59375 48.1875 
Q 44.578125 48.1875 50.953125 41.515625 
Q 57.328125 34.859375 57.328125 23.390625 
Q 57.328125 12.15625 50.6875 5.359375 
Q 44.046875 -1.421875 33.015625 -1.421875 
Q 20.359375 -1.421875 13.671875 8.265625 
Q 6.984375 17.96875 6.984375 36.375 
Q 6.984375 53.65625 15.1875 63.9375 
Q 23.390625 74.21875 37.203125 74.21875 
Q 40.921875 74.21875 44.703125 73.484375 
Q 48.484375 72.75 52.59375 71.296875 
z
" id="DejaVuSans-36"/>
      </defs>
      <g transform="translate(207.34375 174.798438)scale(0.1 -0.1)">
       <use xlink:href="#DejaVuSans-36"/>
      </g>
     </g>
    </g>
    <g id="text_7">
     <!-- time(year) -->
     <defs>
      <path d="M 21.484375 62.359375 
L 21.484375 45.65625 
L 32.328125 45.65625 
L 32.328125 40.828125 
L 21.484375 40.828125 
L 21.484375 12.640625 
Q 21.484375 8.6875 21.84375 7.53125 
Q 22.21875 6.390625 23.140625 5.6875 
Q 24.078125 4.984375 24.859375 4.984375 
Q 28.03125 4.984375 30.859375 9.8125 
L 32.328125 8.734375 
Q 28.375 -0.640625 19.484375 -0.640625 
Q 15.140625 -0.640625 12.125 1.78125 
Q 9.125 4.203125 8.296875 7.171875 
Q 7.8125 8.84375 7.8125 16.15625 
L 7.8125 40.828125 
L 1.859375 40.828125 
L 1.859375 42.53125 
Q 8.015625 46.875 12.328125 51.65625 
Q 16.65625 56.453125 19.875 62.359375 
z
" id="TimesNewRomanPS-BoldMT-74"/>
      <path d="M 14.359375 67.78125 
Q 17.53125 67.78125 19.71875 65.546875 
Q 21.921875 63.328125 21.921875 60.203125 
Q 21.921875 57.078125 19.703125 54.875 
Q 17.484375 52.6875 14.359375 52.6875 
Q 11.234375 52.6875 9.03125 54.875 
Q 6.84375 57.078125 6.84375 60.203125 
Q 6.84375 63.328125 9.03125 65.546875 
Q 11.234375 67.78125 14.359375 67.78125 
z
M 21.1875 45.65625 
L 21.1875 9.46875 
Q 21.1875 4.640625 22.3125 3.296875 
Q 23.4375 1.953125 26.703125 1.765625 
L 26.703125 0 
L 2.046875 0 
L 2.046875 1.765625 
Q 5.078125 1.859375 6.546875 3.515625 
Q 7.515625 4.640625 7.515625 9.46875 
L 7.515625 36.140625 
Q 7.515625 40.96875 6.390625 42.3125 
Q 5.28125 43.65625 2.046875 43.84375 
L 2.046875 45.65625 
z
" id="TimesNewRomanPS-BoldMT-69"/>
      <path d="M 22.3125 45.65625 
L 22.3125 39.65625 
Q 26.078125 43.75 29.265625 45.375 
Q 32.46875 47.015625 36.28125 47.015625 
Q 40.671875 47.015625 43.640625 44.96875 
Q 46.625 42.921875 48.25 38.71875 
Q 52.15625 43.109375 55.734375 45.0625 
Q 59.328125 47.015625 63.234375 47.015625 
Q 67.96875 47.015625 70.765625 44.84375 
Q 73.578125 42.671875 74.671875 39.328125 
Q 75.78125 35.984375 75.78125 28.65625 
L 75.78125 9.96875 
Q 75.78125 4.6875 76.734375 3.421875 
Q 77.6875 2.15625 80.71875 1.765625 
L 80.71875 0 
L 57.125 0 
L 57.125 1.765625 
Q 59.90625 2 61.234375 3.90625 
Q 62.109375 5.21875 62.109375 9.96875 
L 62.109375 29.59375 
Q 62.109375 35.6875 61.625 37.34375 
Q 61.140625 39.015625 60.078125 39.8125 
Q 59.03125 40.625 57.625 40.625 
Q 55.515625 40.625 53.359375 39.078125 
Q 51.21875 37.546875 49.03125 34.46875 
L 49.03125 9.96875 
Q 49.03125 5.03125 49.859375 3.765625 
Q 50.984375 1.953125 54.15625 1.765625 
L 54.15625 0 
L 30.515625 0 
L 30.515625 1.765625 
Q 32.421875 1.859375 33.515625 2.703125 
Q 34.625 3.5625 34.984375 4.75 
Q 35.359375 5.953125 35.359375 9.96875 
L 35.359375 29.59375 
Q 35.359375 35.796875 34.859375 37.359375 
Q 34.375 38.921875 33.21875 39.796875 
Q 32.078125 40.671875 30.765625 40.671875 
Q 28.8125 40.671875 27.203125 39.65625 
Q 24.90625 38.140625 22.3125 34.46875 
L 22.3125 9.96875 
Q 22.3125 5.125 23.265625 3.578125 
Q 24.21875 2.046875 27.25 1.765625 
L 27.25 0 
L 3.71875 0 
L 3.71875 1.765625 
Q 6.59375 2.046875 7.8125 3.609375 
Q 8.640625 4.6875 8.640625 9.96875 
L 8.640625 35.75 
Q 8.640625 40.921875 7.6875 42.1875 
Q 6.734375 43.453125 3.71875 43.84375 
L 3.71875 45.65625 
z
" id="TimesNewRomanPS-BoldMT-6d"/>
      <path d="M 42.046875 24.46875 
L 17 24.46875 
Q 17.4375 15.375 21.828125 10.109375 
Q 25.203125 6.0625 29.9375 6.0625 
Q 32.859375 6.0625 35.25 7.6875 
Q 37.640625 9.328125 40.375 13.578125 
L 42.046875 12.5 
Q 38.328125 4.9375 33.828125 1.78125 
Q 29.34375 -1.375 23.4375 -1.375 
Q 13.28125 -1.375 8.0625 6.453125 
Q 3.859375 12.75 3.859375 22.078125 
Q 3.859375 33.5 10.03125 40.25 
Q 16.21875 47.015625 24.515625 47.015625 
Q 31.453125 47.015625 36.546875 41.328125 
Q 41.65625 35.640625 42.046875 24.46875 
z
M 30.03125 27.734375 
Q 30.03125 35.59375 29.171875 38.515625 
Q 28.328125 41.453125 26.515625 42.96875 
Q 25.484375 43.84375 23.78125 43.84375 
Q 21.234375 43.84375 19.625 41.359375 
Q 16.75 37.015625 16.75 29.4375 
L 16.75 27.734375 
z
" id="TimesNewRomanPS-BoldMT-65"/>
      <path d="M 32.125 67.71875 
L 32.125 65.484375 
Q 27.046875 62.15625 24.65625 58.984375 
Q 21.34375 54.59375 19.484375 47.703125 
Q 17.140625 39.15625 17.140625 23.828125 
Q 17.140625 9.375 19.265625 1.359375 
Q 21.390625 -6.640625 25.046875 -11.578125 
Q 27.59375 -14.984375 32.125 -17.578125 
L 32.125 -20.015625 
Q 20.359375 -16.0625 12.171875 -3.875 
Q 4 8.296875 4 24.125 
Q 4 39.75 12.15625 51.78125 
Q 20.3125 63.8125 32.125 67.71875 
z
" id="TimesNewRomanPS-BoldMT-28"/>
      <path d="M 24.3125 -1.859375 
L 9.578125 31.984375 
Q 6.25 39.65625 4.65625 41.40625 
Q 3.078125 43.171875 0.828125 43.84375 
L 0.828125 45.65625 
L 25.09375 45.65625 
L 25.09375 43.84375 
Q 22.703125 43.75 21.71875 42.921875 
Q 20.75 42.09375 20.75 40.921875 
Q 20.75 39.0625 23.1875 33.59375 
L 31 15.71875 
L 36.328125 29.546875 
Q 39.203125 36.921875 39.203125 39.796875 
Q 39.203125 41.609375 38 42.671875 
Q 36.8125 43.75 33.796875 43.84375 
L 33.796875 45.65625 
L 49.078125 45.65625 
L 49.078125 43.84375 
Q 46.828125 43.609375 45.40625 42.109375 
Q 44 40.625 40.671875 31.984375 
L 27.640625 -1.859375 
Q 22.703125 -14.546875 20.3125 -17.484375 
Q 16.9375 -21.578125 11.859375 -21.578125 
Q 7.8125 -21.578125 5.296875 -19.25 
Q 2.78125 -16.9375 2.78125 -13.671875 
Q 2.78125 -10.84375 4.515625 -8.984375 
Q 6.25 -7.125 8.796875 -7.125 
Q 11.234375 -7.125 12.71875 -8.6875 
Q 14.203125 -10.25 14.265625 -13.53125 
Q 14.3125 -15.375 14.703125 -15.921875 
Q 15.09375 -16.453125 15.828125 -16.453125 
Q 17 -16.453125 18.3125 -15.046875 
Q 20.265625 -12.984375 22.90625 -5.671875 
z
" id="TimesNewRomanPS-BoldMT-79"/>
      <path d="M 28.5625 6.734375 
Q 20.21875 -0.640625 13.578125 -0.640625 
Q 9.671875 -0.640625 7.078125 1.921875 
Q 4.5 4.5 4.5 8.34375 
Q 4.5 13.578125 8.984375 17.75 
Q 13.484375 21.921875 28.5625 28.859375 
L 28.5625 33.453125 
Q 28.5625 38.625 28 39.96875 
Q 27.4375 41.3125 25.875 42.3125 
Q 24.3125 43.3125 22.359375 43.3125 
Q 19.1875 43.3125 17.140625 41.890625 
Q 15.875 41.015625 15.875 39.84375 
Q 15.875 38.8125 17.234375 37.3125 
Q 19.09375 35.203125 19.09375 33.25 
Q 19.09375 30.859375 17.3125 29.171875 
Q 15.53125 27.484375 12.640625 27.484375 
Q 9.578125 27.484375 7.5 29.34375 
Q 5.421875 31.203125 5.421875 33.6875 
Q 5.421875 37.203125 8.203125 40.40625 
Q 10.984375 43.609375 15.96875 45.3125 
Q 20.953125 47.015625 26.3125 47.015625 
Q 32.8125 47.015625 36.59375 44.25 
Q 40.375 41.5 41.5 38.28125 
Q 42.1875 36.234375 42.1875 28.859375 
L 42.1875 11.140625 
Q 42.1875 8.015625 42.421875 7.203125 
Q 42.671875 6.390625 43.15625 6 
Q 43.65625 5.609375 44.28125 5.609375 
Q 45.5625 5.609375 46.875 7.421875 
L 48.34375 6.25 
Q 45.90625 2.640625 43.28125 1 
Q 40.671875 -0.640625 37.359375 -0.640625 
Q 33.453125 -0.640625 31.25 1.1875 
Q 29.046875 3.03125 28.5625 6.734375 
z
M 28.5625 10.296875 
L 28.5625 25.59375 
Q 22.65625 22.125 19.78125 18.171875 
Q 17.875 15.53125 17.875 12.84375 
Q 17.875 10.59375 19.484375 8.890625 
Q 20.703125 7.5625 22.90625 7.5625 
Q 25.34375 7.5625 28.5625 10.296875 
z
" id="TimesNewRomanPS-BoldMT-61"/>
      <path d="M 22.3125 45.65625 
L 22.3125 35.296875 
Q 26.859375 42.390625 30.265625 44.703125 
Q 33.6875 47.015625 36.859375 47.015625 
Q 39.59375 47.015625 41.234375 45.328125 
Q 42.875 43.65625 42.875 40.578125 
Q 42.875 37.3125 41.28125 35.5 
Q 39.703125 33.6875 37.453125 33.6875 
Q 34.859375 33.6875 32.953125 35.34375 
Q 31.0625 37.015625 30.71875 37.203125 
Q 30.21875 37.5 29.59375 37.5 
Q 28.171875 37.5 26.90625 36.421875 
Q 24.90625 34.765625 23.875 31.6875 
Q 22.3125 26.953125 22.3125 21.234375 
L 22.3125 10.75 
L 22.359375 8.015625 
Q 22.359375 5.21875 22.703125 4.4375 
Q 23.296875 3.125 24.4375 2.515625 
Q 25.59375 1.90625 28.328125 1.765625 
L 28.328125 0 
L 3.65625 0 
L 3.65625 1.765625 
Q 6.640625 2 7.6875 3.390625 
Q 8.734375 4.78125 8.734375 10.75 
L 8.734375 35.984375 
Q 8.734375 39.890625 8.34375 40.96875 
Q 7.859375 42.328125 6.921875 42.96875 
Q 6 43.609375 3.65625 43.84375 
L 3.65625 45.65625 
z
" id="TimesNewRomanPS-BoldMT-72"/>
      <path d="M 1.21875 -20.015625 
L 1.21875 -17.78125 
Q 6.296875 -14.40625 8.6875 -11.234375 
Q 11.96875 -6.84375 13.875 0 
Q 16.21875 8.59375 16.21875 23.921875 
Q 16.21875 38.375 14.09375 46.359375 
Q 11.96875 54.34375 8.296875 59.28125 
Q 5.765625 62.703125 1.21875 65.28125 
L 1.21875 67.71875 
Q 12.984375 63.765625 21.15625 51.578125 
Q 29.34375 39.40625 29.34375 23.578125 
Q 29.34375 8.015625 21.15625 -4.015625 
Q 12.984375 -16.0625 1.21875 -20.015625 
z
" id="TimesNewRomanPS-BoldMT-29"/>
     </defs>
     <g transform="translate(102.501563 189.011875)scale(0.12 -0.12)">
      <use xlink:href="#TimesNewRomanPS-BoldMT-74"/>
      <use x="33.300781" xlink:href="#TimesNewRomanPS-BoldMT-69"/>
      <use x="61.083984" xlink:href="#TimesNewRomanPS-BoldMT-6d"/>
      <use x="144.384766" xlink:href="#TimesNewRomanPS-BoldMT-65"/>
      <use x="188.769531" xlink:href="#TimesNewRomanPS-BoldMT-28"/>
      <use x="222.070312" xlink:href="#TimesNewRomanPS-BoldMT-79"/>
      <use x="272.070312" xlink:href="#TimesNewRomanPS-BoldMT-65"/>
      <use x="316.455078" xlink:href="#TimesNewRomanPS-BoldMT-61"/>
      <use x="366.455078" xlink:href="#TimesNewRomanPS-BoldMT-72"/>
      <use x="410.839844" xlink:href="#TimesNewRomanPS-BoldMT-29"/>
     </g>
    </g>
   </g>
   <g id="matplotlib.axis_2">
    <g id="ytick_1">
     <g id="line2d_7">
      <defs>
       <path d="M 0 0 
L -3.5 0 
" id="m2b69a3098b" style="stroke:#000000;stroke-width:0.8;"/>
      </defs>
      <g>
       <use style="stroke:#000000;stroke-width:0.8;" x="31.5" xlink:href="#m2b69a3098b" y="156.35"/>
      </g>
     </g>
     <g id="text_8">
      <!-- 0 -->
      <defs>
       <path d="M 31.78125 66.40625 
Q 24.171875 66.40625 20.328125 58.90625 
Q 16.5 51.421875 16.5 36.375 
Q 16.5 21.390625 20.328125 13.890625 
Q 24.171875 6.390625 31.78125 6.390625 
Q 39.453125 6.390625 43.28125 13.890625 
Q 47.125 21.390625 47.125 36.375 
Q 47.125 51.421875 43.28125 58.90625 
Q 39.453125 66.40625 31.78125 66.40625 
z
M 31.78125 74.21875 
Q 44.046875 74.21875 50.515625 64.515625 
Q 56.984375 54.828125 56.984375 36.375 
Q 56.984375 17.96875 50.515625 8.265625 
Q 44.046875 -1.421875 31.78125 -1.421875 
Q 19.53125 -1.421875 13.0625 8.265625 
Q 6.59375 17.96875 6.59375 36.375 
Q 6.59375 54.828125 13.0625 64.515625 
Q 19.53125 74.21875 31.78125 74.21875 
z
" id="DejaVuSans-30"/>
      </defs>
      <g transform="translate(18.1375 160.149219)scale(0.1 -0.1)">
       <use xlink:href="#DejaVuSans-30"/>
      </g>
     </g>
    </g>
    <g id="ytick_2">
     <g id="line2d_8">
      <g>
       <use style="stroke:#000000;stroke-width:0.8;" x="31.5" xlink:href="#m2b69a3098b" y="117.85"/>
      </g>
     </g>
     <g id="text_9">
      <!-- 1 -->
      <g transform="translate(18.1375 121.649219)scale(0.1 -0.1)">
       <use xlink:href="#DejaVuSans-31"/>
      </g>
     </g>
    </g>
    <g id="ytick_3">
     <g id="line2d_9">
      <g>
       <use style="stroke:#000000;stroke-width:0.8;" x="31.5" xlink:href="#m2b69a3098b" y="79.35"/>
      </g>
     </g>
     <g id="text_10">
      <!-- 2 -->
      <g transform="translate(18.1375 83.149219)scale(0.1 -0.1)">
       <use xlink:href="#DejaVuSans-32"/>
      </g>
     </g>
    </g>
    <g id="ytick_4">
     <g id="line2d_10">
      <g>
       <use style="stroke:#000000;stroke-width:0.8;" x="31.5" xlink:href="#m2b69a3098b" y="40.85"/>
      </g>
     </g>
     <g id="text_11">
      <!-- 3 -->
      <g transform="translate(18.1375 44.649219)scale(0.1 -0.1)">
       <use xlink:href="#DejaVuSans-33"/>
      </g>
     </g>
    </g>
    <g id="text_12">
     <!-- Failure rate(%) -->
     <defs>
      <path d="M 27.484375 62.40625 
L 27.484375 35.203125 
L 29.390625 35.203125 
Q 33.796875 35.203125 36.578125 36.515625 
Q 39.359375 37.84375 41.28125 40.96875 
Q 43.21875 44.09375 43.796875 49.421875 
L 45.515625 49.421875 
L 45.515625 16.15625 
L 43.796875 16.15625 
Q 42.875 25.59375 38.75 28.59375 
Q 34.625 31.59375 29.390625 31.59375 
L 27.484375 31.59375 
L 27.484375 11.328125 
Q 27.484375 6.25 28.046875 4.984375 
Q 28.609375 3.71875 30.25 2.765625 
Q 31.890625 1.8125 34.671875 1.8125 
L 36.859375 1.8125 
L 36.859375 0 
L 2.25 0 
L 2.25 1.8125 
L 4.4375 1.8125 
Q 7.328125 1.8125 9.078125 2.828125 
Q 10.359375 3.515625 11.03125 5.171875 
Q 11.578125 6.34375 11.578125 11.328125 
L 11.578125 54.890625 
Q 11.578125 59.96875 11.03125 61.234375 
Q 10.5 62.5 8.859375 63.453125 
Q 7.234375 64.40625 4.4375 64.40625 
L 2.25 64.40625 
L 2.25 66.21875 
L 58.109375 66.21875 
L 58.109375 47.21875 
L 56.109375 47.21875 
Q 55.421875 53.90625 52.609375 57.125 
Q 49.8125 60.359375 44.484375 61.671875 
Q 41.546875 62.40625 33.640625 62.40625 
z
" id="TimesNewRomanPS-BoldMT-46"/>
      <path d="M 21.234375 66.21875 
L 21.234375 9.46875 
Q 21.234375 4.640625 22.359375 3.296875 
Q 23.484375 1.953125 26.765625 1.765625 
L 26.765625 0 
L 2.09375 0 
L 2.09375 1.765625 
Q 5.125 1.859375 6.59375 3.515625 
Q 7.5625 4.640625 7.5625 9.46875 
L 7.5625 56.734375 
Q 7.5625 61.53125 6.4375 62.859375 
Q 5.328125 64.203125 2.09375 64.40625 
L 2.09375 66.21875 
z
" id="TimesNewRomanPS-BoldMT-6c"/>
      <path d="M 47.46875 45.65625 
L 47.46875 9.90625 
Q 47.46875 4.6875 48.4375 3.390625 
Q 49.421875 2.09375 52.390625 1.765625 
L 52.390625 0 
L 33.796875 0 
L 33.796875 6.109375 
Q 30.515625 2.203125 27.234375 0.40625 
Q 23.96875 -1.375 19.921875 -1.375 
Q 16.0625 -1.375 13.0625 1 
Q 10.0625 3.375 9.03125 6.546875 
Q 8.015625 9.71875 8.015625 17.625 
L 8.015625 35.75 
Q 8.015625 40.921875 7.0625 42.1875 
Q 6.109375 43.453125 3.078125 43.84375 
L 3.078125 45.65625 
L 21.6875 45.65625 
L 21.6875 14.453125 
Q 21.6875 9.578125 22.140625 8.15625 
Q 22.609375 6.734375 23.609375 6 
Q 24.609375 5.28125 25.921875 5.28125 
Q 27.6875 5.28125 29.109375 6.203125 
Q 31.0625 7.46875 33.796875 11.328125 
L 33.796875 35.75 
Q 33.796875 40.921875 32.84375 42.1875 
Q 31.890625 43.453125 28.859375 43.84375 
L 28.859375 45.65625 
z
" id="TimesNewRomanPS-BoldMT-75"/>
      <path id="TimesNewRomanPS-BoldMT-20"/>
      <path d="M 76.8125 67.71875 
L 29.78125 -2.78125 
L 23.25 -2.78125 
L 70.21875 67.71875 
z
M 23.34375 67.71875 
Q 30.28125 67.71875 35.03125 62.8125 
Q 39.796875 57.90625 39.796875 50.140625 
Q 39.796875 42.1875 35 37.234375 
Q 30.21875 32.28125 23.140625 32.28125 
Q 16.15625 32.28125 11.546875 37.0625 
Q 6.9375 41.84375 6.9375 49.65625 
Q 6.9375 57.71875 11.671875 62.71875 
Q 16.40625 67.71875 23.34375 67.71875 
z
M 23.34375 65.140625 
Q 22.265625 65.140625 21.578125 64.5 
Q 20.359375 63.375 19.75 60.609375 
Q 19.140625 57.859375 19.140625 49.21875 
Q 19.140625 42.328125 19.96875 38.578125 
Q 20.453125 36.421875 21.625 35.359375 
Q 22.359375 34.71875 23.34375 34.71875 
Q 24.421875 34.71875 25.046875 35.296875 
Q 26.171875 36.328125 26.703125 38.625 
Q 27.546875 42.328125 27.546875 49.03125 
Q 27.546875 57.234375 26.765625 60.890625 
Q 26.21875 63.421875 25 64.59375 
Q 24.421875 65.140625 23.34375 65.140625 
z
M 76.46875 32.765625 
Q 83.546875 32.765625 88.296875 27.90625 
Q 93.0625 23.046875 93.0625 15.1875 
Q 93.0625 7.234375 88.234375 2.25 
Q 83.40625 -2.734375 76.5625 -2.734375 
Q 69.78125 -2.734375 65.015625 2.25 
Q 60.25 7.234375 60.25 15.046875 
Q 60.25 22.90625 64.890625 27.828125 
Q 69.53125 32.765625 76.46875 32.765625 
z
M 76.609375 30.21875 
Q 75.640625 30.21875 74.953125 29.640625 
Q 73.78125 28.5625 73.140625 25.90625 
Q 72.515625 23.25 72.515625 15.71875 
Q 72.515625 7.71875 73.25 4.203125 
Q 73.78125 1.703125 75.046875 0.59375 
Q 75.6875 0 76.703125 0 
Q 77.640625 0 78.21875 0.53125 
Q 79.4375 1.65625 80.03125 4.203125 
Q 80.859375 7.765625 80.859375 14.984375 
Q 80.859375 22.609375 80.078125 26.125 
Q 79.5 28.65625 78.328125 29.6875 
Q 77.734375 30.21875 76.609375 30.21875 
z
" id="TimesNewRomanPS-BoldMT-25"/>
     </defs>
     <g transform="translate(11.570625 131.38125)rotate(-90)scale(0.12 -0.12)">
      <use xlink:href="#TimesNewRomanPS-BoldMT-46"/>
      <use x="61.083984" xlink:href="#TimesNewRomanPS-BoldMT-61"/>
      <use x="111.083984" xlink:href="#TimesNewRomanPS-BoldMT-69"/>
      <use x="138.867188" xlink:href="#TimesNewRomanPS-BoldMT-6c"/>
      <use x="166.650391" xlink:href="#TimesNewRomanPS-BoldMT-75"/>
      <use x="222.265625" xlink:href="#TimesNewRomanPS-BoldMT-72"/>
      <use x="266.634766" xlink:href="#TimesNewRomanPS-BoldMT-65"/>
      <use x="311.019531" xlink:href="#TimesNewRomanPS-BoldMT-20"/>
      <use x="336.019531" xlink:href="#TimesNewRomanPS-BoldMT-72"/>
      <use x="380.404297" xlink:href="#TimesNewRomanPS-BoldMT-61"/>
      <use x="430.404297" xlink:href="#TimesNewRomanPS-BoldMT-74"/>
      <use x="463.705078" xlink:href="#TimesNewRomanPS-BoldMT-65"/>
      <use x="508.089844" xlink:href="#TimesNewRomanPS-BoldMT-28"/>
      <use x="541.390625" xlink:href="#TimesNewRomanPS-BoldMT-25"/>
      <use x="641.390625" xlink:href="#TimesNewRomanPS-BoldMT-29"/>
     </g>
    </g>
   </g>
   <g id="line2d_11">
    <path clip-path="url(#p9a7cab0ebe)" d="M 44.52 153.548383 
L 78.372 145.240794 
L 112.224 136.388786 
L 146.076 116.785681 
L 179.928 96.073354 
L 213.78 104.688556 
" style="fill:none;opacity:0.05;stroke:#000000;stroke-linecap:square;"/>
   </g>
   <g id="line2d_12">
    <path clip-path="url(#p9a7cab0ebe)" d="M 44.52 153.515654 
L 78.372 146.77244 
L 112.224 112.125512 
L 146.076 89.608522 
L 179.928 52.403685 
L 195.724619 -1 
" style="fill:none;opacity:0.05;stroke:#000000;stroke-linecap:square;"/>
   </g>
   <g id="line2d_13">
    <path clip-path="url(#p9a7cab0ebe)" d="M 44.52 152.569663 
L 78.372 146.856247 
L 112.224 126.298985 
L 146.076 110.600788 
L 179.928 95.48847 
L 213.78 65.203636 
" style="fill:none;opacity:0.05;stroke:#000000;stroke-linecap:square;"/>
   </g>
   <g id="line2d_14">
    <path clip-path="url(#p9a7cab0ebe)" d="M 44.52 154.464161 
L 78.372 146.733395 
L 112.224 135.635481 
L 146.076 107.538303 
L 179.928 73.449145 
L 213.78 82.744306 
" style="fill:none;opacity:0.05;stroke:#000000;stroke-linecap:square;"/>
   </g>
   <g id="line2d_15">
    <path clip-path="url(#p9a7cab0ebe)" d="M 44.52 154.646549 
L 78.372 148.138698 
L 112.224 135.165431 
L 146.076 106.255059 
L 179.928 47.782162 
L 210.145822 -1 
" style="fill:none;opacity:0.05;stroke:#000000;stroke-linecap:square;"/>
   </g>
   <g id="line2d_16">
    <path clip-path="url(#p9a7cab0ebe)" d="M 44.52 151.284849 
L 78.372 146.182052 
L 112.224 126.969061 
L 146.076 115.743869 
L 179.928 117.124544 
L 213.78 116.262002 
" style="fill:none;opacity:0.05;stroke:#000000;stroke-linecap:square;"/>
   </g>
   <g id="line2d_17">
    <path clip-path="url(#p9a7cab0ebe)" d="M 44.52 153.659567 
L 78.372 145.125957 
L 112.224 133.728501 
L 146.076 103.696359 
L 179.928 59.298071 
L 213.78 50.995885 
" style="fill:none;opacity:0.05;stroke:#000000;stroke-linecap:square;"/>
   </g>
   <g id="line2d_18">
    <path clip-path="url(#p9a7cab0ebe)" d="M 44.52 153.596927 
L 78.372 145.846522 
L 112.224 126.176255 
L 146.076 108.430487 
L 179.928 97.090173 
L 213.78 98.184085 
" style="fill:none;opacity:0.05;stroke:#000000;stroke-linecap:square;"/>
   </g>
   <g id="line2d_19">
    <path clip-path="url(#p9a7cab0ebe)" d="M 44.52 148.579851 
L 78.372 145.092765 
L 112.224 121.824678 
L 146.076 121.595537 
L 179.928 125.16372 
L 213.78 112.925752 
" style="fill:none;opacity:0.05;stroke:#000000;stroke-linecap:square;"/>
   </g>
   <g id="line2d_20">
    <path clip-path="url(#p9a7cab0ebe)" d="M 44.52 154.002891 
L 78.372 149.166494 
L 112.224 140.56392 
L 146.076 123.314044 
L 179.928 99.000918 
L 213.78 80.8334 
" style="fill:none;opacity:0.05;stroke:#000000;stroke-linecap:square;"/>
   </g>
   <g id="line2d_21">
    <path clip-path="url(#p9a7cab0ebe)" d="M 44.52 153.226208 
L 78.372 147.968264 
L 112.224 132.661831 
L 146.076 114.161735 
L 179.928 105.12602 
L 213.78 102.788987 
" style="fill:none;opacity:0.05;stroke:#000000;stroke-linecap:square;"/>
   </g>
   <g id="line2d_22">
    <path clip-path="url(#p9a7cab0ebe)" d="M 44.52 153.934447 
L 78.372 147.488915 
L 112.224 130.721031 
L 146.076 108.425589 
L 179.928 86.903436 
L 213.78 76.130203 
" style="fill:none;opacity:0.05;stroke:#000000;stroke-linecap:square;"/>
   </g>
   <g id="line2d_23">
    <path clip-path="url(#p9a7cab0ebe)" d="M 44.52 154.215935 
L 78.372 148.886356 
L 112.224 127.763429 
L 146.076 106.283156 
L 179.928 87.415453 
L 213.78 62.498207 
" style="fill:none;opacity:0.05;stroke:#000000;stroke-linecap:square;"/>
   </g>
   <g id="line2d_24">
    <path clip-path="url(#p9a7cab0ebe)" d="M 44.52 153.646532 
L 78.372 147.970728 
L 112.224 135.356958 
L 146.076 113.285633 
L 179.928 105.821963 
L 213.78 117.310031 
" style="fill:none;opacity:0.05;stroke:#000000;stroke-linecap:square;"/>
   </g>
   <g id="line2d_25">
    <path clip-path="url(#p9a7cab0ebe)" d="M 44.52 154.517237 
L 78.372 145.89071 
L 112.224 130.403273 
L 146.076 87.816388 
L 179.928 17.18244 
L 213.78 0.147795 
" style="fill:none;opacity:0.05;stroke:#000000;stroke-linecap:square;"/>
   </g>
   <g id="line2d_26">
    <path clip-path="url(#p9a7cab0ebe)" d="M 44.52 154.157122 
L 78.372 147.344017 
L 112.224 128.600988 
L 146.076 111.974025 
L 179.928 105.409511 
L 213.78 111.89412 
" style="fill:none;opacity:0.05;stroke:#000000;stroke-linecap:square;"/>
   </g>
   <g id="line2d_27">
    <path clip-path="url(#p9a7cab0ebe)" d="M 44.52 152.330545 
L 78.372 148.782827 
L 112.224 132.696384 
L 146.076 117.552752 
L 179.928 97.715434 
L 213.78 38.741349 
" style="fill:none;opacity:0.05;stroke:#000000;stroke-linecap:square;"/>
   </g>
   <g id="line2d_28">
    <path clip-path="url(#p9a7cab0ebe)" d="M 44.52 153.270103 
L 78.372 148.021227 
L 112.224 135.80562 
L 146.076 122.575495 
L 179.928 116.173155 
L 213.78 117.018535 
" style="fill:none;opacity:0.05;stroke:#000000;stroke-linecap:square;"/>
   </g>
   <g id="line2d_29">
    <path clip-path="url(#p9a7cab0ebe)" d="M 44.52 154.292509 
L 78.372 148.006448 
L 112.224 130.491847 
L 146.076 110.461201 
L 179.928 100.052182 
L 213.78 105.037517 
" style="fill:none;opacity:0.05;stroke:#000000;stroke-linecap:square;"/>
   </g>
   <g id="line2d_30">
    <path clip-path="url(#p9a7cab0ebe)" d="M 44.52 153.809616 
L 78.372 146.250014 
L 112.224 133.673345 
L 146.076 111.470543 
L 179.928 81.327926 
L 213.78 70.746695 
" style="fill:none;opacity:0.05;stroke:#000000;stroke-linecap:square;"/>
   </g>
   <g id="line2d_31">
    <path clip-path="url(#p9a7cab0ebe)" d="M 44.52 153.962608 
L 78.372 142.326986 
L 112.224 138.648331 
L 146.076 98.455819 
L 179.928 4.477284 
L 213.78 13.751708 
" style="fill:none;opacity:0.05;stroke:#000000;stroke-linecap:square;"/>
   </g>
   <g id="line2d_32">
    <path clip-path="url(#p9a7cab0ebe)" d="M 44.52 153.260785 
L 78.372 145.09519 
L 112.224 137.282483 
L 146.076 110.370306 
L 179.928 82.216085 
L 213.78 95.252623 
" style="fill:none;opacity:0.05;stroke:#000000;stroke-linecap:square;"/>
   </g>
   <g id="line2d_33">
    <path clip-path="url(#p9a7cab0ebe)" d="M 44.52 153.077987 
L 78.372 146.668549 
L 112.224 131.191101 
L 146.076 117.418413 
L 179.928 105.715945 
L 213.78 97.608517 
" style="fill:none;opacity:0.05;stroke:#000000;stroke-linecap:square;"/>
   </g>
   <g id="line2d_34">
    <path clip-path="url(#p9a7cab0ebe)" d="M 44.52 153.223712 
L 78.372 149.653514 
L 112.224 132.374089 
L 146.076 114.179925 
L 179.928 105.718507 
L 213.78 88.014423 
" style="fill:none;opacity:0.05;stroke:#000000;stroke-linecap:square;"/>
   </g>
   <g id="line2d_35">
    <path clip-path="url(#p9a7cab0ebe)" d="M 44.52 152.062909 
L 78.372 143.00276 
L 112.224 122.352124 
L 146.076 95.541848 
L 179.928 75.762176 
L 213.78 72.568782 
" style="fill:none;opacity:0.05;stroke:#000000;stroke-linecap:square;"/>
   </g>
   <g id="line2d_36">
    <path clip-path="url(#p9a7cab0ebe)" d="M 44.52 151.448147 
L 78.372 146.782993 
L 112.224 139.564528 
L 146.076 126.247082 
L 179.928 115.930522 
L 213.78 113.137215 
" style="fill:none;opacity:0.05;stroke:#000000;stroke-linecap:square;"/>
   </g>
   <g id="line2d_37">
    <path clip-path="url(#p9a7cab0ebe)" d="M 44.52 151.565277 
L 78.372 146.662233 
L 112.224 113.856574 
L 146.076 111.049708 
L 179.928 117.912353 
L 213.78 106.87845 
" style="fill:none;opacity:0.05;stroke:#000000;stroke-linecap:square;"/>
   </g>
   <g id="line2d_38">
    <path clip-path="url(#p9a7cab0ebe)" d="M 44.52 152.847059 
L 78.372 143.615894 
L 112.224 135.063866 
L 146.076 108.347278 
L 179.928 85.049372 
L 213.78 102.697142 
" style="fill:none;opacity:0.05;stroke:#000000;stroke-linecap:square;"/>
   </g>
   <g id="line2d_39">
    <path clip-path="url(#p9a7cab0ebe)" d="M 44.52 153.317352 
L 78.372 143.618466 
L 112.224 139.025689 
L 146.076 117.862638 
L 179.928 102.121215 
L 213.78 125.398565 
" style="fill:none;opacity:0.05;stroke:#000000;stroke-linecap:square;"/>
   </g>
   <g id="line2d_40">
    <path clip-path="url(#p9a7cab0ebe)" d="M 44.52 153.607824 
L 78.372 146.681397 
L 112.224 131.565225 
L 146.076 104.295725 
L 179.928 67.012672 
L 213.78 38.450823 
" style="fill:none;opacity:0.05;stroke:#000000;stroke-linecap:square;"/>
   </g>
   <g id="line2d_41">
    <path clip-path="url(#p9a7cab0ebe)" d="M 44.52 154.517237 
L 78.372 145.89071 
L 112.224 130.403273 
L 146.076 87.816388 
L 179.928 17.18244 
L 213.78 0.147795 
" style="fill:none;opacity:0.05;stroke:#000000;stroke-linecap:square;"/>
   </g>
   <g id="line2d_42">
    <path clip-path="url(#p9a7cab0ebe)" d="M 44.52 153.164936 
L 78.372 148.285333 
L 112.224 138.386254 
L 146.076 114.860861 
L 179.928 98.770687 
L 213.78 101.157067 
" style="fill:none;opacity:0.05;stroke:#000000;stroke-linecap:square;"/>
   </g>
   <g id="line2d_43">
    <path clip-path="url(#p9a7cab0ebe)" d="M 44.52 154.131706 
L 78.372 146.846969 
L 112.224 142.425173 
L 146.076 120.024555 
L 179.928 90.869849 
L 213.78 105.116027 
" style="fill:none;opacity:0.05;stroke:#000000;stroke-linecap:square;"/>
   </g>
   <g id="line2d_44">
    <path clip-path="url(#p9a7cab0ebe)" d="M 44.52 153.406082 
L 78.372 146.101018 
L 112.224 122.315543 
L 146.076 113.07378 
L 179.928 106.714814 
L 213.78 98.440816 
" style="fill:none;opacity:0.05;stroke:#000000;stroke-linecap:square;"/>
   </g>
   <g id="line2d_45">
    <path clip-path="url(#p9a7cab0ebe)" d="M 44.52 153.327913 
L 78.372 146.831214 
L 112.224 125.237908 
L 146.076 102.149314 
L 179.928 95.444554 
L 213.78 98.720866 
" style="fill:none;opacity:0.05;stroke:#000000;stroke-linecap:square;"/>
   </g>
   <g id="line2d_46">
    <path clip-path="url(#p9a7cab0ebe)" d="M 44.52 153.157745 
L 78.372 150.926441 
L 112.224 143.768513 
L 146.076 125.961035 
L 179.928 102.901095 
L 213.78 65.09811 
" style="fill:none;opacity:0.05;stroke:#000000;stroke-linecap:square;"/>
   </g>
   <g id="line2d_47">
    <path clip-path="url(#p9a7cab0ebe)" d="M 44.52 148.557126 
L 78.372 143.722153 
L 112.224 133.076013 
L 146.076 120.791854 
L 179.928 118.373409 
L 213.78 120.524652 
" style="fill:none;opacity:0.05;stroke:#000000;stroke-linecap:square;"/>
   </g>
   <g id="line2d_48">
    <path clip-path="url(#p9a7cab0ebe)" d="M 44.52 154.297334 
L 78.372 147.967202 
L 112.224 132.791083 
L 146.076 112.921264 
L 179.928 94.645888 
L 213.78 91.525275 
" style="fill:none;opacity:0.05;stroke:#000000;stroke-linecap:square;"/>
   </g>
   <g id="line2d_49">
    <path clip-path="url(#p9a7cab0ebe)" d="M 44.52 153.440944 
L 78.372 144.868979 
L 112.224 122.651294 
L 146.076 101.952662 
L 179.928 83.563133 
L 213.78 76.619429 
" style="fill:none;opacity:0.05;stroke:#000000;stroke-linecap:square;"/>
   </g>
   <g id="line2d_50">
    <path clip-path="url(#p9a7cab0ebe)" d="M 44.52 154.31597 
L 78.372 147.293487 
L 112.224 125.065008 
L 146.076 95.572312 
L 179.928 72.771574 
L 213.78 68.921331 
" style="fill:none;opacity:0.05;stroke:#000000;stroke-linecap:square;"/>
   </g>
   <g id="line2d_51">
    <path clip-path="url(#p9a7cab0ebe)" d="M 44.52 152.14077 
L 78.372 142.70403 
L 112.224 136.073353 
L 146.076 113.581435 
L 179.928 91.646549 
L 213.78 104.575927 
" style="fill:none;opacity:0.05;stroke:#000000;stroke-linecap:square;"/>
   </g>
   <g id="line2d_52">
    <path clip-path="url(#p9a7cab0ebe)" d="M 44.52 151.996046 
L 78.372 147.216061 
L 112.224 132.171649 
L 146.076 122.416024 
L 179.928 114.272513 
L 213.78 97.810301 
" style="fill:none;opacity:0.05;stroke:#000000;stroke-linecap:square;"/>
   </g>
   <g id="line2d_53">
    <path clip-path="url(#p9a7cab0ebe)" d="M 44.52 151.421613 
L 78.372 143.423633 
L 112.224 125.914089 
L 146.076 115.405845 
L 179.928 109.452805 
L 213.78 107.303192 
" style="fill:none;opacity:0.05;stroke:#000000;stroke-linecap:square;"/>
   </g>
   <g id="line2d_54">
    <path clip-path="url(#p9a7cab0ebe)" d="M 44.52 152.63626 
L 78.372 143.950417 
L 112.224 110.652435 
L 146.076 95.12748 
L 179.928 91.596247 
L 213.78 86.493709 
" style="fill:none;opacity:0.05;stroke:#000000;stroke-linecap:square;"/>
   </g>
   <g id="line2d_55">
    <path clip-path="url(#p9a7cab0ebe)" d="M 44.52 151.284849 
L 78.372 146.182052 
L 112.224 126.969061 
L 146.076 115.743869 
L 179.928 117.124544 
L 213.78 116.262002 
" style="fill:none;opacity:0.05;stroke:#000000;stroke-linecap:square;"/>
   </g>
   <g id="line2d_56">
    <path clip-path="url(#p9a7cab0ebe)" d="M 44.52 154.628987 
L 78.372 148.784221 
L 112.224 140.886707 
L 146.076 118.816434 
L 179.928 97.937807 
L 213.78 110.138224 
" style="fill:none;opacity:0.05;stroke:#000000;stroke-linecap:square;"/>
   </g>
   <g id="line2d_57">
    <path clip-path="url(#p9a7cab0ebe)" d="M 44.52 153.646707 
L 78.372 144.607489 
L 112.224 122.683384 
L 146.076 95.109468 
L 179.928 78.694651 
L 213.78 88.948738 
" style="fill:none;opacity:0.05;stroke:#000000;stroke-linecap:square;"/>
   </g>
   <g id="line2d_58">
    <path clip-path="url(#p9a7cab0ebe)" d="M 44.52 153.659567 
L 78.372 145.125957 
L 112.224 133.728501 
L 146.076 103.696359 
L 179.928 59.298071 
L 213.78 50.995885 
" style="fill:none;opacity:0.05;stroke:#000000;stroke-linecap:square;"/>
   </g>
   <g id="line2d_59">
    <path clip-path="url(#p9a7cab0ebe)" d="M 44.52 153.236977 
L 78.372 146.817461 
L 112.224 140.719292 
L 146.076 111.018043 
L 179.928 101.683726 
L 213.78 129.568461 
" style="fill:none;opacity:0.05;stroke:#000000;stroke-linecap:square;"/>
   </g>
   <g id="line2d_60">
    <path clip-path="url(#p9a7cab0ebe)" d="M 44.52 153.879986 
L 78.372 146.404458 
L 112.224 136.675582 
L 146.076 112.575809 
L 179.928 79.230321 
L 213.78 75.409535 
" style="fill:none;opacity:0.05;stroke:#000000;stroke-linecap:square;"/>
   </g>
   <g id="line2d_61">
    <path clip-path="url(#p9a7cab0ebe)" d="M 44.52 148.579851 
L 78.372 145.092765 
L 112.224 121.824678 
L 146.076 121.595537 
L 179.928 125.16372 
L 213.78 112.925752 
" style="fill:none;opacity:0.05;stroke:#000000;stroke-linecap:square;"/>
   </g>
   <g id="line2d_62">
    <path clip-path="url(#p9a7cab0ebe)" d="M 44.52 153.932776 
L 78.372 149.56185 
L 112.224 136.366756 
L 146.076 122.774313 
L 179.928 114.508552 
L 213.78 108.779118 
" style="fill:none;opacity:0.05;stroke:#000000;stroke-linecap:square;"/>
   </g>
   <g id="line2d_63">
    <path clip-path="url(#p9a7cab0ebe)" d="M 44.52 151.673345 
L 78.372 142.690216 
L 112.224 135.622666 
L 146.076 113.390488 
L 179.928 95.560812 
L 213.78 109.000345 
" style="fill:none;opacity:0.05;stroke:#000000;stroke-linecap:square;"/>
   </g>
   <g id="line2d_64">
    <path clip-path="url(#p9a7cab0ebe)" d="M 44.52 154.457381 
L 78.372 149.195016 
L 112.224 148.017771 
L 146.076 120.531839 
L 179.928 99.171409 
L 213.78 132.258179 
" style="fill:none;opacity:0.05;stroke:#000000;stroke-linecap:square;"/>
   </g>
   <g id="line2d_65">
    <path clip-path="url(#p9a7cab0ebe)" d="M 44.52 152.630264 
L 78.372 148.591176 
L 112.224 135.547841 
L 146.076 121.527938 
L 179.928 104.105302 
L 213.78 68.349699 
" style="fill:none;opacity:0.05;stroke:#000000;stroke-linecap:square;"/>
   </g>
   <g id="line2d_66">
    <path clip-path="url(#p9a7cab0ebe)" d="M 44.52 152.464269 
L 78.372 145.220419 
L 112.224 123.132171 
L 146.076 95.175 
L 179.928 75.947333 
L 213.78 63.170339 
" style="fill:none;opacity:0.05;stroke:#000000;stroke-linecap:square;"/>
   </g>
   <g id="line2d_67">
    <path clip-path="url(#p9a7cab0ebe)" d="M 44.52 155.503913 
L 78.372 148.889527 
L 112.224 143.672856 
L 146.076 112.972063 
L 179.928 83.543767 
L 213.78 124.561333 
" style="fill:none;opacity:0.05;stroke:#000000;stroke-linecap:square;"/>
   </g>
   <g id="line2d_68">
    <path clip-path="url(#p9a7cab0ebe)" d="M 44.52 151.043567 
L 78.372 145.99466 
L 112.224 137.583438 
L 146.076 123.357269 
L 179.928 115.548105 
L 213.78 116.743147 
" style="fill:none;opacity:0.05;stroke:#000000;stroke-linecap:square;"/>
   </g>
   <g id="line2d_69">
    <path clip-path="url(#p9a7cab0ebe)" d="M 44.52 153.42308 
L 78.372 144.186316 
L 112.224 138.036425 
L 146.076 118.631502 
L 179.928 99.685435 
L 213.78 115.932512 
" style="fill:none;opacity:0.05;stroke:#000000;stroke-linecap:square;"/>
   </g>
   <g id="line2d_70">
    <path clip-path="url(#p9a7cab0ebe)" d="M 44.52 153.236977 
L 78.372 146.817461 
L 112.224 140.719292 
L 146.076 111.018043 
L 179.928 101.683726 
L 213.78 129.568461 
" style="fill:none;opacity:0.05;stroke:#000000;stroke-linecap:square;"/>
   </g>
   <g id="line2d_71">
    <path clip-path="url(#p9a7cab0ebe)" d="M 44.52 152.847059 
L 78.372 143.615894 
L 112.224 135.063866 
L 146.076 108.347278 
L 179.928 85.049372 
L 213.78 102.697142 
" style="fill:none;opacity:0.05;stroke:#000000;stroke-linecap:square;"/>
   </g>
   <g id="line2d_72">
    <path clip-path="url(#p9a7cab0ebe)" d="M 44.52 154.441532 
L 78.372 148.793813 
L 112.224 137.102438 
L 146.076 111.402133 
L 179.928 94.448083 
L 213.78 106.170887 
" style="fill:none;opacity:0.05;stroke:#000000;stroke-linecap:square;"/>
   </g>
   <g id="line2d_73">
    <path clip-path="url(#p9a7cab0ebe)" d="M 44.52 154.292509 
L 78.372 148.006448 
L 112.224 130.491847 
L 146.076 110.461201 
L 179.928 100.052182 
L 213.78 105.037517 
" style="fill:none;opacity:0.05;stroke:#000000;stroke-linecap:square;"/>
   </g>
   <g id="line2d_74">
    <path clip-path="url(#p9a7cab0ebe)" d="M 44.52 153.701359 
L 78.372 145.690783 
L 112.224 139.487047 
L 146.076 105.39709 
L 179.928 71.630541 
L 213.78 99.311962 
" style="fill:none;opacity:0.05;stroke:#000000;stroke-linecap:square;"/>
   </g>
   <g id="line2d_75">
    <path clip-path="url(#p9a7cab0ebe)" d="M 44.52 154.006113 
L 78.372 148.304411 
L 112.224 143.197696 
L 146.076 109.73608 
L 179.928 55.792763 
L 213.78 54.78423 
" style="fill:none;opacity:0.05;stroke:#000000;stroke-linecap:square;"/>
   </g>
   <g id="line2d_76">
    <path clip-path="url(#p9a7cab0ebe)" d="M 44.52 152.582354 
L 78.372 145.721031 
L 112.224 127.268348 
L 146.076 112.856082 
L 179.928 101.939372 
L 213.78 92.030429 
" style="fill:none;opacity:0.05;stroke:#000000;stroke-linecap:square;"/>
   </g>
   <g id="line2d_77">
    <path clip-path="url(#p9a7cab0ebe)" d="M 44.52 152.751349 
L 78.372 144.360559 
L 112.224 125.835933 
L 146.076 110.122946 
L 179.928 103.1174 
L 213.78 108.401766 
" style="fill:none;opacity:0.05;stroke:#000000;stroke-linecap:square;"/>
   </g>
   <g id="line2d_78">
    <path clip-path="url(#p9a7cab0ebe)" d="M 44.52 152.333591 
L 78.372 146.487769 
L 112.224 129.953778 
L 146.076 116.026997 
L 179.928 115.453208 
L 213.78 120.17224 
" style="fill:none;opacity:0.05;stroke:#000000;stroke-linecap:square;"/>
   </g>
   <g id="line2d_79">
    <path clip-path="url(#p9a7cab0ebe)" d="M 44.52 153.807168 
L 78.372 148.411327 
L 112.224 134.681237 
L 146.076 112.372226 
L 179.928 95.677341 
L 213.78 92.145941 
" style="fill:none;opacity:0.05;stroke:#000000;stroke-linecap:square;"/>
   </g>
   <g id="line2d_80">
    <path clip-path="url(#p9a7cab0ebe)" d="M 44.52 150.568372 
L 78.372 137.047032 
L 112.224 112.882824 
L 146.076 85.918725 
L 179.928 47.714754 
L 213.78 18.871923 
" style="fill:none;opacity:0.05;stroke:#000000;stroke-linecap:square;"/>
   </g>
   <g id="line2d_81">
    <path clip-path="url(#p9a7cab0ebe)" d="M 44.52 152.514611 
L 78.372 147.346759 
L 112.224 128.711928 
L 146.076 117.828944 
L 179.928 109.195473 
L 213.78 89.510273 
" style="fill:none;opacity:0.05;stroke:#000000;stroke-linecap:square;"/>
   </g>
   <g id="line2d_82">
    <path clip-path="url(#p9a7cab0ebe)" d="M 44.52 154.464161 
L 78.372 146.733395 
L 112.224 135.635481 
L 146.076 107.538303 
L 179.928 73.449145 
L 213.78 82.744306 
" style="fill:none;opacity:0.05;stroke:#000000;stroke-linecap:square;"/>
   </g>
   <g id="line2d_83">
    <path clip-path="url(#p9a7cab0ebe)" d="M 44.52 153.622566 
L 78.372 149.621823 
L 112.224 140.497707 
L 146.076 125.107889 
L 179.928 101.915474 
L 213.78 68.561801 
" style="fill:none;opacity:0.05;stroke:#000000;stroke-linecap:square;"/>
   </g>
   <g id="line2d_84">
    <path clip-path="url(#p9a7cab0ebe)" d="M 44.52 153.824783 
L 78.372 149.665109 
L 112.224 134.26269 
L 146.076 117.617133 
L 179.928 103.475438 
L 213.78 81.613421 
" style="fill:none;opacity:0.05;stroke:#000000;stroke-linecap:square;"/>
   </g>
   <g id="line2d_85">
    <path clip-path="url(#p9a7cab0ebe)" d="M 44.52 155.503913 
L 78.372 148.889527 
L 112.224 143.672856 
L 146.076 112.972063 
L 179.928 83.543767 
L 213.78 124.561333 
" style="fill:none;opacity:0.05;stroke:#000000;stroke-linecap:square;"/>
   </g>
   <g id="line2d_86">
    <path clip-path="url(#p9a7cab0ebe)" d="M 44.52 153.4982 
L 78.372 149.503235 
L 112.224 134.827473 
L 146.076 118.76991 
L 179.928 103.726116 
L 213.78 77.136633 
" style="fill:none;opacity:0.05;stroke:#000000;stroke-linecap:square;"/>
   </g>
   <g id="line2d_87">
    <path clip-path="url(#p9a7cab0ebe)" d="M 44.52 154.009653 
L 78.372 147.282487 
L 112.224 130.368967 
L 146.076 107.80799 
L 179.928 81.759386 
L 213.78 64.896934 
" style="fill:none;opacity:0.05;stroke:#000000;stroke-linecap:square;"/>
   </g>
   <g id="line2d_88">
    <path clip-path="url(#p9a7cab0ebe)" d="M 44.52 153.991313 
L 78.372 139.362993 
L 112.224 113.714126 
L 146.076 74.316821 
L 179.928 61.466596 
L 213.78 107.874854 
" style="fill:none;opacity:0.05;stroke:#000000;stroke-linecap:square;"/>
   </g>
   <g id="line2d_89">
    <path clip-path="url(#p9a7cab0ebe)" d="M 44.52 155.362286 
L 78.372 148.348198 
L 112.224 138.917562 
L 146.076 99.495335 
L 179.928 51.497627 
L 213.78 89.269152 
" style="fill:none;opacity:0.05;stroke:#000000;stroke-linecap:square;"/>
   </g>
   <g id="line2d_90">
    <path clip-path="url(#p9a7cab0ebe)" d="M 44.52 152.101046 
L 78.372 144.121876 
L 112.224 133.245542 
L 146.076 113.806184 
L 179.928 102.202235 
L 213.78 111.633916 
" style="fill:none;opacity:0.05;stroke:#000000;stroke-linecap:square;"/>
   </g>
   <g id="line2d_91">
    <path clip-path="url(#p9a7cab0ebe)" d="M 44.52 152.165325 
L 78.372 147.977667 
L 112.224 134.895973 
L 146.076 119.841425 
L 179.928 107.314005 
L 213.78 88.314884 
" style="fill:none;opacity:0.05;stroke:#000000;stroke-linecap:square;"/>
   </g>
   <g id="line2d_92">
    <path clip-path="url(#p9a7cab0ebe)" d="M 44.52 152.908106 
L 78.372 148.943484 
L 112.224 138.207337 
L 146.076 125.873477 
L 179.928 123.604031 
L 213.78 126.241078 
" style="fill:none;opacity:0.05;stroke:#000000;stroke-linecap:square;"/>
   </g>
   <g id="line2d_93">
    <path clip-path="url(#p9a7cab0ebe)" d="M 44.52 152.680587 
L 78.372 145.450399 
L 112.224 134.246173 
L 146.076 118.044951 
L 179.928 113.423453 
L 213.78 125.291227 
" style="fill:none;opacity:0.05;stroke:#000000;stroke-linecap:square;"/>
   </g>
   <g id="line2d_94">
    <path clip-path="url(#p9a7cab0ebe)" d="M 44.52 153.548383 
L 78.372 145.240794 
L 112.224 136.388786 
L 146.076 116.785681 
L 179.928 96.073354 
L 213.78 104.688556 
" style="fill:none;opacity:0.05;stroke:#000000;stroke-linecap:square;"/>
   </g>
   <g id="line2d_95">
    <path clip-path="url(#p9a7cab0ebe)" d="M 44.52 153.626674 
L 78.372 145.876983 
L 112.224 136.629314 
L 146.076 111.550581 
L 179.928 72.825104 
L 213.78 62.470584 
" style="fill:none;opacity:0.05;stroke:#000000;stroke-linecap:square;"/>
   </g>
   <g id="line2d_96">
    <path clip-path="url(#p9a7cab0ebe)" d="M 44.52 154.184125 
L 78.372 147.577018 
L 112.224 138.695566 
L 146.076 108.921321 
L 179.928 50.065022 
L 213.78 11.856176 
" style="fill:none;opacity:0.05;stroke:#000000;stroke-linecap:square;"/>
   </g>
   <g id="line2d_97">
    <path clip-path="url(#p9a7cab0ebe)" d="M 44.52 154.088065 
L 78.372 145.578247 
L 112.224 123.59274 
L 146.076 98.738636 
L 179.928 82.392904 
L 213.78 90.063253 
" style="fill:none;opacity:0.05;stroke:#000000;stroke-linecap:square;"/>
   </g>
   <g id="line2d_98">
    <path clip-path="url(#p9a7cab0ebe)" d="M 44.52 152.991488 
L 78.372 149.771478 
L 112.224 131.067712 
L 146.076 117.412127 
L 179.928 107.545249 
L 213.78 71.67303 
" style="fill:none;opacity:0.05;stroke:#000000;stroke-linecap:square;"/>
   </g>
   <g id="line2d_99">
    <path clip-path="url(#p9a7cab0ebe)" d="M 44.52 152.01382 
L 78.372 146.445963 
L 112.224 132.157035 
L 146.076 116.636296 
L 179.928 101.604666 
L 213.78 82.796936 
" style="fill:none;opacity:0.05;stroke:#000000;stroke-linecap:square;"/>
   </g>
   <g id="line2d_100">
    <path clip-path="url(#p9a7cab0ebe)" d="M 44.52 153.641681 
L 78.372 141.128909 
L 112.224 86.802047 
L 146.076 71.277203 
L 179.928 47.521412 
L 213.78 8.592695 
" style="fill:none;opacity:0.05;stroke:#000000;stroke-linecap:square;"/>
   </g>
   <g id="line2d_101">
    <path clip-path="url(#p9a7cab0ebe)" d="M 44.52 152.509074 
L 78.372 149.424092 
L 112.224 132.081245 
L 146.076 120.491004 
L 179.928 114.724042 
L 213.78 91.515242 
" style="fill:none;opacity:0.05;stroke:#000000;stroke-linecap:square;"/>
   </g>
   <g id="line2d_102">
    <path clip-path="url(#p9a7cab0ebe)" d="M 44.52 149.144464 
L 78.372 146.8984 
L 112.224 124.592497 
L 146.076 120.134343 
L 179.928 114.408977 
L 213.78 66.844136 
" style="fill:none;opacity:0.05;stroke:#000000;stroke-linecap:square;"/>
   </g>
   <g id="line2d_103">
    <path clip-path="url(#p9a7cab0ebe)" d="M 44.52 152.213249 
L 78.372 145.297757 
L 112.224 139.62979 
L 146.076 116.316263 
L 179.928 98.526313 
L 213.78 112.353147 
" style="fill:none;opacity:0.05;stroke:#000000;stroke-linecap:square;"/>
   </g>
   <g id="line2d_104">
    <path clip-path="url(#p9a7cab0ebe)" d="M 44.52 154.45529 
L 78.372 148.701763 
L 112.224 136.846036 
L 146.076 116.972607 
L 179.928 94.894778 
L 213.78 89.735811 
" style="fill:none;opacity:0.05;stroke:#000000;stroke-linecap:square;"/>
   </g>
   <g id="line2d_105">
    <path clip-path="url(#p9a7cab0ebe)" d="M 44.52 151.990152 
L 78.372 142.653926 
L 112.224 135.099634 
L 146.076 123.483016 
L 179.928 116.139986 
L 213.78 126.600989 
" style="fill:none;opacity:0.05;stroke:#000000;stroke-linecap:square;"/>
   </g>
   <g id="line2d_106">
    <path clip-path="url(#p9a7cab0ebe)" d="M 44.52 151.842961 
L 78.372 143.7625 
L 112.224 127.970084 
L 146.076 110.738261 
L 179.928 96.241826 
L 213.78 90.953698 
" style="fill:none;opacity:0.05;stroke:#000000;stroke-linecap:square;"/>
   </g>
   <g id="line2d_107">
    <path clip-path="url(#p9a7cab0ebe)" d="M 44.52 152.157429 
L 78.372 149.191847 
L 112.224 132.251116 
L 146.076 119.633387 
L 179.928 114.867175 
L 213.78 95.563504 
" style="fill:none;opacity:0.05;stroke:#000000;stroke-linecap:square;"/>
   </g>
   <g id="line2d_108">
    <path clip-path="url(#p9a7cab0ebe)" d="M 44.52 150.866036 
L 78.372 143.71114 
L 112.224 136.47516 
L 146.076 117.774365 
L 179.928 108.671956 
L 213.78 120.106304 
" style="fill:none;opacity:0.05;stroke:#000000;stroke-linecap:square;"/>
   </g>
   <g id="line2d_109">
    <path clip-path="url(#p9a7cab0ebe)" d="M 44.52 153.586666 
L 78.372 145.123983 
L 112.224 139.868275 
L 146.076 113.33553 
L 179.928 83.450981 
L 213.78 103.146363 
" style="fill:none;opacity:0.05;stroke:#000000;stroke-linecap:square;"/>
   </g>
   <g id="line2d_110">
    <path clip-path="url(#p9a7cab0ebe)" d="M 44.52 152.117522 
L 78.372 145.444019 
L 112.224 127.957875 
L 146.076 112.620469 
L 179.928 96.825474 
L 213.78 76.251498 
" style="fill:none;opacity:0.05;stroke:#000000;stroke-linecap:square;"/>
   </g>
   <g id="line2d_111">
    <path clip-path="url(#p9a7cab0ebe)" d="M 44.52 152.514611 
L 78.372 147.346759 
L 112.224 128.711928 
L 146.076 117.828944 
L 179.928 109.195473 
L 213.78 89.510273 
" style="fill:none;opacity:0.05;stroke:#000000;stroke-linecap:square;"/>
   </g>
   <g id="line2d_112">
    <path clip-path="url(#p9a7cab0ebe)" d="M 44.52 154.396161 
L 78.372 148.827247 
L 112.224 140.5425 
L 146.076 114.113418 
L 179.928 98.205765 
L 213.78 117.760103 
" style="fill:none;opacity:0.05;stroke:#000000;stroke-linecap:square;"/>
   </g>
   <g id="line2d_113">
    <path clip-path="url(#p9a7cab0ebe)" d="M 44.52 154.157122 
L 78.372 147.344017 
L 112.224 128.600988 
L 146.076 111.974025 
L 179.928 105.409511 
L 213.78 111.89412 
" style="fill:none;opacity:0.05;stroke:#000000;stroke-linecap:square;"/>
   </g>
   <g id="line2d_114">
    <path clip-path="url(#p9a7cab0ebe)" d="M 44.52 153.435042 
L 78.372 148.892131 
L 112.224 136.813084 
L 146.076 114.883239 
L 179.928 70.519783 
L 205.30862 -1 
" style="fill:none;opacity:0.05;stroke:#000000;stroke-linecap:square;"/>
   </g>
   <g id="line2d_115">
    <path clip-path="url(#p9a7cab0ebe)" d="M 44.52 152.670378 
L 78.372 148.961203 
L 112.224 133.986171 
L 146.076 123.699353 
L 179.928 110.299733 
L 213.78 71.285661 
" style="fill:none;opacity:0.05;stroke:#000000;stroke-linecap:square;"/>
   </g>
   <g id="line2d_116">
    <path clip-path="url(#p9a7cab0ebe)" d="M 44.52 153.880378 
L 78.372 148.14528 
L 112.224 136.243534 
L 146.076 112.825353 
L 179.928 99.13701 
L 213.78 107.818586 
" style="fill:none;opacity:0.05;stroke:#000000;stroke-linecap:square;"/>
   </g>
   <g id="line2d_117">
    <path clip-path="url(#p9a7cab0ebe)" d="M 44.52 153.264457 
L 78.372 149.303906 
L 112.224 133.95156 
L 146.076 120.029522 
L 179.928 115.957639 
L 213.78 110.476707 
" style="fill:none;opacity:0.05;stroke:#000000;stroke-linecap:square;"/>
   </g>
   <g id="line2d_118">
    <path clip-path="url(#p9a7cab0ebe)" d="M 44.52 153.991313 
L 78.372 139.362993 
L 112.224 113.714126 
L 146.076 74.316821 
L 179.928 61.466596 
L 213.78 107.874854 
" style="fill:none;opacity:0.05;stroke:#000000;stroke-linecap:square;"/>
   </g>
   <g id="line2d_119">
    <path clip-path="url(#p9a7cab0ebe)" d="M 44.52 154.306047 
L 78.372 149.875638 
L 112.224 135.812513 
L 146.076 116.559126 
L 179.928 98.991609 
L 213.78 83.077321 
" style="fill:none;opacity:0.05;stroke:#000000;stroke-linecap:square;"/>
   </g>
   <g id="line2d_120">
    <path clip-path="url(#p9a7cab0ebe)" d="M 44.52 152.013344 
L 78.372 147.670267 
L 112.224 135.385732 
L 146.076 120.739606 
L 179.928 114.681483 
L 213.78 111.547186 
" style="fill:none;opacity:0.05;stroke:#000000;stroke-linecap:square;"/>
   </g>
   <g id="line2d_121">
    <path clip-path="url(#p9a7cab0ebe)" d="M 44.52 150.457677 
L 78.372 143.130714 
L 112.224 125.996212 
L 146.076 117.201813 
L 179.928 111.667625 
L 213.78 105.273275 
" style="fill:none;opacity:0.05;stroke:#000000;stroke-linecap:square;"/>
   </g>
   <g id="line2d_122">
    <path clip-path="url(#p9a7cab0ebe)" d="M 44.52 153.701359 
L 78.372 145.690783 
L 112.224 139.487047 
L 146.076 105.39709 
L 179.928 71.630541 
L 213.78 99.311962 
" style="fill:none;opacity:0.05;stroke:#000000;stroke-linecap:square;"/>
   </g>
   <g id="line2d_123">
    <path clip-path="url(#p9a7cab0ebe)" d="M 44.52 154.297334 
L 78.372 147.967202 
L 112.224 132.791083 
L 146.076 112.921264 
L 179.928 94.645888 
L 213.78 91.525275 
" style="fill:none;opacity:0.05;stroke:#000000;stroke-linecap:square;"/>
   </g>
   <g id="line2d_124">
    <path clip-path="url(#p9a7cab0ebe)" d="M 44.52 152.330545 
L 78.372 148.782827 
L 112.224 132.696384 
L 146.076 117.552752 
L 179.928 97.715434 
L 213.78 38.741349 
" style="fill:none;opacity:0.05;stroke:#000000;stroke-linecap:square;"/>
   </g>
   <g id="line2d_125">
    <path clip-path="url(#p9a7cab0ebe)" d="M 44.52 153.08784 
L 78.372 143.097008 
L 112.224 129.286296 
L 146.076 99.535072 
L 179.928 65.562763 
L 213.78 70.083083 
" style="fill:none;opacity:0.05;stroke:#000000;stroke-linecap:square;"/>
   </g>
   <g id="line2d_126">
    <path clip-path="url(#p9a7cab0ebe)" d="M 44.52 153.769176 
L 78.372 148.538517 
L 112.224 137.312058 
L 146.076 117.671706 
L 179.928 103.444702 
L 213.78 104.100308 
" style="fill:none;opacity:0.05;stroke:#000000;stroke-linecap:square;"/>
   </g>
   <g id="line2d_127">
    <path clip-path="url(#p9a7cab0ebe)" d="M 44.52 153.709693 
L 78.372 149.395602 
L 112.224 130.840758 
L 146.076 120.193581 
L 179.928 123.657915 
L 213.78 126.548134 
" style="fill:none;opacity:0.05;stroke:#000000;stroke-linecap:square;"/>
   </g>
   <g id="line2d_128">
    <path clip-path="url(#p9a7cab0ebe)" d="M 44.52 153.646707 
L 78.372 144.607489 
L 112.224 122.683384 
L 146.076 95.109468 
L 179.928 78.694651 
L 213.78 88.948738 
" style="fill:none;opacity:0.05;stroke:#000000;stroke-linecap:square;"/>
   </g>
   <g id="line2d_129">
    <path clip-path="url(#p9a7cab0ebe)" d="M 44.52 149.13859 
L 78.372 146.067549 
L 112.224 133.638999 
L 146.076 123.669059 
L 179.928 121.217247 
L 213.78 114.583821 
" style="fill:none;opacity:0.05;stroke:#000000;stroke-linecap:square;"/>
   </g>
   <g id="line2d_130">
    <path clip-path="url(#p9a7cab0ebe)" d="M 44.52 154.101231 
L 78.372 149.695358 
L 112.224 144.953087 
L 146.076 125.99084 
L 179.928 114.277754 
L 213.78 127.82629 
" style="fill:none;opacity:0.05;stroke:#000000;stroke-linecap:square;"/>
   </g>
   <g id="line2d_131">
    <path clip-path="url(#p9a7cab0ebe)" d="M 44.52 153.588894 
L 78.372 147.950206 
L 112.224 145.98345 
L 146.076 123.464288 
L 179.928 103.534919 
L 213.78 124.146183 
" style="fill:none;opacity:0.05;stroke:#000000;stroke-linecap:square;"/>
   </g>
   <g id="line2d_132">
    <path clip-path="url(#p9a7cab0ebe)" d="M 44.52 152.514611 
L 78.372 147.346759 
L 112.224 128.711928 
L 146.076 117.828944 
L 179.928 109.195473 
L 213.78 89.510273 
" style="fill:none;opacity:0.05;stroke:#000000;stroke-linecap:square;"/>
   </g>
   <g id="line2d_133">
    <path clip-path="url(#p9a7cab0ebe)" d="M 44.52 154.452641 
L 78.372 146.127847 
L 112.224 145.058701 
L 146.076 116.435234 
L 179.928 84.463557 
L 213.78 122.499737 
" style="fill:none;opacity:0.05;stroke:#000000;stroke-linecap:square;"/>
   </g>
   <g id="line2d_134">
    <path clip-path="url(#p9a7cab0ebe)" d="M 44.52 153.264457 
L 78.372 149.303906 
L 112.224 133.95156 
L 146.076 120.029522 
L 179.928 115.957639 
L 213.78 110.476707 
" style="fill:none;opacity:0.05;stroke:#000000;stroke-linecap:square;"/>
   </g>
   <g id="line2d_135">
    <path clip-path="url(#p9a7cab0ebe)" d="M 44.52 153.809616 
L 78.372 146.250014 
L 112.224 133.673345 
L 146.076 111.470543 
L 179.928 81.327926 
L 213.78 70.746695 
" style="fill:none;opacity:0.05;stroke:#000000;stroke-linecap:square;"/>
   </g>
   <g id="line2d_136">
    <path clip-path="url(#p9a7cab0ebe)" d="M 44.52 152.630264 
L 78.372 148.591176 
L 112.224 135.547841 
L 146.076 121.527938 
L 179.928 104.105302 
L 213.78 68.349699 
" style="fill:none;opacity:0.05;stroke:#000000;stroke-linecap:square;"/>
   </g>
   <g id="line2d_137">
    <path clip-path="url(#p9a7cab0ebe)" d="M 44.52 152.670977 
L 78.372 144.191224 
L 112.224 131.610248 
L 146.076 109.613707 
L 179.928 77.380337 
L 213.78 58.380043 
" style="fill:none;opacity:0.05;stroke:#000000;stroke-linecap:square;"/>
   </g>
   <g id="line2d_138">
    <path clip-path="url(#p9a7cab0ebe)" d="M 44.52 154.916261 
L 78.372 150.244786 
L 112.224 138.4353 
L 146.076 119.43278 
L 179.928 97.648483 
L 213.78 87.739912 
" style="fill:none;opacity:0.05;stroke:#000000;stroke-linecap:square;"/>
   </g>
   <g id="line2d_139">
    <path clip-path="url(#p9a7cab0ebe)" d="M 44.52 152.303348 
L 78.372 147.226786 
L 112.224 131.467471 
L 146.076 110.778147 
L 179.928 107.538446 
L 213.78 112.451782 
" style="fill:none;opacity:0.05;stroke:#000000;stroke-linecap:square;"/>
   </g>
   <g id="line2d_140">
    <path clip-path="url(#p9a7cab0ebe)" d="M 44.52 153.406082 
L 78.372 146.101018 
L 112.224 122.315543 
L 146.076 113.07378 
L 179.928 106.714814 
L 213.78 98.440816 
" style="fill:none;opacity:0.05;stroke:#000000;stroke-linecap:square;"/>
   </g>
   <g id="line2d_141">
    <path clip-path="url(#p9a7cab0ebe)" d="M 44.52 153.286146 
L 78.372 142.624879 
L 112.224 124.05641 
L 146.076 100.956558 
L 179.928 84.837707 
L 213.78 98.479779 
" style="fill:none;opacity:0.05;stroke:#000000;stroke-linecap:square;"/>
   </g>
   <g id="line2d_142">
    <path clip-path="url(#p9a7cab0ebe)" d="M 44.52 154.199656 
L 78.372 143.581398 
L 112.224 138.540199 
L 146.076 102.482497 
L 179.928 57.208255 
L 213.78 97.113028 
" style="fill:none;opacity:0.05;stroke:#000000;stroke-linecap:square;"/>
   </g>
   <g id="line2d_143">
    <path clip-path="url(#p9a7cab0ebe)" d="M 44.52 153.507241 
L 78.372 147.729817 
L 112.224 137.735182 
L 146.076 118.93942 
L 179.928 96.877436 
L 213.78 86.738676 
" style="fill:none;opacity:0.05;stroke:#000000;stroke-linecap:square;"/>
   </g>
   <g id="line2d_144">
    <path clip-path="url(#p9a7cab0ebe)" d="M 44.52 152.670378 
L 78.372 148.961203 
L 112.224 133.986171 
L 146.076 123.699353 
L 179.928 110.299733 
L 213.78 71.285661 
" style="fill:none;opacity:0.05;stroke:#000000;stroke-linecap:square;"/>
   </g>
   <g id="line2d_145">
    <path clip-path="url(#p9a7cab0ebe)" d="M 44.52 153.983576 
L 78.372 148.162487 
L 112.224 123.67058 
L 146.076 104.938748 
L 179.928 108.050886 
L 213.78 116.518779 
" style="fill:none;opacity:0.05;stroke:#000000;stroke-linecap:square;"/>
   </g>
   <g id="line2d_146">
    <path clip-path="url(#p9a7cab0ebe)" d="M 44.52 154.370961 
L 78.372 148.85862 
L 112.224 133.455757 
L 146.076 105.980309 
L 179.928 89.752894 
L 213.78 95.868203 
" style="fill:none;opacity:0.05;stroke:#000000;stroke-linecap:square;"/>
   </g>
   <g id="line2d_147">
    <path clip-path="url(#p9a7cab0ebe)" d="M 44.52 151.284849 
L 78.372 146.182052 
L 112.224 126.969061 
L 146.076 115.743869 
L 179.928 117.124544 
L 213.78 116.262002 
" style="fill:none;opacity:0.05;stroke:#000000;stroke-linecap:square;"/>
   </g>
   <g id="line2d_148">
    <path clip-path="url(#p9a7cab0ebe)" d="M 44.52 152.669268 
L 78.372 148.042837 
L 112.224 142.179134 
L 146.076 127.5973 
L 179.928 123.96081 
L 213.78 134.437211 
" style="fill:none;opacity:0.05;stroke:#000000;stroke-linecap:square;"/>
   </g>
   <g id="line2d_149">
    <path clip-path="url(#p9a7cab0ebe)" d="M 44.52 153.807947 
L 78.372 147.324993 
L 112.224 141.186507 
L 146.076 117.240314 
L 179.928 98.152096 
L 213.78 115.720856 
" style="fill:none;opacity:0.05;stroke:#000000;stroke-linecap:square;"/>
   </g>
   <g id="line2d_150">
    <path clip-path="url(#p9a7cab0ebe)" d="M 44.52 153.909698 
L 78.372 147.426017 
L 112.224 132.726365 
L 146.076 116.125396 
L 179.928 110.577161 
L 213.78 119.922035 
" style="fill:none;opacity:0.05;stroke:#000000;stroke-linecap:square;"/>
   </g>
   <g id="line2d_151">
    <path clip-path="url(#p9a7cab0ebe)" d="M 44.52 153.983576 
L 78.372 148.162487 
L 112.224 123.67058 
L 146.076 104.938748 
L 179.928 108.050886 
L 213.78 116.518779 
" style="fill:none;opacity:0.05;stroke:#000000;stroke-linecap:square;"/>
   </g>
   <g id="line2d_152">
    <path clip-path="url(#p9a7cab0ebe)" d="M 44.52 154.396809 
L 78.372 148.278356 
L 112.224 135.651385 
L 146.076 114.547632 
L 179.928 95.669464 
L 213.78 98.245953 
" style="fill:none;opacity:0.05;stroke:#000000;stroke-linecap:square;"/>
   </g>
   <g id="line2d_153">
    <path clip-path="url(#p9a7cab0ebe)" d="M 44.52 153.880378 
L 78.372 148.14528 
L 112.224 136.243534 
L 146.076 112.825353 
L 179.928 99.13701 
L 213.78 107.818586 
" style="fill:none;opacity:0.05;stroke:#000000;stroke-linecap:square;"/>
   </g>
   <g id="line2d_154">
    <path clip-path="url(#p9a7cab0ebe)" d="M 44.52 153.264457 
L 78.372 149.303906 
L 112.224 133.95156 
L 146.076 120.029522 
L 179.928 115.957639 
L 213.78 110.476707 
" style="fill:none;opacity:0.05;stroke:#000000;stroke-linecap:square;"/>
   </g>
   <g id="line2d_155">
    <path clip-path="url(#p9a7cab0ebe)" d="M 44.52 154.64331 
L 78.372 151.896335 
L 112.224 137.552577 
L 146.076 120.643273 
L 179.928 114.783585 
L 213.78 105.695557 
" style="fill:none;opacity:0.05;stroke:#000000;stroke-linecap:square;"/>
   </g>
   <g id="line2d_156">
    <path clip-path="url(#p9a7cab0ebe)" d="M 44.52 152.062909 
L 78.372 143.00276 
L 112.224 122.352124 
L 146.076 95.541848 
L 179.928 75.762176 
L 213.78 72.568782 
" style="fill:none;opacity:0.05;stroke:#000000;stroke-linecap:square;"/>
   </g>
   <g id="line2d_157">
    <path clip-path="url(#p9a7cab0ebe)" d="M 44.52 153.184969 
L 78.372 146.914364 
L 112.224 127.290005 
L 146.076 112.005206 
L 179.928 103.129442 
L 213.78 95.576352 
" style="fill:none;opacity:0.05;stroke:#000000;stroke-linecap:square;"/>
   </g>
   <g id="line2d_158">
    <path clip-path="url(#p9a7cab0ebe)" d="M 44.52 151.661777 
L 78.372 138.990452 
L 112.224 116.341642 
L 146.076 81.849994 
L 179.928 49.613106 
L 213.78 51.47196 
" style="fill:none;opacity:0.05;stroke:#000000;stroke-linecap:square;"/>
   </g>
   <g id="line2d_159">
    <path clip-path="url(#p9a7cab0ebe)" d="M 44.52 153.4982 
L 78.372 149.503235 
L 112.224 134.827473 
L 146.076 118.76991 
L 179.928 103.726116 
L 213.78 77.136633 
" style="fill:none;opacity:0.05;stroke:#000000;stroke-linecap:square;"/>
   </g>
   <g id="line2d_160">
    <path clip-path="url(#p9a7cab0ebe)" d="M 44.52 154.053151 
L 78.372 147.146818 
L 112.224 132.763701 
L 146.076 119.387322 
L 179.928 116.122885 
L 213.78 126.816974 
" style="fill:none;opacity:0.05;stroke:#000000;stroke-linecap:square;"/>
   </g>
   <g id="line2d_161">
    <path clip-path="url(#p9a7cab0ebe)" d="M 44.52 149.638064 
L 78.372 146.080485 
L 112.224 135.587188 
L 146.076 124.604346 
L 179.928 122.874813 
L 213.78 122.592071 
" style="fill:none;opacity:0.05;stroke:#000000;stroke-linecap:square;"/>
   </g>
   <g id="line2d_162">
    <path clip-path="url(#p9a7cab0ebe)" d="M 44.52 153.781712 
L 78.372 148.902763 
L 112.224 139.687283 
L 146.076 116.887259 
L 179.928 92.004952 
L 213.78 83.15672 
" style="fill:none;opacity:0.05;stroke:#000000;stroke-linecap:square;"/>
   </g>
   <g id="line2d_163">
    <path clip-path="url(#p9a7cab0ebe)" d="M 44.52 153.619949 
L 78.372 146.421713 
L 112.224 122.758635 
L 146.076 109.726309 
L 179.928 116.155131 
L 213.78 128.618462 
" style="fill:none;opacity:0.05;stroke:#000000;stroke-linecap:square;"/>
   </g>
   <g id="line2d_164">
    <path clip-path="url(#p9a7cab0ebe)" d="M 44.52 154.452641 
L 78.372 146.127847 
L 112.224 145.058701 
L 146.076 116.435234 
L 179.928 84.463557 
L 213.78 122.499737 
" style="fill:none;opacity:0.05;stroke:#000000;stroke-linecap:square;"/>
   </g>
   <g id="line2d_165">
    <path clip-path="url(#p9a7cab0ebe)" d="M 44.52 154.646549 
L 78.372 148.138698 
L 112.224 135.165431 
L 146.076 106.255059 
L 179.928 47.782162 
L 210.145822 -1 
" style="fill:none;opacity:0.05;stroke:#000000;stroke-linecap:square;"/>
   </g>
   <g id="line2d_166">
    <path clip-path="url(#p9a7cab0ebe)" d="M 44.52 153.394166 
L 78.372 145.514414 
L 112.224 108.758774 
L 146.076 99.832572 
L 179.928 85.42506 
L 213.78 40.29121 
" style="fill:none;opacity:0.05;stroke:#000000;stroke-linecap:square;"/>
   </g>
   <g id="line2d_167">
    <path clip-path="url(#p9a7cab0ebe)" d="M 44.52 152.523865 
L 78.372 148.215616 
L 112.224 122.287081 
L 146.076 118.798992 
L 179.928 119.878412 
L 213.78 102.510904 
" style="fill:none;opacity:0.05;stroke:#000000;stroke-linecap:square;"/>
   </g>
   <g id="line2d_168">
    <path clip-path="url(#p9a7cab0ebe)" d="M 44.52 154.271751 
L 78.372 145.549392 
L 112.224 127.544153 
L 146.076 96.265046 
L 179.928 63.60745 
L 213.78 69.223237 
" style="fill:none;opacity:0.05;stroke:#000000;stroke-linecap:square;"/>
   </g>
   <g id="line2d_169">
    <path clip-path="url(#p9a7cab0ebe)" d="M 44.52 154.464161 
L 78.372 146.733395 
L 112.224 135.635481 
L 146.076 107.538303 
L 179.928 73.449145 
L 213.78 82.744306 
" style="fill:none;opacity:0.05;stroke:#000000;stroke-linecap:square;"/>
   </g>
   <g id="line2d_170">
    <path clip-path="url(#p9a7cab0ebe)" d="M 44.52 153.966164 
L 78.372 147.608839 
L 112.224 138.476212 
L 146.076 123.029006 
L 179.928 103.140726 
L 213.78 98.459662 
" style="fill:none;opacity:0.05;stroke:#000000;stroke-linecap:square;"/>
   </g>
   <g id="line2d_171">
    <path clip-path="url(#p9a7cab0ebe)" d="M 44.52 154.354057 
L 78.372 141.208381 
L 112.224 138.727502 
L 146.076 95.586439 
L 179.928 30.605376 
L 213.78 91.341187 
" style="fill:none;opacity:0.05;stroke:#000000;stroke-linecap:square;"/>
   </g>
   <g id="line2d_172">
    <path clip-path="url(#p9a7cab0ebe)" d="M 44.52 153.991313 
L 78.372 139.362993 
L 112.224 113.714126 
L 146.076 74.316821 
L 179.928 61.466596 
L 213.78 107.874854 
" style="fill:none;opacity:0.05;stroke:#000000;stroke-linecap:square;"/>
   </g>
   <g id="line2d_173">
    <path clip-path="url(#p9a7cab0ebe)" d="M 44.52 153.801128 
L 78.372 149.148248 
L 112.224 138.951011 
L 146.076 125.843882 
L 179.928 110.563093 
L 213.78 96.513061 
" style="fill:none;opacity:0.05;stroke:#000000;stroke-linecap:square;"/>
   </g>
   <g id="line2d_174">
    <path clip-path="url(#p9a7cab0ebe)" d="M 44.52 153.268842 
L 78.372 146.206814 
L 112.224 134.312846 
L 146.076 117.904496 
L 179.928 107.38264 
L 213.78 113.571278 
" style="fill:none;opacity:0.05;stroke:#000000;stroke-linecap:square;"/>
   </g>
   <g id="line2d_175">
    <path clip-path="url(#p9a7cab0ebe)" d="M 44.52 154.189667 
L 78.372 143.880917 
L 112.224 131.270352 
L 146.076 98.234836 
L 179.928 65.229664 
L 213.78 91.569493 
" style="fill:none;opacity:0.05;stroke:#000000;stroke-linecap:square;"/>
   </g>
   <g id="line2d_176">
    <path clip-path="url(#p9a7cab0ebe)" d="M 44.52 153.877958 
L 78.372 146.178227 
L 112.224 138.4005 
L 146.076 108.795837 
L 179.928 70.904627 
L 213.78 80.890502 
" style="fill:none;opacity:0.05;stroke:#000000;stroke-linecap:square;"/>
   </g>
   <g id="line2d_177">
    <path clip-path="url(#p9a7cab0ebe)" d="M 44.52 154.712939 
L 78.372 148.787954 
L 112.224 136.182233 
L 146.076 114.197676 
L 179.928 90.924176 
L 213.78 90.532798 
" style="fill:none;opacity:0.05;stroke:#000000;stroke-linecap:square;"/>
   </g>
   <g id="line2d_178">
    <path clip-path="url(#p9a7cab0ebe)" d="M 44.52 154.061205 
L 78.372 147.758482 
L 112.224 134.254776 
L 146.076 114.416722 
L 179.928 96.874156 
L 213.78 96.000064 
" style="fill:none;opacity:0.05;stroke:#000000;stroke-linecap:square;"/>
   </g>
   <g id="line2d_179">
    <path clip-path="url(#p9a7cab0ebe)" d="M 44.52 149.144464 
L 78.372 146.8984 
L 112.224 124.592497 
L 146.076 120.134343 
L 179.928 114.408977 
L 213.78 66.844136 
" style="fill:none;opacity:0.05;stroke:#000000;stroke-linecap:square;"/>
   </g>
   <g id="line2d_180">
    <path clip-path="url(#p9a7cab0ebe)" d="M 44.52 151.86517 
L 78.372 146.437819 
L 112.224 128.980085 
L 146.076 110.779951 
L 179.928 90.048386 
L 213.78 50.823091 
" style="fill:none;opacity:0.05;stroke:#000000;stroke-linecap:square;"/>
   </g>
   <g id="line2d_181">
    <path clip-path="url(#p9a7cab0ebe)" d="M 44.52 152.980553 
L 78.372 145.463944 
L 112.224 132.687393 
L 146.076 109.309041 
L 179.928 76.073123 
L 213.78 53.388439 
" style="fill:none;opacity:0.05;stroke:#000000;stroke-linecap:square;"/>
   </g>
   <g id="line2d_182">
    <path clip-path="url(#p9a7cab0ebe)" d="M 44.52 152.303348 
L 78.372 147.226786 
L 112.224 131.467471 
L 146.076 110.778147 
L 179.928 107.538446 
L 213.78 112.451782 
" style="fill:none;opacity:0.05;stroke:#000000;stroke-linecap:square;"/>
   </g>
   <g id="line2d_183">
    <path clip-path="url(#p9a7cab0ebe)" d="M 44.52 153.807947 
L 78.372 147.324993 
L 112.224 141.186507 
L 146.076 117.240314 
L 179.928 98.152096 
L 213.78 115.720856 
" style="fill:none;opacity:0.05;stroke:#000000;stroke-linecap:square;"/>
   </g>
   <g id="line2d_184">
    <path clip-path="url(#p9a7cab0ebe)" d="M 44.52 152.380261 
L 78.372 142.888362 
L 112.224 122.247256 
L 146.076 98.517222 
L 179.928 93.36754 
L 213.78 108.923076 
" style="fill:none;opacity:0.05;stroke:#000000;stroke-linecap:square;"/>
   </g>
   <g id="line2d_185">
    <path clip-path="url(#p9a7cab0ebe)" d="M 44.52 153.902757 
L 78.372 146.626647 
L 112.224 131.968616 
L 146.076 109.30331 
L 179.928 93.544417 
L 213.78 101.663272 
" style="fill:none;opacity:0.05;stroke:#000000;stroke-linecap:square;"/>
   </g>
   <g id="line2d_186">
    <path clip-path="url(#p9a7cab0ebe)" d="M 44.52 152.333099 
L 78.372 147.770293 
L 112.224 132.289373 
L 146.076 119.425802 
L 179.928 117.258766 
L 213.78 115.512456 
" style="fill:none;opacity:0.05;stroke:#000000;stroke-linecap:square;"/>
   </g>
   <g id="line2d_187">
    <path clip-path="url(#p9a7cab0ebe)" d="M 44.52 154.452641 
L 78.372 146.127847 
L 112.224 145.058701 
L 146.076 116.435234 
L 179.928 84.463557 
L 213.78 122.499737 
" style="fill:none;opacity:0.05;stroke:#000000;stroke-linecap:square;"/>
   </g>
   <g id="line2d_188">
    <path clip-path="url(#p9a7cab0ebe)" d="M 44.52 151.842961 
L 78.372 143.7625 
L 112.224 127.970084 
L 146.076 110.738261 
L 179.928 96.241826 
L 213.78 90.953698 
" style="fill:none;opacity:0.05;stroke:#000000;stroke-linecap:square;"/>
   </g>
   <g id="line2d_189">
    <path clip-path="url(#p9a7cab0ebe)" d="M 44.52 154.546392 
L 78.372 150.323698 
L 112.224 143.09894 
L 146.076 123.141296 
L 179.928 95.16403 
L 213.78 81.661054 
" style="fill:none;opacity:0.05;stroke:#000000;stroke-linecap:square;"/>
   </g>
   <g id="line2d_190">
    <path clip-path="url(#p9a7cab0ebe)" d="M 44.52 153.48145 
L 78.372 147.216499 
L 112.224 127.254071 
L 146.076 109.356166 
L 179.928 102.00491 
L 213.78 100.835628 
" style="fill:none;opacity:0.05;stroke:#000000;stroke-linecap:square;"/>
   </g>
   <g id="line2d_191">
    <path clip-path="url(#p9a7cab0ebe)" d="M 44.52 153.768034 
L 78.372 149.135759 
L 112.224 140.554446 
L 146.076 116.162263 
L 179.928 103.090662 
L 213.78 114.646928 
" style="fill:none;opacity:0.05;stroke:#000000;stroke-linecap:square;"/>
   </g>
   <g id="line2d_192">
    <path clip-path="url(#p9a7cab0ebe)" d="M 44.52 153.069073 
L 78.372 146.624608 
L 112.224 131.916929 
L 146.076 116.501163 
L 179.928 103.001992 
L 213.78 95.236716 
" style="fill:none;opacity:0.05;stroke:#000000;stroke-linecap:square;"/>
   </g>
   <g id="line2d_193">
    <path clip-path="url(#p9a7cab0ebe)" d="M 44.52 153.646707 
L 78.372 144.607489 
L 112.224 122.683384 
L 146.076 95.109468 
L 179.928 78.694651 
L 213.78 88.948738 
" style="fill:none;opacity:0.05;stroke:#000000;stroke-linecap:square;"/>
   </g>
   <g id="line2d_194">
    <path clip-path="url(#p9a7cab0ebe)" d="M 44.52 153.646532 
L 78.372 147.970728 
L 112.224 135.356958 
L 146.076 113.285633 
L 179.928 105.821963 
L 213.78 117.310031 
" style="fill:none;opacity:0.05;stroke:#000000;stroke-linecap:square;"/>
   </g>
   <g id="line2d_195">
    <path clip-path="url(#p9a7cab0ebe)" d="M 44.52 153.781712 
L 78.372 148.902763 
L 112.224 139.687283 
L 146.076 116.887259 
L 179.928 92.004952 
L 213.78 83.15672 
" style="fill:none;opacity:0.05;stroke:#000000;stroke-linecap:square;"/>
   </g>
   <g id="line2d_196">
    <path clip-path="url(#p9a7cab0ebe)" d="M 44.52 153.184969 
L 78.372 146.914364 
L 112.224 127.290005 
L 146.076 112.005206 
L 179.928 103.129442 
L 213.78 95.576352 
" style="fill:none;opacity:0.05;stroke:#000000;stroke-linecap:square;"/>
   </g>
   <g id="line2d_197">
    <path clip-path="url(#p9a7cab0ebe)" d="M 44.52 151.043567 
L 78.372 145.99466 
L 112.224 137.583438 
L 146.076 123.357269 
L 179.928 115.548105 
L 213.78 116.743147 
" style="fill:none;opacity:0.05;stroke:#000000;stroke-linecap:square;"/>
   </g>
   <g id="line2d_198">
    <path clip-path="url(#p9a7cab0ebe)" d="M 44.52 152.751349 
L 78.372 144.360559 
L 112.224 125.835933 
L 146.076 110.122946 
L 179.928 103.1174 
L 213.78 108.401766 
" style="fill:none;opacity:0.05;stroke:#000000;stroke-linecap:square;"/>
   </g>
   <g id="line2d_199">
    <path clip-path="url(#p9a7cab0ebe)" d="M 44.52 153.105533 
L 78.372 147.612482 
L 112.224 133.008578 
L 146.076 117.330642 
L 179.928 97.982754 
L 213.78 70.741406 
" style="fill:none;opacity:0.05;stroke:#000000;stroke-linecap:square;"/>
   </g>
   <g id="line2d_200">
    <path clip-path="url(#p9a7cab0ebe)" d="M 44.52 154.298162 
L 78.372 148.937666 
L 112.224 139.552 
L 146.076 113.632455 
L 179.928 94.048338 
L 213.78 105.52762 
" style="fill:none;opacity:0.05;stroke:#000000;stroke-linecap:square;"/>
   </g>
   <g id="line2d_201">
    <path clip-path="url(#p9a7cab0ebe)" d="M 44.52 151.673345 
L 78.372 142.690216 
L 112.224 135.622666 
L 146.076 113.390488 
L 179.928 95.560812 
L 213.78 109.000345 
" style="fill:none;opacity:0.05;stroke:#000000;stroke-linecap:square;"/>
   </g>
   <g id="line2d_202">
    <path clip-path="url(#p9a7cab0ebe)" d="M 44.52 153.074984 
L 78.372 147.78199 
L 112.224 138.047865 
L 146.076 106.029059 
L 179.928 90.983626 
L 213.78 108.48778 
" style="fill:none;opacity:0.05;stroke:#000000;stroke-linecap:square;"/>
   </g>
   <g id="line2d_203">
    <path clip-path="url(#p9a7cab0ebe)" d="M 44.52 152.776062 
L 78.372 146.469633 
L 112.224 127.385984 
L 146.076 117.360786 
L 179.928 117.069948 
L 213.78 118.982145 
" style="fill:none;opacity:0.05;stroke:#000000;stroke-linecap:square;"/>
   </g>
   <g id="line2d_204">
    <path clip-path="url(#p9a7cab0ebe)" d="M 44.52 154.044734 
L 78.372 145.51869 
L 112.224 120.798696 
L 146.076 98.061767 
L 179.928 91.579161 
L 213.78 105.161449 
" style="fill:none;opacity:0.05;stroke:#000000;stroke-linecap:square;"/>
   </g>
   <g id="line2d_205">
    <path clip-path="url(#p9a7cab0ebe)" d="M 44.52 154.437788 
L 78.372 145.880303 
L 112.224 135.359031 
L 146.076 108.032794 
L 179.928 62.387792 
L 213.78 59.437703 
" style="fill:none;opacity:0.05;stroke:#000000;stroke-linecap:square;"/>
   </g>
   <g id="line2d_206">
    <path clip-path="url(#p9a7cab0ebe)" d="M 44.52 153.515654 
L 78.372 146.77244 
L 112.224 112.125512 
L 146.076 89.608522 
L 179.928 52.403685 
L 195.724619 -1 
" style="fill:none;opacity:0.05;stroke:#000000;stroke-linecap:square;"/>
   </g>
   <g id="line2d_207">
    <path clip-path="url(#p9a7cab0ebe)" d="M 44.52 154.236692 
L 78.372 147.396927 
L 112.224 130.472725 
L 146.076 107.540131 
L 179.928 62.280909 
L 213.630754 -1 
" style="fill:none;opacity:0.05;stroke:#000000;stroke-linecap:square;"/>
   </g>
   <g id="line2d_208">
    <path clip-path="url(#p9a7cab0ebe)" d="M 44.52 146.682583 
L 78.372 143.718699 
L 112.224 126.758791 
L 146.076 121.058441 
L 179.928 123.052754 
L 213.78 116.55923 
" style="fill:none;opacity:0.05;stroke:#000000;stroke-linecap:square;"/>
   </g>
   <g id="line2d_209">
    <path clip-path="url(#p9a7cab0ebe)" d="M 44.52 151.996046 
L 78.372 147.216061 
L 112.224 132.171649 
L 146.076 122.416024 
L 179.928 114.272513 
L 213.78 97.810301 
" style="fill:none;opacity:0.05;stroke:#000000;stroke-linecap:square;"/>
   </g>
   <g id="line2d_210">
    <path clip-path="url(#p9a7cab0ebe)" d="M 44.52 153.646707 
L 78.372 144.607489 
L 112.224 122.683384 
L 146.076 95.109468 
L 179.928 78.694651 
L 213.78 88.948738 
" style="fill:none;opacity:0.05;stroke:#000000;stroke-linecap:square;"/>
   </g>
   <g id="line2d_211">
    <path clip-path="url(#p9a7cab0ebe)" d="M 47.775 155.793078 
L 47.775 156.255438 
L 47.775 156.203378 
L 47.775 155.153047 
L 47.775 152.637367 
L 47.775 145.443484 
L 47.775 150.324961 
" style="fill:none;opacity:0.5;stroke:#1f77b4;stroke-linecap:square;"/>
    <defs>
     <path d="M 0 1.5 
C 0.397805 1.5 0.77937 1.341951 1.06066 1.06066 
C 1.341951 0.77937 1.5 0.397805 1.5 0 
C 1.5 -0.397805 1.341951 -0.77937 1.06066 -1.06066 
C 0.77937 -1.341951 0.397805 -1.5 0 -1.5 
C -0.397805 -1.5 -0.77937 -1.341951 -1.06066 -1.06066 
C -1.341951 -0.77937 -1.5 -0.397805 -1.5 0 
C -1.5 0.397805 -1.341951 0.77937 -1.06066 1.06066 
C -0.77937 1.341951 -0.397805 1.5 0 1.5 
z
" id="m67e02879f7" style="stroke:#1f77b4;"/>
    </defs>
    <g clip-path="url(#p9a7cab0ebe)">
     <use style="fill:#1f77b4;opacity:0.5;stroke:#1f77b4;" x="47.775" xlink:href="#m67e02879f7" y="155.793078"/>
     <use style="fill:#1f77b4;opacity:0.5;stroke:#1f77b4;" x="47.775" xlink:href="#m67e02879f7" y="156.255438"/>
     <use style="fill:#1f77b4;opacity:0.5;stroke:#1f77b4;" x="47.775" xlink:href="#m67e02879f7" y="156.203378"/>
     <use style="fill:#1f77b4;opacity:0.5;stroke:#1f77b4;" x="47.775" xlink:href="#m67e02879f7" y="155.153047"/>
     <use style="fill:#1f77b4;opacity:0.5;stroke:#1f77b4;" x="47.775" xlink:href="#m67e02879f7" y="152.637367"/>
     <use style="fill:#1f77b4;opacity:0.5;stroke:#1f77b4;" x="47.775" xlink:href="#m67e02879f7" y="145.443484"/>
     <use style="fill:#1f77b4;opacity:0.5;stroke:#1f77b4;" x="47.775" xlink:href="#m67e02879f7" y="150.324961"/>
    </g>
   </g>
   <g id="line2d_212">
    <path clip-path="url(#p9a7cab0ebe)" d="M 80.325 154.957696 
L 80.325 155.782628 
L 80.325 149.605389 
L 80.325 146.774374 
L 80.325 148.924735 
L 80.325 145.443484 
L 80.325 138.274883 
" style="fill:none;opacity:0.5;stroke:#ff7f0e;stroke-linecap:square;"/>
    <defs>
     <path d="M 0 1.5 
C 0.397805 1.5 0.77937 1.341951 1.06066 1.06066 
C 1.341951 0.77937 1.5 0.397805 1.5 0 
C 1.5 -0.397805 1.341951 -0.77937 1.06066 -1.06066 
C 0.77937 -1.341951 0.397805 -1.5 0 -1.5 
C -0.397805 -1.5 -0.77937 -1.341951 -1.06066 -1.06066 
C -1.341951 -0.77937 -1.5 -0.397805 -1.5 0 
C -1.5 0.397805 -1.341951 0.77937 -1.06066 1.06066 
C -0.77937 1.341951 -0.397805 1.5 0 1.5 
z
" id="m9fc94f8778" style="stroke:#ff7f0e;"/>
    </defs>
    <g clip-path="url(#p9a7cab0ebe)">
     <use style="fill:#ff7f0e;opacity:0.5;stroke:#ff7f0e;" x="80.325" xlink:href="#m9fc94f8778" y="154.957696"/>
     <use style="fill:#ff7f0e;opacity:0.5;stroke:#ff7f0e;" x="80.325" xlink:href="#m9fc94f8778" y="155.782628"/>
     <use style="fill:#ff7f0e;opacity:0.5;stroke:#ff7f0e;" x="80.325" xlink:href="#m9fc94f8778" y="149.605389"/>
     <use style="fill:#ff7f0e;opacity:0.5;stroke:#ff7f0e;" x="80.325" xlink:href="#m9fc94f8778" y="146.774374"/>
     <use style="fill:#ff7f0e;opacity:0.5;stroke:#ff7f0e;" x="80.325" xlink:href="#m9fc94f8778" y="148.924735"/>
     <use style="fill:#ff7f0e;opacity:0.5;stroke:#ff7f0e;" x="80.325" xlink:href="#m9fc94f8778" y="145.443484"/>
     <use style="fill:#ff7f0e;opacity:0.5;stroke:#ff7f0e;" x="80.325" xlink:href="#m9fc94f8778" y="138.274883"/>
    </g>
   </g>
   <g id="line2d_213">
    <path clip-path="url(#p9a7cab0ebe)" d="M 112.875 149.9454 
L 112.875 143.867807 
L 112.875 132.010751 
L 112.875 117.449021 
L 112.875 119.223674 
L 112.875 90.910907 
L 112.875 120.199765 
" style="fill:none;opacity:0.5;stroke:#2ca02c;stroke-linecap:square;"/>
    <defs>
     <path d="M 0 1.5 
C 0.397805 1.5 0.77937 1.341951 1.06066 1.06066 
C 1.341951 0.77937 1.5 0.397805 1.5 0 
C 1.5 -0.397805 1.341951 -0.77937 1.06066 -1.06066 
C 0.77937 -1.341951 0.397805 -1.5 0 -1.5 
C -0.397805 -1.5 -0.77937 -1.341951 -1.06066 -1.06066 
C -1.341951 -0.77937 -1.5 -0.397805 -1.5 0 
C -1.5 0.397805 -1.341951 0.77937 -1.06066 1.06066 
C -0.77937 1.341951 -0.397805 1.5 0 1.5 
z
" id="m5411e8f66f" style="stroke:#2ca02c;"/>
    </defs>
    <g clip-path="url(#p9a7cab0ebe)">
     <use style="fill:#2ca02c;opacity:0.5;stroke:#2ca02c;" x="112.875" xlink:href="#m5411e8f66f" y="149.9454"/>
     <use style="fill:#2ca02c;opacity:0.5;stroke:#2ca02c;" x="112.875" xlink:href="#m5411e8f66f" y="143.867807"/>
     <use style="fill:#2ca02c;opacity:0.5;stroke:#2ca02c;" x="112.875" xlink:href="#m5411e8f66f" y="132.010751"/>
     <use style="fill:#2ca02c;opacity:0.5;stroke:#2ca02c;" x="112.875" xlink:href="#m5411e8f66f" y="117.449021"/>
     <use style="fill:#2ca02c;opacity:0.5;stroke:#2ca02c;" x="112.875" xlink:href="#m5411e8f66f" y="119.223674"/>
     <use style="fill:#2ca02c;opacity:0.5;stroke:#2ca02c;" x="112.875" xlink:href="#m5411e8f66f" y="90.910907"/>
     <use style="fill:#2ca02c;opacity:0.5;stroke:#2ca02c;" x="112.875" xlink:href="#m5411e8f66f" y="120.199765"/>
    </g>
   </g>
   <g id="line2d_214">
    <path clip-path="url(#p9a7cab0ebe)" d="M 145.425 139.642348 
L 145.425 121.456597 
L 145.425 131.864129 
L 145.425 84.532807 
L 145.425 134.074204 
L 145.425 134.536969 
L 145.425 90.07457 
" style="fill:none;opacity:0.5;stroke:#d62728;stroke-linecap:square;"/>
    <defs>
     <path d="M 0 1.5 
C 0.397805 1.5 0.77937 1.341951 1.06066 1.06066 
C 1.341951 0.77937 1.5 0.397805 1.5 0 
C 1.5 -0.397805 1.341951 -0.77937 1.06066 -1.06066 
C 0.77937 -1.341951 0.397805 -1.5 0 -1.5 
C -0.397805 -1.5 -0.77937 -1.341951 -1.06066 -1.06066 
C -1.341951 -0.77937 -1.5 -0.397805 -1.5 0 
C -1.5 0.397805 -1.341951 0.77937 -1.06066 1.06066 
C -0.77937 1.341951 -0.397805 1.5 0 1.5 
z
" id="mbc59dddcff" style="stroke:#d62728;"/>
    </defs>
    <g clip-path="url(#p9a7cab0ebe)">
     <use style="fill:#d62728;opacity:0.5;stroke:#d62728;" x="145.425" xlink:href="#mbc59dddcff" y="139.642348"/>
     <use style="fill:#d62728;opacity:0.5;stroke:#d62728;" x="145.425" xlink:href="#mbc59dddcff" y="121.456597"/>
     <use style="fill:#d62728;opacity:0.5;stroke:#d62728;" x="145.425" xlink:href="#mbc59dddcff" y="131.864129"/>
     <use style="fill:#d62728;opacity:0.5;stroke:#d62728;" x="145.425" xlink:href="#mbc59dddcff" y="84.532807"/>
     <use style="fill:#d62728;opacity:0.5;stroke:#d62728;" x="145.425" xlink:href="#mbc59dddcff" y="134.074204"/>
     <use style="fill:#d62728;opacity:0.5;stroke:#d62728;" x="145.425" xlink:href="#mbc59dddcff" y="134.536969"/>
     <use style="fill:#d62728;opacity:0.5;stroke:#d62728;" x="145.425" xlink:href="#mbc59dddcff" y="90.07457"/>
    </g>
   </g>
   <g id="line2d_215">
    <path clip-path="url(#p9a7cab0ebe)" d="M 177.975 127.390069 
L 177.975 133.371418 
L 177.975 125.852628 
L 177.975 66.578509 
L 177.975 108.085776 
L 177.975 47.284844 
L 177.975 78.024491 
" style="fill:none;opacity:0.5;stroke:#9467bd;stroke-linecap:square;"/>
    <defs>
     <path d="M 0 1.5 
C 0.397805 1.5 0.77937 1.341951 1.06066 1.06066 
C 1.341951 0.77937 1.5 0.397805 1.5 0 
C 1.5 -0.397805 1.341951 -0.77937 1.06066 -1.06066 
C 0.77937 -1.341951 0.397805 -1.5 0 -1.5 
C -0.397805 -1.5 -0.77937 -1.341951 -1.06066 -1.06066 
C -1.341951 -0.77937 -1.5 -0.397805 -1.5 0 
C -1.5 0.397805 -1.341951 0.77937 -1.06066 1.06066 
C -0.77937 1.341951 -0.397805 1.5 0 1.5 
z
" id="ma418f76922" style="stroke:#9467bd;"/>
    </defs>
    <g clip-path="url(#p9a7cab0ebe)">
     <use style="fill:#9467bd;opacity:0.5;stroke:#9467bd;" x="177.975" xlink:href="#ma418f76922" y="127.390069"/>
     <use style="fill:#9467bd;opacity:0.5;stroke:#9467bd;" x="177.975" xlink:href="#ma418f76922" y="133.371418"/>
     <use style="fill:#9467bd;opacity:0.5;stroke:#9467bd;" x="177.975" xlink:href="#ma418f76922" y="125.852628"/>
     <use style="fill:#9467bd;opacity:0.5;stroke:#9467bd;" x="177.975" xlink:href="#ma418f76922" y="66.578509"/>
     <use style="fill:#9467bd;opacity:0.5;stroke:#9467bd;" x="177.975" xlink:href="#ma418f76922" y="108.085776"/>
     <use style="fill:#9467bd;opacity:0.5;stroke:#9467bd;" x="177.975" xlink:href="#ma418f76922" y="47.284844"/>
     <use style="fill:#9467bd;opacity:0.5;stroke:#9467bd;" x="177.975" xlink:href="#ma418f76922" y="78.024491"/>
    </g>
   </g>
   <g id="line2d_216">
    <path clip-path="url(#p9a7cab0ebe)" d="M 210.525 130.7316 
L 210.525 112.094953 
L 210.525 127.905336 
L 210.525 88.123667 
L 210.525 119.223674 
L 210.525 36.378329 
L 210.525 71.999452 
" style="fill:none;opacity:0.5;stroke:#8c564b;stroke-linecap:square;"/>
    <defs>
     <path d="M 0 1.5 
C 0.397805 1.5 0.77937 1.341951 1.06066 1.06066 
C 1.341951 0.77937 1.5 0.397805 1.5 0 
C 1.5 -0.397805 1.341951 -0.77937 1.06066 -1.06066 
C 0.77937 -1.341951 0.397805 -1.5 0 -1.5 
C -0.397805 -1.5 -0.77937 -1.341951 -1.06066 -1.06066 
C -1.341951 -0.77937 -1.5 -0.397805 -1.5 0 
C -1.5 0.397805 -1.341951 0.77937 -1.06066 1.06066 
C -0.77937 1.341951 -0.397805 1.5 0 1.5 
z
" id="mac54efa1e8" style="stroke:#8c564b;"/>
    </defs>
    <g clip-path="url(#p9a7cab0ebe)">
     <use style="fill:#8c564b;opacity:0.5;stroke:#8c564b;" x="210.525" xlink:href="#mac54efa1e8" y="130.7316"/>
     <use style="fill:#8c564b;opacity:0.5;stroke:#8c564b;" x="210.525" xlink:href="#mac54efa1e8" y="112.094953"/>
     <use style="fill:#8c564b;opacity:0.5;stroke:#8c564b;" x="210.525" xlink:href="#mac54efa1e8" y="127.905336"/>
     <use style="fill:#8c564b;opacity:0.5;stroke:#8c564b;" x="210.525" xlink:href="#mac54efa1e8" y="88.123667"/>
     <use style="fill:#8c564b;opacity:0.5;stroke:#8c564b;" x="210.525" xlink:href="#mac54efa1e8" y="119.223674"/>
     <use style="fill:#8c564b;opacity:0.5;stroke:#8c564b;" x="210.525" xlink:href="#mac54efa1e8" y="36.378329"/>
     <use style="fill:#8c564b;opacity:0.5;stroke:#8c564b;" x="210.525" xlink:href="#mac54efa1e8" y="71.999452"/>
    </g>
   </g>
   <g id="line2d_217">
    <path clip-path="url(#p9a7cab0ebe)" d="M 44.52 154.483368 
L 78.372 149.514591 
L 112.224 138.251361 
L 146.076 116.743941 
L 179.928 95.577603 
L 213.78 91.069193 
" style="fill:none;stroke:#000000;stroke-dasharray:7.4,3.2;stroke-dashoffset:0;stroke-width:2;"/>
   </g>
   <g id="line2d_218">
    <path clip-path="url(#p9a7cab0ebe)" d="M 44.52 153.199048 
L 78.372 146.534266 
L 112.224 133.380739 
L 146.076 113.604328 
L 179.928 95.438162 
L 213.78 90.80891 
" style="fill:none;stroke:#ff0000;stroke-linecap:square;stroke-width:2;"/>
   </g>
   <g id="line2d_219">
    <path clip-path="url(#p9a7cab0ebe)" d="M 47.775 142.457876 
L 80.325 133.5703 
L 112.875 127.182718 
L 145.425 118.812175 
L 177.975 113.44629 
L 210.525 106.588874 
" style="fill:none;stroke:#0000ff;stroke-dasharray:2,3.3;stroke-dashoffset:0;stroke-width:2;"/>
    <defs>
     <path d="M 0 -3 
L -0.673542 -0.927051 
L -2.85317 -0.927051 
L -1.089814 0.354102 
L -1.763356 2.427051 
L -0 1.145898 
L 1.763356 2.427051 
L 1.089814 0.354102 
L 2.85317 -0.927051 
L 0.673542 -0.927051 
z
" id="mb9d45404eb" style="stroke:#0000ff;stroke-linejoin:bevel;"/>
    </defs>
    <g clip-path="url(#p9a7cab0ebe)">
     <use style="fill:#0000ff;stroke:#0000ff;stroke-linejoin:bevel;" x="47.775" xlink:href="#mb9d45404eb" y="142.457876"/>
     <use style="fill:#0000ff;stroke:#0000ff;stroke-linejoin:bevel;" x="80.325" xlink:href="#mb9d45404eb" y="133.5703"/>
     <use style="fill:#0000ff;stroke:#0000ff;stroke-linejoin:bevel;" x="112.875" xlink:href="#mb9d45404eb" y="127.182718"/>
     <use style="fill:#0000ff;stroke:#0000ff;stroke-linejoin:bevel;" x="145.425" xlink:href="#mb9d45404eb" y="118.812175"/>
     <use style="fill:#0000ff;stroke:#0000ff;stroke-linejoin:bevel;" x="177.975" xlink:href="#mb9d45404eb" y="113.44629"/>
     <use style="fill:#0000ff;stroke:#0000ff;stroke-linejoin:bevel;" x="210.525" xlink:href="#mb9d45404eb" y="106.588874"/>
    </g>
   </g>
   <g id="patch_3">
    <path d="M 31.5 160.2 
L 31.5 21.6 
" style="fill:none;stroke:#000000;stroke-linecap:square;stroke-linejoin:miter;stroke-width:0.8;"/>
   </g>
   <g id="patch_4">
    <path d="M 226.8 160.2 
L 226.8 21.6 
" style="fill:none;stroke:#000000;stroke-linecap:square;stroke-linejoin:miter;stroke-width:0.8;"/>
   </g>
   <g id="patch_5">
    <path d="M 31.5 160.2 
L 226.8 160.2 
" style="fill:none;stroke:#000000;stroke-linecap:square;stroke-linejoin:miter;stroke-width:0.8;"/>
   </g>
   <g id="patch_6">
    <path d="M 31.5 21.6 
L 226.8 21.6 
" style="fill:none;stroke:#000000;stroke-linecap:square;stroke-linejoin:miter;stroke-width:0.8;"/>
   </g>
   <g id="legend_1">
    <g id="line2d_220">
     <path d="M 38.997 32.510998 
L 55.657 32.510998 
" style="fill:none;stroke:#000000;stroke-dasharray:7.4,3.2;stroke-dashoffset:0;stroke-width:2;"/>
    </g>
    <g id="line2d_221"/>
    <g id="text_13">
     <!-- NCBM -->
     <defs>
      <path d="M 9.8125 72.90625 
L 23.09375 72.90625 
L 55.421875 11.921875 
L 55.421875 72.90625 
L 64.984375 72.90625 
L 64.984375 0 
L 51.703125 0 
L 19.390625 60.984375 
L 19.390625 0 
L 9.8125 0 
z
" id="DejaVuSans-4e"/>
      <path d="M 64.40625 67.28125 
L 64.40625 56.890625 
Q 59.421875 61.53125 53.78125 63.8125 
Q 48.140625 66.109375 41.796875 66.109375 
Q 29.296875 66.109375 22.65625 58.46875 
Q 16.015625 50.828125 16.015625 36.375 
Q 16.015625 21.96875 22.65625 14.328125 
Q 29.296875 6.6875 41.796875 6.6875 
Q 48.140625 6.6875 53.78125 8.984375 
Q 59.421875 11.28125 64.40625 15.921875 
L 64.40625 5.609375 
Q 59.234375 2.09375 53.4375 0.328125 
Q 47.65625 -1.421875 41.21875 -1.421875 
Q 24.65625 -1.421875 15.125 8.703125 
Q 5.609375 18.84375 5.609375 36.375 
Q 5.609375 53.953125 15.125 64.078125 
Q 24.65625 74.21875 41.21875 74.21875 
Q 47.75 74.21875 53.53125 72.484375 
Q 59.328125 70.75 64.40625 67.28125 
z
" id="DejaVuSans-43"/>
      <path d="M 19.671875 34.8125 
L 19.671875 8.109375 
L 35.5 8.109375 
Q 43.453125 8.109375 47.28125 11.40625 
Q 51.125 14.703125 51.125 21.484375 
Q 51.125 28.328125 47.28125 31.5625 
Q 43.453125 34.8125 35.5 34.8125 
z
M 19.671875 64.796875 
L 19.671875 42.828125 
L 34.28125 42.828125 
Q 41.5 42.828125 45.03125 45.53125 
Q 48.578125 48.25 48.578125 53.8125 
Q 48.578125 59.328125 45.03125 62.0625 
Q 41.5 64.796875 34.28125 64.796875 
z
M 9.8125 72.90625 
L 35.015625 72.90625 
Q 46.296875 72.90625 52.390625 68.21875 
Q 58.5 63.53125 58.5 54.890625 
Q 58.5 48.1875 55.375 44.234375 
Q 52.25 40.28125 46.1875 39.3125 
Q 53.46875 37.75 57.5 32.78125 
Q 61.53125 27.828125 61.53125 20.40625 
Q 61.53125 10.640625 54.890625 5.3125 
Q 48.25 0 35.984375 0 
L 9.8125 0 
z
" id="DejaVuSans-42"/>
      <path d="M 9.8125 72.90625 
L 24.515625 72.90625 
L 43.109375 23.296875 
L 61.8125 72.90625 
L 76.515625 72.90625 
L 76.515625 0 
L 66.890625 0 
L 66.890625 64.015625 
L 48.09375 14.015625 
L 38.1875 14.015625 
L 19.390625 64.015625 
L 19.390625 0 
L 9.8125 0 
z
" id="DejaVuSans-4d"/>
     </defs>
     <g transform="translate(62.321 35.426498)scale(0.0833 -0.0833)">
      <use xlink:href="#DejaVuSans-4e"/>
      <use x="74.804688" xlink:href="#DejaVuSans-43"/>
      <use x="144.628906" xlink:href="#DejaVuSans-42"/>
      <use x="213.232422" xlink:href="#DejaVuSans-4d"/>
     </g>
    </g>
    <g id="line2d_222">
     <path d="M 38.997 44.737877 
L 55.657 44.737877 
" style="fill:none;stroke:#ff0000;stroke-linecap:square;stroke-width:2;"/>
    </g>
    <g id="line2d_223"/>
    <g id="text_14">
     <!-- CBM -->
     <g transform="translate(62.321 47.653377)scale(0.0833 -0.0833)">
      <use xlink:href="#DejaVuSans-43"/>
      <use x="69.824219" xlink:href="#DejaVuSans-42"/>
      <use x="138.427734" xlink:href="#DejaVuSans-4d"/>
     </g>
    </g>
    <g id="line2d_224">
     <path d="M 38.997 56.964755 
L 55.657 56.964755 
" style="fill:none;stroke:#0000ff;stroke-dasharray:2,3.3;stroke-dashoffset:0;stroke-width:2;"/>
    </g>
    <g id="line2d_225">
     <g>
      <use style="fill:#0000ff;stroke:#0000ff;stroke-linejoin:bevel;" x="47.327" xlink:href="#mb9d45404eb" y="56.964755"/>
     </g>
    </g>
    <g id="text_15">
     <!-- PLSR -->
     <defs>
      <path d="M 19.671875 64.796875 
L 19.671875 37.40625 
L 32.078125 37.40625 
Q 38.96875 37.40625 42.71875 40.96875 
Q 46.484375 44.53125 46.484375 51.125 
Q 46.484375 57.671875 42.71875 61.234375 
Q 38.96875 64.796875 32.078125 64.796875 
z
M 9.8125 72.90625 
L 32.078125 72.90625 
Q 44.34375 72.90625 50.609375 67.359375 
Q 56.890625 61.8125 56.890625 51.125 
Q 56.890625 40.328125 50.609375 34.8125 
Q 44.34375 29.296875 32.078125 29.296875 
L 19.671875 29.296875 
L 19.671875 0 
L 9.8125 0 
z
" id="DejaVuSans-50"/>
      <path d="M 9.8125 72.90625 
L 19.671875 72.90625 
L 19.671875 8.296875 
L 55.171875 8.296875 
L 55.171875 0 
L 9.8125 0 
z
" id="DejaVuSans-4c"/>
      <path d="M 53.515625 70.515625 
L 53.515625 60.890625 
Q 47.90625 63.578125 42.921875 64.890625 
Q 37.9375 66.21875 33.296875 66.21875 
Q 25.25 66.21875 20.875 63.09375 
Q 16.5 59.96875 16.5 54.203125 
Q 16.5 49.359375 19.40625 46.890625 
Q 22.3125 44.4375 30.421875 42.921875 
L 36.375 41.703125 
Q 47.40625 39.59375 52.65625 34.296875 
Q 57.90625 29 57.90625 20.125 
Q 57.90625 9.515625 50.796875 4.046875 
Q 43.703125 -1.421875 29.984375 -1.421875 
Q 24.8125 -1.421875 18.96875 -0.25 
Q 13.140625 0.921875 6.890625 3.21875 
L 6.890625 13.375 
Q 12.890625 10.015625 18.65625 8.296875 
Q 24.421875 6.59375 29.984375 6.59375 
Q 38.421875 6.59375 43.015625 9.90625 
Q 47.609375 13.234375 47.609375 19.390625 
Q 47.609375 24.75 44.3125 27.78125 
Q 41.015625 30.8125 33.5 32.328125 
L 27.484375 33.5 
Q 16.453125 35.6875 11.515625 40.375 
Q 6.59375 45.0625 6.59375 53.421875 
Q 6.59375 63.09375 13.40625 68.65625 
Q 20.21875 74.21875 32.171875 74.21875 
Q 37.3125 74.21875 42.625 73.28125 
Q 47.953125 72.359375 53.515625 70.515625 
z
" id="DejaVuSans-53"/>
      <path d="M 44.390625 34.1875 
Q 47.5625 33.109375 50.5625 29.59375 
Q 53.5625 26.078125 56.59375 19.921875 
L 66.609375 0 
L 56 0 
L 46.6875 18.703125 
Q 43.0625 26.03125 39.671875 28.421875 
Q 36.28125 30.8125 30.421875 30.8125 
L 19.671875 30.8125 
L 19.671875 0 
L 9.8125 0 
L 9.8125 72.90625 
L 32.078125 72.90625 
Q 44.578125 72.90625 50.734375 67.671875 
Q 56.890625 62.453125 56.890625 51.90625 
Q 56.890625 45.015625 53.6875 40.46875 
Q 50.484375 35.9375 44.390625 34.1875 
z
M 19.671875 64.796875 
L 19.671875 38.921875 
L 32.078125 38.921875 
Q 39.203125 38.921875 42.84375 42.21875 
Q 46.484375 45.515625 46.484375 51.90625 
Q 46.484375 58.296875 42.84375 61.546875 
Q 39.203125 64.796875 32.078125 64.796875 
z
" id="DejaVuSans-52"/>
     </defs>
     <g transform="translate(62.321 59.880255)scale(0.0833 -0.0833)">
      <use xlink:href="#DejaVuSans-50"/>
      <use x="60.302734" xlink:href="#DejaVuSans-4c"/>
      <use x="116.015625" xlink:href="#DejaVuSans-53"/>
      <use x="179.492188" xlink:href="#DejaVuSans-52"/>
     </g>
    </g>
   </g>
  </g>
 </g>
 <defs>
  <clipPath id="p9a7cab0ebe">
   <rect height="138.6" width="195.3" x="31.5" y="21.6"/>
  </clipPath>
 </defs>
</svg>
